<ttFont>
    <TTGlyph name=".notdef" xMin="68" yMin="0" xMax="612" yMax="1365">
      <contour>
        <pt x="68" y="0" on="1"/>
        <pt x="68" y="1365" on="1"/>
        <pt x="612" y="1365" on="1"/>
        <pt x="612" y="0" on="1"/>
      </contour>
      <contour>
        <pt x="136" y="68" on="1"/>
        <pt x="544" y="68" on="1"/>
        <pt x="544" y="1297" on="1"/>
        <pt x="136" y="1297" on="1"/>
      </contour>
    </TTGlyph>
    <TTGlyph name="A" xMin="-28" yMin="-6" xMax="1264" yMax="1326">
      <contour>
        <pt x="190" y="4" on="1"/>
        <pt x="-24" y="-6" on="1"/>
        <pt x="-28" y="-2" on="0"/>
        <pt x="-28" y="42" on="0"/>
        <pt x="-24" y="52" on="1"/>
        <pt x="1" y="52" on="0"/>
        <pt x="83" y="73" on="0"/>
        <pt x="96" y="90" on="1"/>
        <pt x="138" y="145" on="0"/>
        <pt x="190" y="278" on="1"/>
        <pt x="454" y="957" on="0"/>
        <pt x="576" y="1268" on="1"/>
        <pt x="584" y="1283" on="0"/>
        <pt x="639" y="1326" on="0"/>
        <pt x="655" y="1326" on="0"/>
        <pt x="662" y="1321" on="0"/>
        <pt x="664" y="1320" on="1"/>
        <pt x="1071" y="252" on="1"/>
        <pt x="1121" y="123" on="0"/>
        <pt x="1122" y="120" on="1"/>
        <pt x="1135" y="89" on="0"/>
        <pt x="1234" y="52" on="0"/>
        <pt x="1258" y="52" on="1"/>
        <pt x="1264" y="43" on="0"/>
        <pt x="1264" y="2" on="0"/>
        <pt x="1262" y="-6" on="1"/>
        <pt x="1062" y="4" on="0"/>
        <pt x="1042" y="4" on="1"/>
        <pt x="810" y="-6" on="1"/>
        <pt x="803" y="2" on="0"/>
        <pt x="804" y="44" on="0"/>
        <pt x="812" y="52" on="1"/>
        <pt x="835" y="52" on="0"/>
        <pt x="912" y="67" on="0"/>
        <pt x="932" y="86" on="0"/>
        <pt x="932" y="110" on="1"/>
        <pt x="932" y="160" on="0"/>
        <pt x="830" y="412" on="1"/>
        <pt x="796" y="496" on="1"/>
        <pt x="790" y="504" on="0"/>
        <pt x="758" y="506" on="0"/>
        <pt x="460" y="506" on="0"/>
        <pt x="370" y="500" on="1"/>
        <pt x="360" y="494" on="1"/>
        <pt x="304" y="346" on="0"/>
        <pt x="242" y="168" on="0"/>
        <pt x="242" y="108" on="1"/>
        <pt x="242" y="65" on="0"/>
        <pt x="351" y="54" on="1"/>
        <pt x="370" y="52" on="0"/>
        <pt x="380" y="52" on="1"/>
        <pt x="384" y="48" on="0"/>
        <pt x="387" y="3" on="0"/>
        <pt x="384" y="-6" on="1"/>
      </contour>
      <contour>
        <pt x="582" y="1084" on="1"/>
        <pt x="398" y="596" on="1"/>
        <pt x="398" y="588" on="0"/>
        <pt x="402" y="588" on="1"/>
        <pt x="506" y="584" on="0"/>
        <pt x="659" y="584" on="0"/>
        <pt x="754" y="590" on="0"/>
        <pt x="757" y="595" on="0"/>
        <pt x="758" y="600" on="1"/>
      </contour>
    </TTGlyph>
    <TTGlyph name="AE" xMin="-32" yMin="-8" xMax="1736" yMax="1328">
      <contour>
        <pt x="1628" y="-8" on="1"/>
        <pt x="946" y="0" on="1"/>
        <pt x="826" y="0" on="0"/>
        <pt x="742" y="-4" on="1"/>
        <pt x="714" y="-6" on="1"/>
        <pt x="706" y="4" on="0"/>
        <pt x="712" y="52" on="0"/>
        <pt x="714" y="52" on="1"/>
        <pt x="738" y="52" on="0"/>
        <pt x="839" y="82" on="0"/>
        <pt x="846" y="98" on="1"/>
        <pt x="860" y="152" on="0"/>
        <pt x="860" y="270" on="1"/>
        <pt x="860" y="510" on="1"/>
        <pt x="788" y="514" on="0"/>
        <pt x="631" y="514" on="0"/>
        <pt x="478" y="504" on="1"/>
        <pt x="468" y="498" on="1"/>
        <pt x="384" y="356" on="0"/>
        <pt x="242" y="134" on="0"/>
        <pt x="242" y="87" on="0"/>
        <pt x="276" y="64" on="0"/>
        <pt x="301" y="60" on="1"/>
        <pt x="343" y="52" on="0"/>
        <pt x="370" y="52" on="1"/>
        <pt x="374" y="48" on="0"/>
        <pt x="377" y="3" on="0"/>
        <pt x="374" y="-6" on="1"/>
        <pt x="180" y="4" on="1"/>
        <pt x="-28" y="-6" on="1"/>
        <pt x="-32" y="-2" on="0"/>
        <pt x="-32" y="42" on="0"/>
        <pt x="-28" y="52" on="1"/>
        <pt x="-10" y="52" on="0"/>
        <pt x="65" y="77" on="0"/>
        <pt x="86" y="90" on="1"/>
        <pt x="149" y="130" on="0"/>
        <pt x="236" y="274" on="1"/>
        <pt x="790" y="1168" on="1"/>
        <pt x="804" y="1191" on="0"/>
        <pt x="804" y="1232" on="0"/>
        <pt x="740" y="1258" on="0"/>
        <pt x="714" y="1258" on="1"/>
        <pt x="707" y="1268" on="0"/>
        <pt x="710" y="1312" on="0"/>
        <pt x="714" y="1316" on="1"/>
        <pt x="812" y="1314" on="0"/>
        <pt x="946" y="1314" on="1"/>
        <pt x="1588" y="1328" on="1"/>
        <pt x="1596" y="1270" on="0"/>
        <pt x="1641" y="1080" on="0"/>
        <pt x="1646" y="1056" on="1"/>
        <pt x="1636" y="1046" on="0"/>
        <pt x="1585" y="1046" on="0"/>
        <pt x="1582" y="1060" on="1"/>
        <pt x="1551" y="1171" on="0"/>
        <pt x="1440" y="1248" on="0"/>
        <pt x="1350" y="1248" on="1"/>
        <pt x="1178" y="1248" on="1"/>
        <pt x="1047" y="1248" on="0"/>
        <pt x="1040" y="1226" on="1"/>
        <pt x="1028" y="1188" on="0"/>
        <pt x="1030" y="1084" on="1"/>
        <pt x="1030" y="710" on="1"/>
        <pt x="1028" y="698" on="0"/>
        <pt x="1116" y="698" on="1"/>
        <pt x="1222" y="698" on="1"/>
        <pt x="1360" y="698" on="0"/>
        <pt x="1388" y="718" on="1"/>
        <pt x="1414" y="737" on="0"/>
        <pt x="1430" y="795" on="0"/>
        <pt x="1440" y="836" on="0"/>
        <pt x="1442" y="842" on="1"/>
        <pt x="1445" y="856" on="0"/>
        <pt x="1496" y="856" on="0"/>
        <pt x="1506" y="846" on="1"/>
        <pt x="1506" y="468" on="1"/>
        <pt x="1498" y="460" on="0"/>
        <pt x="1448" y="460" on="0"/>
        <pt x="1442" y="476" on="1"/>
        <pt x="1421" y="555" on="0"/>
        <pt x="1401" y="598" on="0"/>
        <pt x="1361" y="624" on="0"/>
        <pt x="1258" y="624" on="1"/>
        <pt x="1143" y="624" on="1"/>
        <pt x="1030" y="624" on="0"/>
        <pt x="1030" y="606" on="1"/>
        <pt x="1030" y="226" on="1"/>
        <pt x="1026" y="102" on="0"/>
        <pt x="1060" y="74" on="0"/>
        <pt x="1113" y="68" on="0"/>
        <pt x="1184" y="68" on="1"/>
        <pt x="1280" y="68" on="1"/>
        <pt x="1530" y="68" on="0"/>
        <pt x="1601" y="194" on="1"/>
        <pt x="1627" y="241" on="0"/>
        <pt x="1658" y="324" on="1"/>
        <pt x="1661" y="336" on="0"/>
        <pt x="1724" y="336" on="0"/>
        <pt x="1736" y="324" on="1"/>
        <pt x="1727" y="298" on="0"/>
        <pt x="1685" y="184" on="0"/>
        <pt x="1672" y="148" on="1"/>
        <pt x="1637" y="48" on="0"/>
      </contour>
      <contour>
        <pt x="860" y="594" on="1"/>
        <pt x="860" y="1132" on="1"/>
        <pt x="532" y="600" on="1"/>
        <pt x="530" y="592" on="0"/>
        <pt x="534" y="592" on="1"/>
        <pt x="586" y="590" on="0"/>
        <pt x="784" y="590" on="0"/>
      </contour>
    </TTGlyph>
    <TTGlyph name="Aacute" xMin="-28" yMin="-6" xMax="1264" yMax="1722">
      <component glyphName="acutecomb.cap" x="1238" y="0" flags="0x1004"/>
      <component glyphName="A" x="0" y="0" flags="0x1004"/>
    </TTGlyph>
    <TTGlyph name="Abreve" xMin="-28" yMin="-6" xMax="1264" yMax="1666">
      <component glyphName="uni0306.cap" x="1162" y="-6" flags="0x1004"/>
      <component glyphName="A" x="0" y="0" flags="0x1004"/>
    </TTGlyph>
    <TTGlyph name="Acircumflex" xMin="-28" yMin="-6" xMax="1264" yMax="1719">
      <component glyphName="uni0302.cap" x="1160" y="-2" flags="0x1004"/>
      <component glyphName="A" x="0" y="0" flags="0x1004"/>
    </TTGlyph>
    <TTGlyph name="Adieresis" xMin="-28" yMin="-6" xMax="1264" yMax="1656">
      <component glyphName="A" x="0" y="0" flags="0x1004"/>
      <component glyphName="uni0308.cap" x="312" y="32" flags="0x1004"/>
    </TTGlyph>
    <TTGlyph name="Agrave" xMin="-28" yMin="-6" xMax="1264" yMax="1722">
      <component glyphName="gravecomb.cap" x="1046" y="0" flags="0x1004"/>
      <component glyphName="A" x="0" y="0" flags="0x1004"/>
    </TTGlyph>
    <TTGlyph name="Amacron" xMin="-28" yMin="-6" xMax="1264" yMax="1596">
      <component glyphName="uni0304.cap" x="1150" y="56" flags="0x1004"/>
      <component glyphName="A" x="0" y="0" flags="0x1004"/>
    </TTGlyph>
    <TTGlyph name="Aogonek" xMin="-28" yMin="-446" xMax="1264" yMax="1326">
      <contour>
        <pt x="190" y="4" on="1"/>
        <pt x="-24" y="-6" on="1"/>
        <pt x="-28" y="-2" on="0"/>
        <pt x="-28" y="42" on="0"/>
        <pt x="-24" y="52" on="1"/>
        <pt x="1" y="52" on="0"/>
        <pt x="83" y="73" on="0"/>
        <pt x="96" y="90" on="1"/>
        <pt x="138" y="145" on="0"/>
        <pt x="190" y="278" on="1"/>
        <pt x="454" y="957" on="0"/>
        <pt x="576" y="1268" on="1"/>
        <pt x="584" y="1283" on="0"/>
        <pt x="639" y="1326" on="0"/>
        <pt x="655" y="1326" on="0"/>
        <pt x="662" y="1321" on="0"/>
        <pt x="664" y="1320" on="1"/>
        <pt x="1071" y="252" on="1"/>
        <pt x="1121" y="123" on="0"/>
        <pt x="1122" y="120" on="1"/>
        <pt x="1135" y="89" on="0"/>
        <pt x="1234" y="52" on="0"/>
        <pt x="1258" y="52" on="1"/>
        <pt x="1264" y="43" on="0"/>
        <pt x="1264" y="2" on="0"/>
        <pt x="1262" y="-6" on="1"/>
        <pt x="1138" y="1" on="0"/>
        <pt x="1118" y="2" on="1"/>
        <pt x="1040" y="-45" on="0"/>
        <pt x="912" y="-182" on="0"/>
        <pt x="912" y="-242" on="1"/>
        <pt x="912" y="-273" on="0"/>
        <pt x="949" y="-328" on="0"/>
        <pt x="1029" y="-328" on="0"/>
        <pt x="1092" y="-304" on="0"/>
        <pt x="1126" y="-276" on="0"/>
        <pt x="1153" y="-252" on="0"/>
        <pt x="1157" y="-252" on="0"/>
        <pt x="1160" y="-255" on="1"/>
        <pt x="1166" y="-263" on="0"/>
        <pt x="1166" y="-301" on="0"/>
        <pt x="1156" y="-314" on="1"/>
        <pt x="1056" y="-446" on="0"/>
        <pt x="946" y="-446" on="1"/>
        <pt x="894" y="-446" on="0"/>
        <pt x="860" y="-418" on="1"/>
        <pt x="804" y="-371" on="0"/>
        <pt x="804" y="-215" on="0"/>
        <pt x="937" y="-53" on="0"/>
        <pt x="1028" y="4" on="1"/>
        <pt x="1024" y="4" on="1"/>
        <pt x="1019" y="4" on="0"/>
        <pt x="810" y="-6" on="1"/>
        <pt x="803" y="2" on="0"/>
        <pt x="804" y="44" on="0"/>
        <pt x="812" y="52" on="1"/>
        <pt x="835" y="52" on="0"/>
        <pt x="912" y="67" on="0"/>
        <pt x="932" y="86" on="0"/>
        <pt x="932" y="110" on="1"/>
        <pt x="932" y="160" on="0"/>
        <pt x="830" y="412" on="1"/>
        <pt x="796" y="496" on="1"/>
        <pt x="790" y="504" on="0"/>
        <pt x="758" y="506" on="0"/>
        <pt x="460" y="506" on="0"/>
        <pt x="370" y="500" on="1"/>
        <pt x="360" y="494" on="1"/>
        <pt x="304" y="346" on="0"/>
        <pt x="242" y="168" on="0"/>
        <pt x="242" y="108" on="1"/>
        <pt x="244" y="66" on="0"/>
        <pt x="352" y="54" on="1"/>
        <pt x="370" y="52" on="0"/>
        <pt x="380" y="52" on="1"/>
        <pt x="384" y="48" on="0"/>
        <pt x="387" y="3" on="0"/>
        <pt x="384" y="-6" on="1"/>
      </contour>
      <contour>
        <pt x="582" y="1084" on="1"/>
        <pt x="398" y="596" on="1"/>
        <pt x="398" y="588" on="0"/>
        <pt x="402" y="588" on="1"/>
        <pt x="506" y="584" on="0"/>
        <pt x="659" y="584" on="0"/>
        <pt x="754" y="590" on="0"/>
        <pt x="757" y="595" on="0"/>
        <pt x="758" y="600" on="1"/>
      </contour>
    </TTGlyph>
    <TTGlyph name="Aring" xMin="-28" yMin="-6" xMax="1264" yMax="1682">
      <component glyphName="uni030A.cap" x="1154" y="-132" flags="0x1004"/>
      <component glyphName="A" x="0" y="0" flags="0x1004"/>
    </TTGlyph>
    <TTGlyph name="Atilde" xMin="-28" yMin="-6" xMax="1264" yMax="1622">
      <component glyphName="tildecomb.cap" x="1148" y="-14" flags="0x1004"/>
      <component glyphName="A" x="0" y="0" flags="0x1004"/>
    </TTGlyph>
    <TTGlyph name="B" xMin="84" yMin="-6" xMax="1105" yMax="1324">
      <contour>
        <pt x="413" y="664" on="1"/>
        <pt x="413" y="230" on="1"/>
        <pt x="412" y="201" on="0"/>
        <pt x="422" y="103" on="0"/>
        <pt x="437" y="88" on="1"/>
        <pt x="466" y="58" on="0"/>
        <pt x="589" y="58" on="1"/>
        <pt x="907" y="58" on="0"/>
        <pt x="907" y="352" on="1"/>
        <pt x="907" y="664" on="0"/>
        <pt x="535" y="664" on="1"/>
      </contour>
      <contour>
        <pt x="413" y="740" on="1"/>
        <pt x="580" y="740" on="1"/>
        <pt x="705" y="740" on="0"/>
        <pt x="831" y="878" on="0"/>
        <pt x="831" y="974" on="1"/>
        <pt x="831" y="1106" on="0"/>
        <pt x="664" y="1254" on="0"/>
        <pt x="523" y="1254" on="1"/>
        <pt x="432" y="1254" on="0"/>
        <pt x="423" y="1234" on="1"/>
        <pt x="411" y="1205" on="0"/>
        <pt x="413" y="1084" on="1"/>
      </contour>
      <contour>
        <pt x="327" y="1314" on="1"/>
        <pt x="611" y="1318" on="1"/>
        <pt x="812" y="1318" on="0"/>
        <pt x="924" y="1224" on="1"/>
        <pt x="1013" y="1150" on="0"/>
        <pt x="1013" y="917" on="0"/>
        <pt x="878" y="755" on="0"/>
        <pt x="811" y="730" on="1"/>
        <pt x="802" y="726" on="0"/>
        <pt x="811" y="720" on="1"/>
        <pt x="897" y="716" on="0"/>
        <pt x="994" y="632" on="1"/>
        <pt x="1041" y="593" on="0"/>
        <pt x="1105" y="468" on="0"/>
        <pt x="1105" y="398" on="1"/>
        <pt x="1105" y="215" on="0"/>
        <pt x="845" y="-2" on="0"/>
        <pt x="551" y="-6" on="1"/>
        <pt x="91" y="-6" on="1"/>
        <pt x="84" y="2" on="0"/>
        <pt x="85" y="44" on="0"/>
        <pt x="91" y="52" on="1"/>
        <pt x="121" y="52" on="0"/>
        <pt x="225" y="70" on="0"/>
        <pt x="229" y="84" on="1"/>
        <pt x="239" y="116" on="0"/>
        <pt x="239" y="232" on="1"/>
        <pt x="239" y="1086" on="1"/>
        <pt x="239" y="1202" on="0"/>
        <pt x="229" y="1234" on="1"/>
        <pt x="225" y="1248" on="0"/>
        <pt x="121" y="1266" on="0"/>
        <pt x="91" y="1266" on="1"/>
        <pt x="85" y="1274" on="0"/>
        <pt x="84" y="1316" on="0"/>
        <pt x="91" y="1324" on="1"/>
        <pt x="296" y="1314" on="0"/>
      </contour>
    </TTGlyph>
    <TTGlyph name="C" xMin="96" yMin="-12" xMax="1264" yMax="1334">
      <contour>
        <pt x="772" y="1334" on="1"/>
        <pt x="1002" y="1334" on="0"/>
        <pt x="1196" y="1292" on="1"/>
        <pt x="1242" y="1016" on="0"/>
        <pt x="1243" y="987" on="0"/>
        <pt x="1213" y="970" on="0"/>
        <pt x="1183" y="970" on="0"/>
        <pt x="1174" y="976" on="1"/>
        <pt x="1117" y="1268" on="0"/>
        <pt x="782" y="1268" on="1"/>
        <pt x="640" y="1268" on="0"/>
        <pt x="412" y="1092" on="0"/>
        <pt x="294" y="828" on="0"/>
        <pt x="294" y="591" on="0"/>
        <pt x="335" y="410" on="0"/>
        <pt x="420" y="248" on="0"/>
        <pt x="480" y="187" on="1"/>
        <pt x="612" y="54" on="0"/>
        <pt x="814" y="54" on="1"/>
        <pt x="969" y="54" on="0"/>
        <pt x="1078" y="150" on="1"/>
        <pt x="1168" y="231" on="0"/>
        <pt x="1200" y="382" on="1"/>
        <pt x="1235" y="385" on="0"/>
        <pt x="1264" y="366" on="1"/>
        <pt x="1264" y="328" on="0"/>
        <pt x="1213" y="94" on="0"/>
        <pt x="1194" y="78" on="1"/>
        <pt x="1034" y="-12" on="0"/>
        <pt x="764" y="-12" on="1"/>
        <pt x="619" y="-12" on="0"/>
        <pt x="367" y="94" on="0"/>
        <pt x="195" y="272" on="0"/>
        <pt x="96" y="512" on="0"/>
        <pt x="96" y="783" on="0"/>
        <pt x="198" y="1036" on="0"/>
        <pt x="374" y="1223" on="0"/>
        <pt x="628" y="1334" on="0"/>
      </contour>
    </TTGlyph>
    <TTGlyph name="Cacute" xMin="96" yMin="-12" xMax="1264" yMax="1722">
      <component glyphName="acutecomb.cap" x="1412" y="0" flags="0x1004"/>
      <component glyphName="C" x="0" y="0" flags="0x1004"/>
    </TTGlyph>
    <TTGlyph name="Ccaron" xMin="96" yMin="-12" xMax="1264" yMax="1719">
      <component glyphName="C" x="0" y="0" flags="0x1004"/>
      <component glyphName="uni030C.cap" x="492" y="0" flags="0x1004"/>
    </TTGlyph>
    <TTGlyph name="Ccedilla" xMin="98" yMin="-348" xMax="1266" yMax="1334">
      <component glyphName="C" x="2" y="0" flags="0x1004"/>
      <component glyphName="uni0327.cap" x="320" y="0" flags="0x1004"/>
    </TTGlyph>
    <TTGlyph name="Ccircumflex" xMin="96" yMin="-12" xMax="1264" yMax="1719">
      <component glyphName="uni0302.cap" x="1304" y="-2" flags="0x1004"/>
      <component glyphName="C" x="0" y="0" flags="0x1004"/>
    </TTGlyph>
    <TTGlyph name="Cdotaccent" xMin="96" yMin="-12" xMax="1264" yMax="1656">
      <component glyphName="uni0307" x="1276" y="460" flags="0x1004"/>
      <component glyphName="C" x="0" y="0" flags="0x1004"/>
    </TTGlyph>
    <TTGlyph name="D" xMin="84" yMin="-6" xMax="1319" yMax="1324">
      <contour>
        <pt x="415" y="1082" on="1"/>
        <pt x="415" y="230" on="1"/>
        <pt x="415" y="100" on="0"/>
        <pt x="427" y="86" on="1"/>
        <pt x="447" y="58" on="0"/>
        <pt x="700" y="58" on="0"/>
        <pt x="888" y="127" on="0"/>
        <pt x="962" y="195" on="1"/>
        <pt x="1121" y="341" on="0"/>
        <pt x="1121" y="626" on="1"/>
        <pt x="1121" y="1003" on="0"/>
        <pt x="884" y="1161" on="1"/>
        <pt x="748" y="1252" on="0"/>
        <pt x="563" y="1252" on="1"/>
        <pt x="432" y="1252" on="0"/>
        <pt x="425" y="1230" on="1"/>
        <pt x="413" y="1192" on="0"/>
      </contour>
      <contour>
        <pt x="327" y="1314" on="1"/>
        <pt x="617" y="1316" on="1"/>
        <pt x="778" y="1316" on="0"/>
        <pt x="1044" y="1217" on="0"/>
        <pt x="1133" y="1130" on="1"/>
        <pt x="1319" y="950" on="0"/>
        <pt x="1319" y="668" on="1"/>
        <pt x="1319" y="311" on="0"/>
        <pt x="1092" y="133" on="1"/>
        <pt x="914" y="-6" on="0"/>
        <pt x="591" y="-6" on="1"/>
        <pt x="91" y="-6" on="1"/>
        <pt x="84" y="2" on="0"/>
        <pt x="85" y="44" on="0"/>
        <pt x="91" y="52" on="1"/>
        <pt x="121" y="52" on="0"/>
        <pt x="225" y="70" on="0"/>
        <pt x="229" y="84" on="1"/>
        <pt x="239" y="116" on="0"/>
        <pt x="239" y="232" on="1"/>
        <pt x="239" y="1086" on="1"/>
        <pt x="239" y="1202" on="0"/>
        <pt x="229" y="1234" on="1"/>
        <pt x="225" y="1248" on="0"/>
        <pt x="121" y="1266" on="0"/>
        <pt x="91" y="1266" on="1"/>
        <pt x="85" y="1274" on="0"/>
        <pt x="84" y="1316" on="0"/>
        <pt x="91" y="1324" on="1"/>
        <pt x="296" y="1314" on="0"/>
      </contour>
    </TTGlyph>
    <TTGlyph name="Dcaron" xMin="84" yMin="-6" xMax="1319" yMax="1719">
      <component glyphName="D" x="0" y="0" flags="0x1004"/>
      <component glyphName="uni030C.cap" x="395" y="0" flags="0x1004"/>
    </TTGlyph>
    <TTGlyph name="Dcroat" xMin="84" yMin="-6" xMax="1319" yMax="1324">
      <component glyphName="Eth.ref1" x="0" y="0" flags="0x1004"/>
      <component glyphName="D" x="0" y="0" flags="0x1004"/>
    </TTGlyph>
    <TTGlyph name="Dot.a" xMin="-133" yMin="6" xMax="132" yMax="264">
      <contour>
        <pt x="-33" y="260" on="1"/>
        <pt x="-28" y="268" on="0"/>
        <pt x="-16" y="264" on="1"/>
        <pt x="65" y="236" on="0"/>
        <pt x="129" y="179" on="1"/>
        <pt x="138" y="171" on="0"/>
        <pt x="132" y="161" on="1"/>
        <pt x="34" y="6" on="1"/>
        <pt x="28" y="-3" on="0"/>
        <pt x="-1" y="21" on="0"/>
        <pt x="-130" y="99" on="1"/>
        <pt x="-138" y="104" on="0"/>
        <pt x="-133" y="111" on="1"/>
      </contour>
    </TTGlyph>
    <TTGlyph name="Dot.b" xMin="-133" yMin="6" xMax="132" yMax="264">
      <component glyphName="Dot.a" x="0" y="0" flags="0x1004"/>
    </TTGlyph>
    <TTGlyph name="Dot.b.l" xMin="-133" yMin="6" xMax="132" yMax="264">
      <component glyphName="Dot.a" x="0" y="0" flags="0x1004"/>
    </TTGlyph>
    <TTGlyph name="E" xMin="84" yMin="-8" xMax="1119" yMax="1328">
      <contour>
        <pt x="329" y="0" on="1"/>
        <pt x="91" y="-6" on="1"/>
        <pt x="84" y="2" on="0"/>
        <pt x="85" y="44" on="0"/>
        <pt x="91" y="52" on="1"/>
        <pt x="121" y="52" on="0"/>
        <pt x="225" y="70" on="0"/>
        <pt x="229" y="84" on="1"/>
        <pt x="239" y="116" on="0"/>
        <pt x="239" y="232" on="1"/>
        <pt x="239" y="1086" on="1"/>
        <pt x="239" y="1202" on="0"/>
        <pt x="229" y="1234" on="1"/>
        <pt x="225" y="1248" on="0"/>
        <pt x="121" y="1266" on="0"/>
        <pt x="91" y="1266" on="1"/>
        <pt x="85" y="1274" on="0"/>
        <pt x="84" y="1316" on="0"/>
        <pt x="91" y="1324" on="1"/>
        <pt x="296" y="1314" on="0"/>
        <pt x="327" y="1314" on="1"/>
        <pt x="971" y="1328" on="1"/>
        <pt x="979" y="1270" on="0"/>
        <pt x="1024" y="1080" on="0"/>
        <pt x="1029" y="1056" on="1"/>
        <pt x="1019" y="1046" on="0"/>
        <pt x="968" y="1046" on="0"/>
        <pt x="965" y="1060" on="1"/>
        <pt x="934" y="1171" on="0"/>
        <pt x="823" y="1248" on="0"/>
        <pt x="733" y="1248" on="1"/>
        <pt x="561" y="1248" on="1"/>
        <pt x="430" y="1248" on="0"/>
        <pt x="423" y="1226" on="1"/>
        <pt x="411" y="1188" on="0"/>
        <pt x="413" y="1084" on="1"/>
        <pt x="413" y="710" on="1"/>
        <pt x="411" y="698" on="0"/>
        <pt x="499" y="698" on="1"/>
        <pt x="605" y="698" on="1"/>
        <pt x="744" y="698" on="0"/>
        <pt x="771" y="718" on="1"/>
        <pt x="797" y="737" on="0"/>
        <pt x="813" y="795" on="0"/>
        <pt x="823" y="836" on="0"/>
        <pt x="825" y="842" on="1"/>
        <pt x="828" y="856" on="0"/>
        <pt x="879" y="856" on="0"/>
        <pt x="889" y="846" on="1"/>
        <pt x="889" y="468" on="1"/>
        <pt x="881" y="460" on="0"/>
        <pt x="831" y="460" on="0"/>
        <pt x="825" y="476" on="1"/>
        <pt x="804" y="555" on="0"/>
        <pt x="784" y="598" on="0"/>
        <pt x="744" y="624" on="0"/>
        <pt x="640" y="624" on="1"/>
        <pt x="526" y="624" on="1"/>
        <pt x="413" y="624" on="0"/>
        <pt x="413" y="606" on="1"/>
        <pt x="413" y="226" on="1"/>
        <pt x="409" y="102" on="0"/>
        <pt x="443" y="74" on="0"/>
        <pt x="496" y="68" on="0"/>
        <pt x="567" y="68" on="1"/>
        <pt x="663" y="68" on="1"/>
        <pt x="913" y="68" on="0"/>
        <pt x="984" y="194" on="1"/>
        <pt x="1010" y="241" on="0"/>
        <pt x="1041" y="324" on="1"/>
        <pt x="1044" y="336" on="0"/>
        <pt x="1107" y="336" on="0"/>
        <pt x="1119" y="324" on="1"/>
        <pt x="1110" y="298" on="0"/>
        <pt x="1068" y="184" on="0"/>
        <pt x="1056" y="148" on="1"/>
        <pt x="1020" y="48" on="0"/>
        <pt x="1011" y="-8" on="1"/>
      </contour>
    </TTGlyph>
    <TTGlyph name="Eacute" xMin="84" yMin="-8" xMax="1119" yMax="1722">
      <component glyphName="acutecomb.cap" x="1212" y="0" flags="0x1004"/>
      <component glyphName="E" x="0" y="0" flags="0x1004"/>
    </TTGlyph>
    <TTGlyph name="Ebreve" xMin="84" yMin="-8" xMax="1119" yMax="1666">
      <component glyphName="uni0306.cap" x="1102" y="-6" flags="0x1004"/>
      <component glyphName="E" x="0" y="0" flags="0x1004"/>
    </TTGlyph>
    <TTGlyph name="Ecaron" xMin="84" yMin="-8" xMax="1119" yMax="1719">
      <component glyphName="E" x="0" y="0" flags="0x1004"/>
      <component glyphName="uni030C.cap" x="342" y="0" flags="0x1004"/>
    </TTGlyph>
    <TTGlyph name="Ecircumflex" xMin="84" yMin="-8" xMax="1119" yMax="1719">
      <component glyphName="uni0302.cap" x="1118" y="-2" flags="0x1004"/>
      <component glyphName="E" x="0" y="0" flags="0x1004"/>
    </TTGlyph>
    <TTGlyph name="Edieresis" xMin="84" yMin="-8" xMax="1119" yMax="1656">
      <component glyphName="E" x="0" y="0" flags="0x1004"/>
      <component glyphName="uni0308.cap" x="254" y="32" flags="0x1004"/>
    </TTGlyph>
    <TTGlyph name="Edotaccent" xMin="84" yMin="-8" xMax="1119" yMax="1656">
      <component glyphName="uni0307" x="1100" y="460" flags="0x1004"/>
      <component glyphName="E" x="0" y="0" flags="0x1004"/>
    </TTGlyph>
    <TTGlyph name="Egrave" xMin="84" yMin="-8" xMax="1119" yMax="1722">
      <component glyphName="gravecomb.cap" x="1022" y="0" flags="0x1004"/>
      <component glyphName="E" x="0" y="0" flags="0x1004"/>
    </TTGlyph>
    <TTGlyph name="Emacron" xMin="84" yMin="-8" xMax="1119" yMax="1596">
      <component glyphName="uni0304.cap" x="1046" y="56" flags="0x1004"/>
      <component glyphName="E" x="0" y="0" flags="0x1004"/>
    </TTGlyph>
    <TTGlyph name="Eng" xMin="82" yMin="-454" xMax="1490" yMax="1330">
      <contour>
        <pt x="1276" y="1316" on="1"/>
        <pt x="1490" y="1326" on="1"/>
        <pt x="1505" y="1301" on="0"/>
        <pt x="1490" y="1268" on="1"/>
        <pt x="1462" y="1268" on="0"/>
        <pt x="1343" y="1244" on="0"/>
        <pt x="1332" y="1226" on="1"/>
        <pt x="1314" y="1195" on="0"/>
        <pt x="1314" y="1092" on="1"/>
        <pt x="1314" y="242" on="1"/>
        <pt x="1314" y="-284" on="0"/>
        <pt x="1034" y="-415" on="1"/>
        <pt x="950" y="-454" on="0"/>
        <pt x="846" y="-454" on="1"/>
        <pt x="822" y="-454" on="0"/>
        <pt x="737" y="-431" on="0"/>
        <pt x="720" y="-418" on="1"/>
        <pt x="704" y="-402" on="0"/>
        <pt x="704" y="-323" on="0"/>
        <pt x="754" y="-260" on="0"/>
        <pt x="800" y="-260" on="1"/>
        <pt x="817" y="-260" on="0"/>
        <pt x="838" y="-272" on="0"/>
        <pt x="849" y="-278" on="0"/>
        <pt x="867" y="-292" on="0"/>
        <pt x="870" y="-295" on="1"/>
        <pt x="888" y="-310" on="0"/>
        <pt x="896" y="-318" on="1"/>
        <pt x="942" y="-360" on="0"/>
        <pt x="1017" y="-360" on="0"/>
        <pt x="1076" y="-321" on="0"/>
        <pt x="1106" y="-276" on="1"/>
        <pt x="1173" y="-176" on="0"/>
        <pt x="1191" y="75" on="1"/>
        <pt x="350" y="1138" on="1"/>
        <pt x="350" y="230" on="1"/>
        <pt x="350" y="168" on="0"/>
        <pt x="356" y="114" on="0"/>
        <pt x="378" y="78" on="0"/>
        <pt x="491" y="52" on="0"/>
        <pt x="520" y="52" on="1"/>
        <pt x="527" y="42" on="0"/>
        <pt x="528" y="2" on="0"/>
        <pt x="524" y="-6" on="1"/>
        <pt x="324" y="4" on="0"/>
        <pt x="296" y="4" on="1"/>
        <pt x="82" y="-6" on="1"/>
        <pt x="67" y="19" on="0"/>
        <pt x="82" y="52" on="1"/>
        <pt x="110" y="52" on="0"/>
        <pt x="229" y="76" on="0"/>
        <pt x="240" y="94" on="1"/>
        <pt x="258" y="125" on="0"/>
        <pt x="258" y="228" on="1"/>
        <pt x="258" y="1096" on="1"/>
        <pt x="258" y="1200" on="0"/>
        <pt x="238" y="1232" on="1"/>
        <pt x="229" y="1248" on="0"/>
        <pt x="110" y="1272" on="0"/>
        <pt x="82" y="1272" on="1"/>
        <pt x="67" y="1305" on="0"/>
        <pt x="82" y="1330" on="1"/>
        <pt x="286" y="1320" on="1"/>
        <pt x="382" y="1320" on="0"/>
        <pt x="438" y="1324" on="1"/>
        <pt x="488" y="1246" on="0"/>
        <pt x="1108" y="491" on="0"/>
        <pt x="1222" y="332" on="1"/>
        <pt x="1222" y="1090" on="1"/>
        <pt x="1222" y="1152" on="0"/>
        <pt x="1216" y="1206" on="0"/>
        <pt x="1194" y="1242" on="0"/>
        <pt x="1079" y="1268" on="0"/>
        <pt x="1050" y="1268" on="1"/>
        <pt x="1043" y="1278" on="0"/>
        <pt x="1042" y="1318" on="0"/>
        <pt x="1046" y="1326" on="1"/>
        <pt x="1246" y="1316" on="0"/>
      </contour>
    </TTGlyph>
    <TTGlyph name="Eogonek" xMin="84" yMin="-448" xMax="1119" yMax="1328">
      <contour>
        <pt x="329" y="0" on="1"/>
        <pt x="91" y="-6" on="1"/>
        <pt x="84" y="2" on="0"/>
        <pt x="85" y="44" on="0"/>
        <pt x="91" y="52" on="1"/>
        <pt x="121" y="52" on="0"/>
        <pt x="225" y="70" on="0"/>
        <pt x="229" y="84" on="1"/>
        <pt x="239" y="116" on="0"/>
        <pt x="239" y="232" on="1"/>
        <pt x="239" y="1086" on="1"/>
        <pt x="239" y="1202" on="0"/>
        <pt x="229" y="1234" on="1"/>
        <pt x="225" y="1248" on="0"/>
        <pt x="121" y="1266" on="0"/>
        <pt x="91" y="1266" on="1"/>
        <pt x="85" y="1274" on="0"/>
        <pt x="84" y="1316" on="0"/>
        <pt x="91" y="1324" on="1"/>
        <pt x="296" y="1314" on="0"/>
        <pt x="327" y="1314" on="1"/>
        <pt x="971" y="1328" on="1"/>
        <pt x="979" y="1270" on="0"/>
        <pt x="1024" y="1080" on="0"/>
        <pt x="1029" y="1056" on="1"/>
        <pt x="1019" y="1046" on="0"/>
        <pt x="968" y="1046" on="0"/>
        <pt x="965" y="1060" on="1"/>
        <pt x="934" y="1171" on="0"/>
        <pt x="823" y="1248" on="0"/>
        <pt x="733" y="1248" on="1"/>
        <pt x="561" y="1248" on="1"/>
        <pt x="430" y="1248" on="0"/>
        <pt x="423" y="1226" on="1"/>
        <pt x="411" y="1188" on="0"/>
        <pt x="413" y="1084" on="1"/>
        <pt x="413" y="710" on="1"/>
        <pt x="411" y="698" on="0"/>
        <pt x="499" y="698" on="1"/>
        <pt x="605" y="698" on="1"/>
        <pt x="744" y="698" on="0"/>
        <pt x="771" y="718" on="1"/>
        <pt x="797" y="737" on="0"/>
        <pt x="813" y="795" on="0"/>
        <pt x="823" y="836" on="0"/>
        <pt x="825" y="842" on="1"/>
        <pt x="828" y="856" on="0"/>
        <pt x="879" y="856" on="0"/>
        <pt x="889" y="846" on="1"/>
        <pt x="889" y="468" on="1"/>
        <pt x="881" y="460" on="0"/>
        <pt x="831" y="460" on="0"/>
        <pt x="825" y="476" on="1"/>
        <pt x="804" y="555" on="0"/>
        <pt x="784" y="598" on="0"/>
        <pt x="744" y="624" on="0"/>
        <pt x="640" y="624" on="1"/>
        <pt x="526" y="624" on="1"/>
        <pt x="413" y="624" on="0"/>
        <pt x="413" y="606" on="1"/>
        <pt x="413" y="226" on="1"/>
        <pt x="409" y="102" on="0"/>
        <pt x="443" y="74" on="0"/>
        <pt x="496" y="68" on="0"/>
        <pt x="567" y="68" on="1"/>
        <pt x="663" y="68" on="1"/>
        <pt x="913" y="68" on="0"/>
        <pt x="984" y="194" on="1"/>
        <pt x="1010" y="241" on="0"/>
        <pt x="1041" y="324" on="1"/>
        <pt x="1044" y="336" on="0"/>
        <pt x="1107" y="336" on="0"/>
        <pt x="1119" y="324" on="1"/>
        <pt x="1110" y="298" on="0"/>
        <pt x="1068" y="184" on="0"/>
        <pt x="1056" y="148" on="1"/>
        <pt x="1020" y="48" on="0"/>
        <pt x="1011" y="-8" on="1"/>
        <pt x="927" y="-8" on="0"/>
        <pt x="760" y="-175" on="0"/>
        <pt x="760" y="-244" on="1"/>
        <pt x="760" y="-275" on="0"/>
        <pt x="797" y="-330" on="0"/>
        <pt x="877" y="-330" on="0"/>
        <pt x="940" y="-306" on="0"/>
        <pt x="974" y="-278" on="0"/>
        <pt x="1001" y="-254" on="0"/>
        <pt x="1012" y="-254" on="0"/>
        <pt x="1012" y="-305" on="0"/>
        <pt x="1004" y="-316" on="1"/>
        <pt x="904" y="-448" on="0"/>
        <pt x="794" y="-448" on="1"/>
        <pt x="742" y="-448" on="0"/>
        <pt x="708" y="-420" on="1"/>
        <pt x="652" y="-373" on="0"/>
        <pt x="652" y="-222" on="0"/>
        <pt x="775" y="-66" on="0"/>
        <pt x="860" y="-7" on="1"/>
      </contour>
    </TTGlyph>
    <TTGlyph name="Eth" xMin="84" yMin="-6" xMax="1319" yMax="1324">
      <component glyphName="D" x="0" y="0" flags="0x1004"/>
      <component glyphName="Eth.ref1" x="0" y="0" flags="0x1004"/>
    </TTGlyph>
    <TTGlyph name="Eth.ref1" xMin="90" yMin="622" xMax="736" yMax="696">
      <contour>
        <pt x="730" y="622" on="1"/>
        <pt x="98" y="622" on="1"/>
        <pt x="87" y="622" on="0"/>
        <pt x="94" y="688" on="0"/>
        <pt x="100" y="696" on="1"/>
        <pt x="730" y="696" on="1"/>
        <pt x="736" y="696" on="0"/>
        <pt x="736" y="636" on="0"/>
      </contour>
    </TTGlyph>
    <TTGlyph name="Euro" xMin="73" yMin="-12" xMax="1305" yMax="1280">
      <contour>
        <pt x="1243" y="366" on="1"/>
        <pt x="1267" y="366" on="0"/>
        <pt x="1305" y="352" on="1"/>
        <pt x="1305" y="317" on="0"/>
        <pt x="1255" y="90" on="0"/>
        <pt x="1237" y="74" on="1"/>
        <pt x="1085" y="-12" on="0"/>
        <pt x="825" y="-12" on="1"/>
        <pt x="686" y="-12" on="0"/>
        <pt x="444" y="90" on="0"/>
        <pt x="278" y="261" on="0"/>
        <pt x="230" y="376" on="1"/>
        <pt x="210" y="426" on="0"/>
        <pt x="198" y="478" on="1"/>
        <pt x="73" y="478" on="1"/>
        <pt x="63" y="478" on="0"/>
        <pt x="86" y="553" on="0"/>
        <pt x="105" y="574" on="1"/>
        <pt x="185" y="574" on="1"/>
        <pt x="183" y="597" on="0"/>
        <pt x="183" y="622" on="1"/>
        <pt x="183" y="661" on="0"/>
        <pt x="188" y="700" on="1"/>
        <pt x="73" y="700" on="1"/>
        <pt x="63" y="700" on="0"/>
        <pt x="86" y="775" on="0"/>
        <pt x="105" y="796" on="1"/>
        <pt x="206" y="796" on="1"/>
        <pt x="217" y="835" on="0"/>
        <pt x="232" y="874" on="1"/>
        <pt x="281" y="995" on="0"/>
        <pt x="451" y="1174" on="0"/>
        <pt x="694" y="1280" on="0"/>
        <pt x="833" y="1280" on="1"/>
        <pt x="1050" y="1280" on="0"/>
        <pt x="1239" y="1240" on="1"/>
        <pt x="1283" y="976" on="0"/>
        <pt x="1283" y="928" on="0"/>
        <pt x="1222" y="928" on="0"/>
        <pt x="1217" y="936" on="1"/>
        <pt x="1200" y="1020" on="0"/>
        <pt x="1149" y="1092" on="0"/>
        <pt x="1090" y="1149" on="0"/>
        <pt x="1054" y="1167" on="1"/>
        <pt x="966" y="1210" on="0"/>
        <pt x="738" y="1210" on="0"/>
        <pt x="559" y="1113" on="0"/>
        <pt x="500" y="1034" on="1"/>
        <pt x="417" y="924" on="0"/>
        <pt x="388" y="796" on="1"/>
        <pt x="889" y="796" on="1"/>
        <pt x="900" y="796" on="0"/>
        <pt x="877" y="722" on="0"/>
        <pt x="857" y="700" on="1"/>
        <pt x="374" y="700" on="1"/>
        <pt x="373" y="679" on="0"/>
        <pt x="373" y="658" on="1"/>
        <pt x="373" y="615" on="0"/>
        <pt x="377" y="574" on="1"/>
        <pt x="889" y="574" on="1"/>
        <pt x="900" y="574" on="0"/>
        <pt x="877" y="500" on="0"/>
        <pt x="857" y="478" on="1"/>
        <pt x="393" y="478" on="1"/>
        <pt x="423" y="352" on="0"/>
        <pt x="497" y="247" on="1"/>
        <pt x="557" y="162" on="0"/>
        <pt x="752" y="60" on="0"/>
        <pt x="873" y="60" on="1"/>
        <pt x="1176" y="60" on="0"/>
      </contour>
    </TTGlyph>
    <TTGlyph name="F" xMin="84" yMin="-6" xMax="1029" yMax="1328">
      <contour>
        <pt x="327" y="4" on="1"/>
        <pt x="91" y="-6" on="1"/>
        <pt x="84" y="2" on="0"/>
        <pt x="85" y="44" on="0"/>
        <pt x="91" y="52" on="1"/>
        <pt x="121" y="52" on="0"/>
        <pt x="225" y="70" on="0"/>
        <pt x="229" y="84" on="1"/>
        <pt x="239" y="116" on="0"/>
        <pt x="239" y="232" on="1"/>
        <pt x="239" y="1086" on="1"/>
        <pt x="239" y="1202" on="0"/>
        <pt x="229" y="1234" on="1"/>
        <pt x="225" y="1248" on="0"/>
        <pt x="121" y="1266" on="0"/>
        <pt x="91" y="1266" on="1"/>
        <pt x="85" y="1274" on="0"/>
        <pt x="84" y="1316" on="0"/>
        <pt x="91" y="1324" on="1"/>
        <pt x="296" y="1314" on="0"/>
        <pt x="327" y="1314" on="1"/>
        <pt x="971" y="1328" on="1"/>
        <pt x="979" y="1270" on="0"/>
        <pt x="1024" y="1080" on="0"/>
        <pt x="1029" y="1056" on="1"/>
        <pt x="1019" y="1046" on="0"/>
        <pt x="968" y="1046" on="0"/>
        <pt x="965" y="1060" on="1"/>
        <pt x="934" y="1171" on="0"/>
        <pt x="823" y="1248" on="0"/>
        <pt x="733" y="1248" on="1"/>
        <pt x="561" y="1248" on="1"/>
        <pt x="430" y="1248" on="0"/>
        <pt x="423" y="1226" on="1"/>
        <pt x="413" y="1194" on="0"/>
        <pt x="413" y="1084" on="1"/>
        <pt x="413" y="710" on="1"/>
        <pt x="411" y="698" on="0"/>
        <pt x="499" y="698" on="1"/>
        <pt x="605" y="698" on="1"/>
        <pt x="744" y="698" on="0"/>
        <pt x="771" y="718" on="1"/>
        <pt x="797" y="737" on="0"/>
        <pt x="813" y="795" on="0"/>
        <pt x="823" y="836" on="0"/>
        <pt x="825" y="842" on="1"/>
        <pt x="828" y="856" on="0"/>
        <pt x="879" y="856" on="0"/>
        <pt x="889" y="846" on="1"/>
        <pt x="889" y="468" on="1"/>
        <pt x="881" y="460" on="0"/>
        <pt x="831" y="460" on="0"/>
        <pt x="825" y="476" on="1"/>
        <pt x="804" y="555" on="0"/>
        <pt x="784" y="598" on="0"/>
        <pt x="744" y="624" on="0"/>
        <pt x="413" y="624" on="0"/>
        <pt x="413" y="606" on="1"/>
        <pt x="413" y="232" on="1"/>
        <pt x="413" y="116" on="0"/>
        <pt x="423" y="84" on="1"/>
        <pt x="427" y="70" on="0"/>
        <pt x="548" y="52" on="0"/>
        <pt x="581" y="52" on="1"/>
        <pt x="587" y="44" on="0"/>
        <pt x="588" y="2" on="0"/>
        <pt x="581" y="-6" on="1"/>
        <pt x="376" y="4" on="0"/>
      </contour>
    </TTGlyph>
    <TTGlyph name="FourDots.a" xMin="-275" yMin="6" xMax="234" yMax="550">
      <contour>
        <pt x="-175" y="499" on="1"/>
        <pt x="-170" y="507" on="0"/>
        <pt x="-158" y="503" on="1"/>
        <pt x="-90" y="480" on="0"/>
        <pt x="-34" y="436" on="1"/>
        <pt x="40" y="546" on="1"/>
        <pt x="45" y="554" on="0"/>
        <pt x="57" y="550" on="1"/>
        <pt x="138" y="522" on="0"/>
        <pt x="202" y="465" on="1"/>
        <pt x="211" y="457" on="0"/>
        <pt x="205" y="447" on="1"/>
        <pt x="112" y="300" on="1"/>
        <pt x="177" y="273" on="0"/>
        <pt x="231" y="225" on="1"/>
        <pt x="240" y="217" on="0"/>
        <pt x="234" y="207" on="1"/>
        <pt x="136" y="52" on="1"/>
        <pt x="130" y="43" on="0"/>
        <pt x="116" y="55" on="1"/>
        <pt x="103" y="66" on="0"/>
        <pt x="0" y="128" on="1"/>
        <pt x="-77" y="6" on="1"/>
        <pt x="-83" y="-3" on="0"/>
        <pt x="-112" y="21" on="0"/>
        <pt x="-241" y="99" on="1"/>
        <pt x="-249" y="104" on="0"/>
        <pt x="-244" y="111" on="1"/>
        <pt x="-145" y="259" on="1"/>
        <pt x="-178" y="281" on="0"/>
        <pt x="-272" y="338" on="1"/>
        <pt x="-280" y="343" on="0"/>
        <pt x="-275" y="350" on="1"/>
      </contour>
      <contour>
        <pt x="-4" y="197" on="1"/>
        <pt x="69" y="306" on="1"/>
        <pt x="69" y="306" on="0"/>
        <pt x="70" y="307" on="1"/>
        <pt x="42" y="326" on="0"/>
        <pt x="-30" y="369" on="1"/>
        <pt x="-102" y="254" on="1"/>
        <pt x="-49" y="232" on="0"/>
      </contour>
    </TTGlyph>
    <TTGlyph name="FourDots.b" xMin="-275" yMin="6" xMax="234" yMax="550">
      <component glyphName="FourDots.a" x="0" y="0" flags="0x1004"/>
    </TTGlyph>
    <TTGlyph name="FourDots.b.l" xMin="-275" yMin="6" xMax="234" yMax="550">
      <component glyphName="FourDots.a" x="0" y="0" flags="0x1004"/>
    </TTGlyph>
    <TTGlyph name="G" xMin="96" yMin="-12" xMax="1389" yMax="1334">
      <contour>
        <pt x="1070" y="350" on="1"/>
        <pt x="1070" y="466" on="0"/>
        <pt x="1060" y="498" on="1"/>
        <pt x="1056" y="512" on="0"/>
        <pt x="954" y="530" on="0"/>
        <pt x="924" y="530" on="1"/>
        <pt x="918" y="538" on="0"/>
        <pt x="917" y="580" on="0"/>
        <pt x="924" y="588" on="1"/>
        <pt x="1129" y="578" on="0"/>
        <pt x="1177" y="578" on="0"/>
        <pt x="1382" y="588" on="1"/>
        <pt x="1389" y="580" on="0"/>
        <pt x="1388" y="538" on="0"/>
        <pt x="1382" y="530" on="1"/>
        <pt x="1353" y="530" on="0"/>
        <pt x="1256" y="512" on="0"/>
        <pt x="1252" y="498" on="1"/>
        <pt x="1242" y="466" on="0"/>
        <pt x="1242" y="350" on="1"/>
        <pt x="1242" y="208" on="1"/>
        <pt x="1242" y="184" on="0"/>
        <pt x="1262" y="135" on="0"/>
        <pt x="1262" y="127" on="1"/>
        <pt x="1262" y="103" on="0"/>
        <pt x="1122" y="42" on="1"/>
        <pt x="1081" y="25" on="0"/>
        <pt x="886" y="-12" on="0"/>
        <pt x="619" y="-12" on="0"/>
        <pt x="367" y="94" on="0"/>
        <pt x="195" y="272" on="0"/>
        <pt x="96" y="512" on="0"/>
        <pt x="96" y="783" on="0"/>
        <pt x="198" y="1036" on="0"/>
        <pt x="374" y="1223" on="0"/>
        <pt x="628" y="1334" on="0"/>
        <pt x="772" y="1334" on="1"/>
        <pt x="1002" y="1334" on="0"/>
        <pt x="1196" y="1292" on="1"/>
        <pt x="1242" y="1016" on="0"/>
        <pt x="1243" y="987" on="0"/>
        <pt x="1213" y="970" on="0"/>
        <pt x="1183" y="970" on="0"/>
        <pt x="1174" y="976" on="1"/>
        <pt x="1117" y="1268" on="0"/>
        <pt x="782" y="1268" on="1"/>
        <pt x="640" y="1268" on="0"/>
        <pt x="412" y="1092" on="0"/>
        <pt x="294" y="828" on="0"/>
        <pt x="294" y="591" on="0"/>
        <pt x="334" y="410" on="0"/>
        <pt x="419" y="248" on="0"/>
        <pt x="480" y="187" on="1"/>
        <pt x="611" y="54" on="0"/>
        <pt x="814" y="54" on="1"/>
        <pt x="928" y="54" on="0"/>
        <pt x="1056" y="118" on="1"/>
        <pt x="1070" y="125" on="0"/>
        <pt x="1070" y="148" on="1"/>
      </contour>
    </TTGlyph>
    <TTGlyph name="Gbreve" xMin="96" yMin="-12" xMax="1389" yMax="1666">
      <component glyphName="uni0306.cap" x="1272" y="-6" flags="0x1004"/>
      <component glyphName="G" x="0" y="0" flags="0x1004"/>
    </TTGlyph>
    <TTGlyph name="Gcaron" xMin="96" yMin="-12" xMax="1389" yMax="1719">
      <component glyphName="uni030C.cap" x="496" y="0" flags="0x1004"/>
      <component glyphName="G" x="0" y="0" flags="0x1004"/>
    </TTGlyph>
    <TTGlyph name="Gcircumflex" xMin="96" yMin="-12" xMax="1389" yMax="1719">
      <component glyphName="uni0302.cap" x="1280" y="-2" flags="0x1004"/>
      <component glyphName="G" x="0" y="0" flags="0x1004"/>
    </TTGlyph>
    <TTGlyph name="Gcommaaccent" xMin="96" yMin="-458" xMax="1389" yMax="1334">
      <component glyphName="uni0326" x="1264" y="0" flags="0x1004"/>
      <component glyphName="G" x="0" y="0" flags="0x1004"/>
    </TTGlyph>
    <TTGlyph name="Gdotaccent" xMin="96" yMin="-12" xMax="1389" yMax="1656">
      <component glyphName="uni0307" x="1276" y="460" flags="0x1004"/>
      <component glyphName="G" x="0" y="0" flags="0x1004"/>
    </TTGlyph>
    <TTGlyph name="H" xMin="84" yMin="-6" xMax="1370" yMax="1324">
      <contour>
        <pt x="91" y="1324" on="1"/>
        <pt x="296" y="1314" on="0"/>
        <pt x="356" y="1314" on="0"/>
        <pt x="561" y="1324" on="1"/>
        <pt x="568" y="1316" on="0"/>
        <pt x="567" y="1268" on="0"/>
        <pt x="561" y="1260" on="1"/>
        <pt x="531" y="1260" on="0"/>
        <pt x="427" y="1242" on="0"/>
        <pt x="423" y="1228" on="1"/>
        <pt x="413" y="1196" on="0"/>
        <pt x="413" y="1080" on="1"/>
        <pt x="413" y="730" on="1"/>
        <pt x="417" y="724" on="1"/>
        <pt x="711" y="718" on="0"/>
        <pt x="767" y="718" on="0"/>
        <pt x="1037" y="724" on="1"/>
        <pt x="1041" y="728" on="0"/>
        <pt x="1041" y="732" on="1"/>
        <pt x="1041" y="1080" on="1"/>
        <pt x="1041" y="1196" on="0"/>
        <pt x="1031" y="1228" on="1"/>
        <pt x="1027" y="1242" on="0"/>
        <pt x="923" y="1260" on="0"/>
        <pt x="893" y="1260" on="1"/>
        <pt x="887" y="1268" on="0"/>
        <pt x="886" y="1316" on="0"/>
        <pt x="893" y="1324" on="1"/>
        <pt x="1098" y="1314" on="0"/>
        <pt x="1158" y="1314" on="0"/>
        <pt x="1363" y="1324" on="1"/>
        <pt x="1370" y="1316" on="0"/>
        <pt x="1369" y="1268" on="0"/>
        <pt x="1363" y="1260" on="1"/>
        <pt x="1333" y="1260" on="0"/>
        <pt x="1229" y="1242" on="0"/>
        <pt x="1225" y="1228" on="1"/>
        <pt x="1215" y="1196" on="0"/>
        <pt x="1215" y="1080" on="1"/>
        <pt x="1215" y="238" on="1"/>
        <pt x="1215" y="122" on="0"/>
        <pt x="1225" y="90" on="1"/>
        <pt x="1229" y="76" on="0"/>
        <pt x="1333" y="58" on="0"/>
        <pt x="1363" y="58" on="1"/>
        <pt x="1369" y="50" on="0"/>
        <pt x="1370" y="2" on="0"/>
        <pt x="1363" y="-6" on="1"/>
        <pt x="1158" y="4" on="0"/>
        <pt x="1098" y="4" on="0"/>
        <pt x="893" y="-6" on="1"/>
        <pt x="886" y="2" on="0"/>
        <pt x="887" y="50" on="0"/>
        <pt x="893" y="58" on="1"/>
        <pt x="923" y="58" on="0"/>
        <pt x="1027" y="76" on="0"/>
        <pt x="1031" y="90" on="1"/>
        <pt x="1041" y="122" on="0"/>
        <pt x="1041" y="238" on="1"/>
        <pt x="1041" y="634" on="1"/>
        <pt x="1037" y="642" on="1"/>
        <pt x="845" y="650" on="0"/>
        <pt x="439" y="650" on="0"/>
        <pt x="415" y="638" on="1"/>
        <pt x="413" y="634" on="1"/>
        <pt x="413" y="238" on="1"/>
        <pt x="413" y="122" on="0"/>
        <pt x="423" y="90" on="1"/>
        <pt x="427" y="76" on="0"/>
        <pt x="531" y="58" on="0"/>
        <pt x="561" y="58" on="1"/>
        <pt x="567" y="50" on="0"/>
        <pt x="568" y="2" on="0"/>
        <pt x="561" y="-6" on="1"/>
        <pt x="356" y="4" on="0"/>
        <pt x="296" y="4" on="0"/>
        <pt x="91" y="-6" on="1"/>
        <pt x="84" y="2" on="0"/>
        <pt x="85" y="50" on="0"/>
        <pt x="91" y="58" on="1"/>
        <pt x="121" y="58" on="0"/>
        <pt x="225" y="76" on="0"/>
        <pt x="229" y="90" on="1"/>
        <pt x="239" y="122" on="0"/>
        <pt x="239" y="238" on="1"/>
        <pt x="239" y="1080" on="1"/>
        <pt x="239" y="1196" on="0"/>
        <pt x="229" y="1228" on="1"/>
        <pt x="225" y="1242" on="0"/>
        <pt x="121" y="1260" on="0"/>
        <pt x="91" y="1260" on="1"/>
        <pt x="85" y="1268" on="0"/>
        <pt x="84" y="1316" on="0"/>
      </contour>
    </TTGlyph>
    <TTGlyph name="Hbar" xMin="84" yMin="-6" xMax="1370" yMax="1324">
      <component glyphName="H" x="0" y="0" flags="0x1004"/>
      <component glyphName="Hbar.ref1" x="0" y="0" flags="0x1004"/>
    </TTGlyph>
    <TTGlyph name="Hbar.ref1" xMin="162" yMin="940" xMax="1288" yMax="1016">
      <contour>
        <pt x="172" y="940" on="1"/>
        <pt x="162" y="940" on="0"/>
        <pt x="162" y="998" on="0"/>
        <pt x="174" y="1016" on="1"/>
        <pt x="1278" y="1016" on="1"/>
        <pt x="1288" y="1016" on="0"/>
        <pt x="1288" y="958" on="0"/>
        <pt x="1276" y="940" on="1"/>
      </contour>
    </TTGlyph>
    <TTGlyph name="Hcircumflex" xMin="84" yMin="-6" xMax="1370" yMax="1719">
      <component glyphName="uni0302.cap" x="1245" y="-2" flags="0x1004"/>
      <component glyphName="H" x="0" y="0" flags="0x1004"/>
    </TTGlyph>
    <TTGlyph name="I" xMin="84" yMin="-6" xMax="568" yMax="1324">
      <contour>
        <pt x="91" y="1324" on="1"/>
        <pt x="296" y="1314" on="0"/>
        <pt x="356" y="1314" on="0"/>
        <pt x="561" y="1324" on="1"/>
        <pt x="568" y="1316" on="0"/>
        <pt x="567" y="1274" on="0"/>
        <pt x="561" y="1266" on="1"/>
        <pt x="531" y="1266" on="0"/>
        <pt x="427" y="1248" on="0"/>
        <pt x="423" y="1234" on="1"/>
        <pt x="413" y="1202" on="0"/>
        <pt x="413" y="1086" on="1"/>
        <pt x="413" y="232" on="1"/>
        <pt x="413" y="116" on="0"/>
        <pt x="423" y="84" on="1"/>
        <pt x="427" y="70" on="0"/>
        <pt x="531" y="52" on="0"/>
        <pt x="561" y="52" on="1"/>
        <pt x="567" y="44" on="0"/>
        <pt x="568" y="2" on="0"/>
        <pt x="561" y="-6" on="1"/>
        <pt x="356" y="4" on="0"/>
        <pt x="296" y="4" on="0"/>
        <pt x="91" y="-6" on="1"/>
        <pt x="84" y="2" on="0"/>
        <pt x="85" y="44" on="0"/>
        <pt x="91" y="52" on="1"/>
        <pt x="121" y="52" on="0"/>
        <pt x="225" y="70" on="0"/>
        <pt x="229" y="84" on="1"/>
        <pt x="239" y="116" on="0"/>
        <pt x="239" y="232" on="1"/>
        <pt x="239" y="1086" on="1"/>
        <pt x="239" y="1202" on="0"/>
        <pt x="229" y="1234" on="1"/>
        <pt x="225" y="1248" on="0"/>
        <pt x="121" y="1266" on="0"/>
        <pt x="91" y="1266" on="1"/>
        <pt x="85" y="1274" on="0"/>
        <pt x="84" y="1316" on="0"/>
      </contour>
    </TTGlyph>
    <TTGlyph name="IJ" xMin="82" yMin="-454" xMax="1073" yMax="1324">
      <component glyphName="I" x="-2" y="0" flags="0x1004"/>
      <component glyphName="J" x="516" y="0" flags="0x1004"/>
    </TTGlyph>
    <TTGlyph name="Iacute" xMin="84" yMin="-6" xMax="601" yMax="1722">
      <component glyphName="acutecomb.cap" x="931" y="0" flags="0x1004"/>
      <component glyphName="I" x="0" y="0" flags="0x1004"/>
    </TTGlyph>
    <TTGlyph name="Ibreve" xMin="84" yMin="-6" xMax="568" yMax="1666">
      <component glyphName="uni0306.cap" x="847" y="-6" flags="0x1004"/>
      <component glyphName="I" x="0" y="0" flags="0x1004"/>
    </TTGlyph>
    <TTGlyph name="Icircumflex" xMin="84" yMin="-6" xMax="571" yMax="1673">
      <component glyphName="uni0302.cap" x="853" y="-48" flags="0x1004"/>
      <component glyphName="I" x="0" y="0" flags="0x1004"/>
    </TTGlyph>
    <TTGlyph name="Idieresis" xMin="56" yMin="-6" xMax="618" yMax="1656">
      <component glyphName="I" x="1" y="0" flags="0x1004"/>
      <component glyphName="uni0308.cap" x="-2" y="32" flags="0x1004"/>
    </TTGlyph>
    <TTGlyph name="Idotaccent" xMin="84" yMin="-6" xMax="568" yMax="1656">
      <component glyphName="uni0307" x="836" y="460" flags="0x1004"/>
      <component glyphName="I" x="0" y="0" flags="0x1004"/>
    </TTGlyph>
    <TTGlyph name="Igrave" xMin="75" yMin="-6" xMax="568" yMax="1722">
      <component glyphName="gravecomb.cap" x="781" y="0" flags="0x1004"/>
      <component glyphName="I" x="0" y="0" flags="0x1004"/>
    </TTGlyph>
    <TTGlyph name="Imacron" xMin="82" yMin="-6" xMax="601" yMax="1596">
      <component glyphName="uni0304.cap" x="854" y="56" flags="0x1004"/>
      <component glyphName="I" x="1" y="0" flags="0x1004"/>
    </TTGlyph>
    <TTGlyph name="Iogonek" xMin="84" yMin="-448" xMax="568" yMax="1324">
      <contour>
        <pt x="92" y="1324" on="1"/>
        <pt x="332" y="1314" on="1"/>
        <pt x="364" y="1314" on="0"/>
        <pt x="564" y="1324" on="1"/>
        <pt x="568" y="1312" on="0"/>
        <pt x="568" y="1266" on="0"/>
        <pt x="560" y="1266" on="1"/>
        <pt x="540" y="1266" on="0"/>
        <pt x="436" y="1238" on="0"/>
        <pt x="432" y="1224" on="1"/>
        <pt x="414" y="1155" on="0"/>
        <pt x="414" y="1038" on="1"/>
        <pt x="414" y="278" on="1"/>
        <pt x="414" y="161" on="0"/>
        <pt x="432" y="92" on="1"/>
        <pt x="436" y="78" on="0"/>
        <pt x="540" y="52" on="0"/>
        <pt x="560" y="52" on="1"/>
        <pt x="568" y="52" on="0"/>
        <pt x="568" y="6" on="0"/>
        <pt x="564" y="-6" on="1"/>
        <pt x="474" y="-1" on="0"/>
        <pt x="458" y="0" on="1"/>
        <pt x="378" y="-48" on="0"/>
        <pt x="244" y="-184" on="0"/>
        <pt x="244" y="-244" on="1"/>
        <pt x="244" y="-275" on="0"/>
        <pt x="281" y="-330" on="0"/>
        <pt x="361" y="-330" on="0"/>
        <pt x="424" y="-306" on="0"/>
        <pt x="458" y="-278" on="0"/>
        <pt x="485" y="-254" on="0"/>
        <pt x="496" y="-254" on="0"/>
        <pt x="496" y="-305" on="0"/>
        <pt x="488" y="-316" on="1"/>
        <pt x="388" y="-448" on="0"/>
        <pt x="278" y="-448" on="1"/>
        <pt x="226" y="-448" on="0"/>
        <pt x="192" y="-420" on="1"/>
        <pt x="136" y="-373" on="0"/>
        <pt x="136" y="-220" on="0"/>
        <pt x="275" y="-57" on="0"/>
        <pt x="368" y="4" on="1"/>
        <pt x="332" y="4" on="1"/>
        <pt x="92" y="-6" on="1"/>
        <pt x="84" y="2" on="0"/>
        <pt x="84" y="52" on="0"/>
        <pt x="92" y="52" on="1"/>
        <pt x="118" y="52" on="0"/>
        <pt x="219" y="76" on="0"/>
        <pt x="226" y="92" on="1"/>
        <pt x="240" y="146" on="0"/>
        <pt x="240" y="270" on="1"/>
        <pt x="240" y="1046" on="1"/>
        <pt x="240" y="1170" on="0"/>
        <pt x="226" y="1224" on="1"/>
        <pt x="219" y="1240" on="0"/>
        <pt x="117" y="1266" on="0"/>
        <pt x="92" y="1266" on="1"/>
        <pt x="84" y="1266" on="0"/>
        <pt x="84" y="1316" on="0"/>
      </contour>
    </TTGlyph>
    <TTGlyph name="Itilde" xMin="65" yMin="-6" xMax="628" yMax="1622">
      <component glyphName="tildecomb.cap" x="839" y="-14" flags="0x1004"/>
      <component glyphName="I" x="-1" y="0" flags="0x1004"/>
    </TTGlyph>
    <TTGlyph name="J" xMin="-208" yMin="-454" xMax="557" yMax="1324">
      <contour>
        <pt x="80" y="1324" on="1"/>
        <pt x="285" y="1314" on="0"/>
        <pt x="345" y="1314" on="0"/>
        <pt x="550" y="1324" on="1"/>
        <pt x="557" y="1316" on="0"/>
        <pt x="556" y="1274" on="0"/>
        <pt x="550" y="1266" on="1"/>
        <pt x="520" y="1266" on="0"/>
        <pt x="416" y="1248" on="0"/>
        <pt x="412" y="1234" on="1"/>
        <pt x="402" y="1202" on="0"/>
        <pt x="402" y="1086" on="1"/>
        <pt x="402" y="242" on="1"/>
        <pt x="402" y="-284" on="0"/>
        <pt x="122" y="-415" on="1"/>
        <pt x="38" y="-454" on="0"/>
        <pt x="-66" y="-454" on="1"/>
        <pt x="-90" y="-454" on="0"/>
        <pt x="-175" y="-431" on="0"/>
        <pt x="-192" y="-418" on="1"/>
        <pt x="-208" y="-402" on="0"/>
        <pt x="-208" y="-323" on="0"/>
        <pt x="-158" y="-260" on="0"/>
        <pt x="-112" y="-260" on="1"/>
        <pt x="-95" y="-260" on="0"/>
        <pt x="-74" y="-272" on="0"/>
        <pt x="-63" y="-278" on="0"/>
        <pt x="-45" y="-292" on="0"/>
        <pt x="-42" y="-295" on="1"/>
        <pt x="-24" y="-310" on="0"/>
        <pt x="-16" y="-318" on="1"/>
        <pt x="30" y="-360" on="0"/>
        <pt x="108" y="-360" on="0"/>
        <pt x="160" y="-309" on="0"/>
        <pt x="182" y="-246" on="1"/>
        <pt x="228" y="-116" on="0"/>
        <pt x="228" y="232" on="1"/>
        <pt x="228" y="1086" on="1"/>
        <pt x="228" y="1202" on="0"/>
        <pt x="218" y="1234" on="1"/>
        <pt x="214" y="1248" on="0"/>
        <pt x="110" y="1266" on="0"/>
        <pt x="80" y="1266" on="1"/>
        <pt x="74" y="1274" on="0"/>
        <pt x="73" y="1316" on="0"/>
      </contour>
    </TTGlyph>
    <TTGlyph name="Jcircumflex" xMin="-208" yMin="-454" xMax="557" yMax="1719">
      <component glyphName="uni0302.cap" x="836" y="-2" flags="0x1004"/>
      <component glyphName="J" x="0" y="0" flags="0x1004"/>
    </TTGlyph>
    <TTGlyph name="K" xMin="84" yMin="-6" xMax="1325" yMax="1324">
      <contour>
        <pt x="1039" y="1312" on="1"/>
        <pt x="1255" y="1324" on="1"/>
        <pt x="1259" y="1315" on="0"/>
        <pt x="1258" y="1262" on="0"/>
        <pt x="1251" y="1262" on="1"/>
        <pt x="1174" y="1257" on="0"/>
        <pt x="1143" y="1245" on="1"/>
        <pt x="1081" y="1219" on="0"/>
        <pt x="992" y="1122" on="0"/>
        <pt x="866" y="993" on="0"/>
        <pt x="826" y="954" on="1"/>
        <pt x="762" y="892" on="0"/>
        <pt x="590" y="728" on="1"/>
        <pt x="585" y="720" on="0"/>
        <pt x="603" y="697" on="0"/>
        <pt x="689" y="596" on="0"/>
        <pt x="717" y="564" on="0"/>
        <pt x="794" y="475" on="0"/>
        <pt x="826" y="438" on="0"/>
        <pt x="894" y="361" on="0"/>
        <pt x="931" y="321" on="0"/>
        <pt x="989" y="258" on="0"/>
        <pt x="1010" y="236" on="1"/>
        <pt x="1063" y="183" on="0"/>
        <pt x="1104" y="143" on="1"/>
        <pt x="1190" y="62" on="0"/>
        <pt x="1321" y="52" on="1"/>
        <pt x="1327" y="41" on="0"/>
        <pt x="1322" y="0" on="0"/>
        <pt x="1319" y="-6" on="1"/>
        <pt x="1098" y="-6" on="0"/>
        <pt x="957" y="44" on="0"/>
        <pt x="844" y="156" on="0"/>
        <pt x="449" y="608" on="1"/>
        <pt x="445" y="614" on="0"/>
        <pt x="421" y="614" on="0"/>
        <pt x="413" y="610" on="1"/>
        <pt x="413" y="238" on="1"/>
        <pt x="413" y="122" on="0"/>
        <pt x="423" y="90" on="1"/>
        <pt x="427" y="76" on="0"/>
        <pt x="531" y="58" on="0"/>
        <pt x="561" y="58" on="1"/>
        <pt x="567" y="50" on="0"/>
        <pt x="568" y="2" on="0"/>
        <pt x="561" y="-6" on="1"/>
        <pt x="356" y="4" on="0"/>
        <pt x="296" y="4" on="0"/>
        <pt x="91" y="-6" on="1"/>
        <pt x="84" y="2" on="0"/>
        <pt x="85" y="50" on="0"/>
        <pt x="91" y="58" on="1"/>
        <pt x="121" y="58" on="0"/>
        <pt x="225" y="76" on="0"/>
        <pt x="229" y="90" on="1"/>
        <pt x="239" y="122" on="0"/>
        <pt x="239" y="238" on="1"/>
        <pt x="239" y="1080" on="1"/>
        <pt x="239" y="1196" on="0"/>
        <pt x="229" y="1228" on="1"/>
        <pt x="225" y="1242" on="0"/>
        <pt x="121" y="1260" on="0"/>
        <pt x="91" y="1260" on="1"/>
        <pt x="85" y="1268" on="0"/>
        <pt x="84" y="1316" on="0"/>
        <pt x="91" y="1324" on="1"/>
        <pt x="296" y="1314" on="0"/>
        <pt x="356" y="1314" on="0"/>
        <pt x="561" y="1324" on="1"/>
        <pt x="568" y="1316" on="0"/>
        <pt x="567" y="1268" on="0"/>
        <pt x="561" y="1260" on="1"/>
        <pt x="531" y="1260" on="0"/>
        <pt x="427" y="1242" on="0"/>
        <pt x="423" y="1228" on="1"/>
        <pt x="411" y="1190" on="0"/>
        <pt x="413" y="1080" on="1"/>
        <pt x="413" y="682" on="1"/>
        <pt x="465" y="714" on="0"/>
        <pt x="755" y="999" on="0"/>
        <pt x="801" y="1048" on="1"/>
        <pt x="921" y="1176" on="0"/>
        <pt x="921" y="1262" on="0"/>
        <pt x="830" y="1262" on="1"/>
        <pt x="820" y="1262" on="0"/>
        <pt x="809" y="1262" on="1"/>
        <pt x="804" y="1271" on="0"/>
        <pt x="804" y="1310" on="0"/>
        <pt x="809" y="1324" on="1"/>
      </contour>
    </TTGlyph>
    <TTGlyph name="Kcommaaccent" xMin="84" yMin="-458" xMax="1325" yMax="1324">
      <component glyphName="uni0326" x="1221" y="0" flags="0x1004"/>
      <component glyphName="K" x="0" y="0" flags="0x1004"/>
    </TTGlyph>
    <TTGlyph name="L" xMin="84" yMin="-8" xMax="1119" yMax="1324">
      <contour>
        <pt x="329" y="0" on="1"/>
        <pt x="91" y="-6" on="1"/>
        <pt x="84" y="2" on="0"/>
        <pt x="85" y="44" on="0"/>
        <pt x="91" y="52" on="1"/>
        <pt x="121" y="52" on="0"/>
        <pt x="225" y="70" on="0"/>
        <pt x="229" y="84" on="1"/>
        <pt x="239" y="116" on="0"/>
        <pt x="239" y="232" on="1"/>
        <pt x="239" y="1086" on="1"/>
        <pt x="239" y="1202" on="0"/>
        <pt x="229" y="1234" on="1"/>
        <pt x="225" y="1248" on="0"/>
        <pt x="121" y="1266" on="0"/>
        <pt x="91" y="1266" on="1"/>
        <pt x="85" y="1274" on="0"/>
        <pt x="84" y="1316" on="0"/>
        <pt x="91" y="1324" on="1"/>
        <pt x="296" y="1314" on="0"/>
        <pt x="356" y="1314" on="0"/>
        <pt x="561" y="1324" on="1"/>
        <pt x="568" y="1316" on="0"/>
        <pt x="567" y="1274" on="0"/>
        <pt x="561" y="1266" on="1"/>
        <pt x="531" y="1266" on="0"/>
        <pt x="427" y="1248" on="0"/>
        <pt x="423" y="1234" on="1"/>
        <pt x="411" y="1196" on="0"/>
        <pt x="413" y="1086" on="1"/>
        <pt x="413" y="232" on="1"/>
        <pt x="413" y="98" on="0"/>
        <pt x="443" y="74" on="0"/>
        <pt x="496" y="68" on="0"/>
        <pt x="567" y="68" on="1"/>
        <pt x="681" y="68" on="1"/>
        <pt x="837" y="68" on="0"/>
        <pt x="997" y="178" on="0"/>
        <pt x="1041" y="324" on="1"/>
        <pt x="1044" y="336" on="0"/>
        <pt x="1107" y="336" on="0"/>
        <pt x="1119" y="324" on="1"/>
        <pt x="1110" y="298" on="0"/>
        <pt x="1068" y="184" on="0"/>
        <pt x="1056" y="148" on="1"/>
        <pt x="1020" y="48" on="0"/>
        <pt x="1011" y="-8" on="1"/>
      </contour>
    </TTGlyph>
    <TTGlyph name="Lacute" xMin="84" yMin="-8" xMax="1119" yMax="1722">
      <component glyphName="acutecomb.cap" x="969" y="0" flags="0x1004"/>
      <component glyphName="L" x="0" y="0" flags="0x1004"/>
    </TTGlyph>
    <TTGlyph name="Lcaron" xMin="84" yMin="-8" xMax="1119" yMax="1334">
      <component glyphName="uni0315" x="1468" y="-14" flags="0x1004"/>
      <component glyphName="L" x="0" y="0" flags="0x1004"/>
    </TTGlyph>
    <TTGlyph name="Lcommaaccent" xMin="84" yMin="-458" xMax="1119" yMax="1324">
      <component glyphName="uni0326" x="1147" y="0" flags="0x1004"/>
      <component glyphName="L" x="0" y="0" flags="0x1004"/>
    </TTGlyph>
    <TTGlyph name="Ldot" xMin="84" yMin="-8" xMax="1119" yMax="1324">
      <component glyphName="uni0307" x="1405" y="-468" flags="0x1004"/>
      <component glyphName="L" x="0" y="0" flags="0x1004"/>
    </TTGlyph>
    <TTGlyph name="Lslash" xMin="67" yMin="-8" xMax="1119" yMax="1324">
      <component glyphName="L" x="0" y="0" flags="0x1004"/>
      <component glyphName="Lslash.ref1" x="0" y="0" flags="0x1004"/>
    </TTGlyph>
    <TTGlyph name="Lslash.ref1" xMin="67" yMin="356" xMax="803" yMax="894">
      <contour>
        <pt x="767" y="894" on="1"/>
        <pt x="777" y="884" on="0"/>
        <pt x="808" y="836" on="0"/>
        <pt x="803" y="832" on="1"/>
        <pt x="101" y="356" on="1"/>
        <pt x="89" y="368" on="0"/>
        <pt x="62" y="410" on="0"/>
        <pt x="67" y="414" on="1"/>
      </contour>
    </TTGlyph>
    <TTGlyph name="M" xMin="48" yMin="-6" xMax="1750" yMax="1324">
      <contour>
        <pt x="119" y="1324" on="1"/>
        <pt x="294" y="1314" on="0"/>
        <pt x="377" y="1314" on="0"/>
        <pt x="487" y="1324" on="1"/>
        <pt x="507" y="1260" on="0"/>
        <pt x="855" y="433" on="0"/>
        <pt x="911" y="292" on="1"/>
        <pt x="913" y="288" on="0"/>
        <pt x="926" y="288" on="0"/>
        <pt x="929" y="296" on="1"/>
        <pt x="1221" y="1049" on="0"/>
        <pt x="1235" y="1084" on="1"/>
        <pt x="1323" y="1324" on="1"/>
        <pt x="1451" y="1316" on="0"/>
        <pt x="1605" y="1316" on="0"/>
        <pt x="1705" y="1324" on="1"/>
        <pt x="1711" y="1266" on="1"/>
        <pt x="1683" y="1266" on="0"/>
        <pt x="1576" y="1243" on="0"/>
        <pt x="1569" y="1230" on="1"/>
        <pt x="1559" y="1208" on="0"/>
        <pt x="1561" y="1093" on="0"/>
        <pt x="1568" y="784" on="0"/>
        <pt x="1577" y="369" on="0"/>
        <pt x="1583" y="140" on="0"/>
        <pt x="1603" y="86" on="1"/>
        <pt x="1609" y="68" on="0"/>
        <pt x="1712" y="52" on="0"/>
        <pt x="1743" y="52" on="1"/>
        <pt x="1750" y="40" on="0"/>
        <pt x="1750" y="2" on="0"/>
        <pt x="1747" y="-6" on="1"/>
        <pt x="1547" y="4" on="0"/>
        <pt x="1509" y="4" on="1"/>
        <pt x="1269" y="-6" on="1"/>
        <pt x="1265" y="-2" on="0"/>
        <pt x="1264" y="39" on="0"/>
        <pt x="1269" y="52" on="1"/>
        <pt x="1293" y="52" on="0"/>
        <pt x="1383" y="65" on="0"/>
        <pt x="1417" y="84" on="0"/>
        <pt x="1417" y="158" on="1"/>
        <pt x="1413" y="274" on="1"/>
        <pt x="1396" y="890" on="0"/>
        <pt x="1387" y="1130" on="1"/>
        <pt x="1387" y="1170" on="0"/>
        <pt x="1369" y="1170" on="1"/>
        <pt x="1365" y="1170" on="0"/>
        <pt x="1313" y="1042" on="0"/>
        <pt x="937" y="98" on="1"/>
        <pt x="927" y="76" on="0"/>
        <pt x="875" y="-1" on="0"/>
        <pt x="861" y="-4" on="1"/>
        <pt x="858" y="-5" on="0"/>
        <pt x="843" y="0" on="1"/>
        <pt x="355" y="1168" on="1"/>
        <pt x="329" y="150" on="1"/>
        <pt x="329" y="109" on="0"/>
        <pt x="345" y="69" on="0"/>
        <pt x="461" y="52" on="0"/>
        <pt x="495" y="52" on="1"/>
        <pt x="502" y="44" on="0"/>
        <pt x="502" y="2" on="0"/>
        <pt x="499" y="-6" on="1"/>
        <pt x="287" y="4" on="1"/>
        <pt x="53" y="-6" on="1"/>
        <pt x="49" y="-2" on="0"/>
        <pt x="48" y="39" on="0"/>
        <pt x="53" y="52" on="1"/>
        <pt x="86" y="52" on="0"/>
        <pt x="203" y="71" on="0"/>
        <pt x="236" y="118" on="0"/>
        <pt x="239" y="188" on="1"/>
        <pt x="267" y="935" on="0"/>
        <pt x="267" y="1202" on="0"/>
        <pt x="254" y="1240" on="0"/>
        <pt x="145" y="1266" on="0"/>
        <pt x="119" y="1266" on="1"/>
        <pt x="116" y="1266" on="0"/>
        <pt x="116" y="1321" on="0"/>
      </contour>
    </TTGlyph>
    <TTGlyph name="N" xMin="82" yMin="-10" xMax="1490" yMax="1330">
      <contour>
        <pt x="82" y="1330" on="1"/>
        <pt x="286" y="1320" on="1"/>
        <pt x="382" y="1320" on="0"/>
        <pt x="438" y="1324" on="1"/>
        <pt x="488" y="1246" on="0"/>
        <pt x="1108" y="491" on="0"/>
        <pt x="1222" y="332" on="1"/>
        <pt x="1222" y="1090" on="1"/>
        <pt x="1222" y="1152" on="0"/>
        <pt x="1216" y="1206" on="0"/>
        <pt x="1194" y="1242" on="0"/>
        <pt x="1079" y="1268" on="0"/>
        <pt x="1050" y="1268" on="1"/>
        <pt x="1043" y="1278" on="0"/>
        <pt x="1042" y="1318" on="0"/>
        <pt x="1046" y="1326" on="1"/>
        <pt x="1246" y="1316" on="0"/>
        <pt x="1276" y="1316" on="1"/>
        <pt x="1490" y="1326" on="1"/>
        <pt x="1505" y="1301" on="0"/>
        <pt x="1490" y="1268" on="1"/>
        <pt x="1462" y="1268" on="0"/>
        <pt x="1343" y="1244" on="0"/>
        <pt x="1332" y="1226" on="1"/>
        <pt x="1314" y="1195" on="0"/>
        <pt x="1314" y="1092" on="1"/>
        <pt x="1314" y="278" on="1"/>
        <pt x="1314" y="106" on="0"/>
        <pt x="1318" y="2" on="1"/>
        <pt x="1316" y="-10" on="0"/>
        <pt x="1298" y="-10" on="1"/>
        <pt x="1256" y="-10" on="0"/>
        <pt x="1222" y="36" on="1"/>
        <pt x="350" y="1138" on="1"/>
        <pt x="350" y="230" on="1"/>
        <pt x="350" y="168" on="0"/>
        <pt x="356" y="114" on="0"/>
        <pt x="378" y="78" on="0"/>
        <pt x="491" y="52" on="0"/>
        <pt x="520" y="52" on="1"/>
        <pt x="527" y="42" on="0"/>
        <pt x="528" y="2" on="0"/>
        <pt x="524" y="-6" on="1"/>
        <pt x="324" y="4" on="0"/>
        <pt x="296" y="4" on="1"/>
        <pt x="82" y="-6" on="1"/>
        <pt x="67" y="19" on="0"/>
        <pt x="82" y="52" on="1"/>
        <pt x="110" y="52" on="0"/>
        <pt x="229" y="76" on="0"/>
        <pt x="240" y="94" on="1"/>
        <pt x="258" y="125" on="0"/>
        <pt x="258" y="228" on="1"/>
        <pt x="258" y="1096" on="1"/>
        <pt x="258" y="1200" on="0"/>
        <pt x="238" y="1232" on="1"/>
        <pt x="229" y="1248" on="0"/>
        <pt x="110" y="1272" on="0"/>
        <pt x="82" y="1272" on="1"/>
        <pt x="67" y="1305" on="0"/>
      </contour>
    </TTGlyph>
    <TTGlyph name="Nacute" xMin="82" yMin="-10" xMax="1490" yMax="1722">
      <component glyphName="acutecomb.cap" x="1316" y="0" flags="0x1004"/>
      <component glyphName="N" x="0" y="0" flags="0x1004"/>
    </TTGlyph>
    <TTGlyph name="Ncaron" xMin="82" yMin="-10" xMax="1490" yMax="1719">
      <component glyphName="N" x="0" y="0" flags="0x1004"/>
      <component glyphName="uni030C.cap" x="482" y="0" flags="0x1004"/>
    </TTGlyph>
    <TTGlyph name="Ncommaaccent" xMin="82" yMin="-458" xMax="1490" yMax="1330">
      <component glyphName="uni0326" x="1284" y="0" flags="0x1004"/>
      <component glyphName="N" x="0" y="0" flags="0x1004"/>
    </TTGlyph>
    <TTGlyph name="Ntilde" xMin="82" yMin="-10" xMax="1490" yMax="1622">
      <component glyphName="tildecomb.cap" x="1234" y="-14" flags="0x1004"/>
      <component glyphName="N" x="0" y="0" flags="0x1004"/>
    </TTGlyph>
    <TTGlyph name="O" xMin="98" yMin="-20" xMax="1398" yMax="1334">
      <contour>
        <pt x="1015" y="1151" on="0"/>
        <pt x="828" y="1266" on="0"/>
        <pt x="629" y="1266" on="0"/>
        <pt x="486" y="1199" on="0"/>
        <pt x="391" y="1089" on="0"/>
        <pt x="358" y="1015" on="1"/>
        <pt x="296" y="876" on="0"/>
        <pt x="296" y="582" on="0"/>
        <pt x="361" y="352" on="0"/>
        <pt x="479" y="164" on="0"/>
        <pt x="666" y="48" on="0"/>
        <pt x="865" y="48" on="0"/>
        <pt x="1009" y="115" on="0"/>
        <pt x="1104" y="226" on="0"/>
        <pt x="1138" y="300" on="1"/>
        <pt x="1200" y="439" on="0"/>
        <pt x="1200" y="736" on="0"/>
        <pt x="1134" y="965" on="0"/>
      </contour>
      <contour>
        <pt x="377" y="1226" on="0"/>
        <pt x="616" y="1334" on="0"/>
        <pt x="877" y="1334" on="0"/>
        <pt x="1115" y="1233" on="0"/>
        <pt x="1293" y="1057" on="0"/>
        <pt x="1398" y="802" on="0"/>
        <pt x="1398" y="519" on="0"/>
        <pt x="1293" y="268" on="0"/>
        <pt x="1116" y="87" on="0"/>
        <pt x="876" y="-20" on="0"/>
        <pt x="615" y="-20" on="0"/>
        <pt x="378" y="81" on="0"/>
        <pt x="202" y="257" on="0"/>
        <pt x="98" y="511" on="0"/>
        <pt x="98" y="794" on="0"/>
        <pt x="202" y="1045" on="0"/>
      </contour>
    </TTGlyph>
    <TTGlyph name="OE" xMin="98" yMin="-14" xMax="1978" yMax="1334">
      <contour>
        <pt x="1870" y="-8" on="1"/>
        <pt x="1188" y="0" on="1"/>
        <pt x="1039" y="0" on="0"/>
        <pt x="832" y="-14" on="0"/>
        <pt x="726" y="-14" on="1"/>
        <pt x="553" y="-14" on="0"/>
        <pt x="264" y="164" on="0"/>
        <pt x="98" y="472" on="0"/>
        <pt x="98" y="793" on="0"/>
        <pt x="203" y="1045" on="0"/>
        <pt x="377" y="1226" on="0"/>
        <pt x="611" y="1334" on="0"/>
        <pt x="736" y="1334" on="1"/>
        <pt x="747" y="1334" on="0"/>
        <pt x="1110" y="1313" on="0"/>
        <pt x="1186" y="1314" on="1"/>
        <pt x="1830" y="1328" on="1"/>
        <pt x="1838" y="1270" on="0"/>
        <pt x="1883" y="1080" on="0"/>
        <pt x="1888" y="1056" on="1"/>
        <pt x="1878" y="1046" on="0"/>
        <pt x="1827" y="1046" on="0"/>
        <pt x="1824" y="1060" on="1"/>
        <pt x="1793" y="1171" on="0"/>
        <pt x="1682" y="1248" on="0"/>
        <pt x="1592" y="1248" on="1"/>
        <pt x="1420" y="1248" on="1"/>
        <pt x="1289" y="1248" on="0"/>
        <pt x="1282" y="1226" on="1"/>
        <pt x="1270" y="1188" on="0"/>
        <pt x="1272" y="1084" on="1"/>
        <pt x="1272" y="710" on="1"/>
        <pt x="1270" y="698" on="0"/>
        <pt x="1358" y="698" on="1"/>
        <pt x="1464" y="698" on="1"/>
        <pt x="1602" y="698" on="0"/>
        <pt x="1630" y="718" on="1"/>
        <pt x="1656" y="737" on="0"/>
        <pt x="1672" y="795" on="0"/>
        <pt x="1682" y="836" on="0"/>
        <pt x="1684" y="842" on="1"/>
        <pt x="1687" y="856" on="0"/>
        <pt x="1738" y="856" on="0"/>
        <pt x="1748" y="846" on="1"/>
        <pt x="1748" y="468" on="1"/>
        <pt x="1740" y="460" on="0"/>
        <pt x="1690" y="460" on="0"/>
        <pt x="1684" y="476" on="1"/>
        <pt x="1663" y="555" on="0"/>
        <pt x="1643" y="598" on="0"/>
        <pt x="1603" y="624" on="0"/>
        <pt x="1500" y="624" on="1"/>
        <pt x="1385" y="624" on="1"/>
        <pt x="1272" y="624" on="0"/>
        <pt x="1272" y="606" on="1"/>
        <pt x="1272" y="226" on="1"/>
        <pt x="1268" y="102" on="0"/>
        <pt x="1302" y="74" on="0"/>
        <pt x="1355" y="68" on="0"/>
        <pt x="1426" y="68" on="1"/>
        <pt x="1522" y="68" on="1"/>
        <pt x="1772" y="68" on="0"/>
        <pt x="1843" y="194" on="1"/>
        <pt x="1869" y="241" on="0"/>
        <pt x="1900" y="324" on="1"/>
        <pt x="1903" y="336" on="0"/>
        <pt x="1966" y="336" on="0"/>
        <pt x="1978" y="324" on="1"/>
        <pt x="1969" y="298" on="0"/>
        <pt x="1927" y="184" on="0"/>
        <pt x="1914" y="148" on="1"/>
        <pt x="1879" y="48" on="0"/>
      </contour>
      <contour>
        <pt x="982" y="1234" on="0"/>
        <pt x="834" y="1266" on="0"/>
        <pt x="630" y="1266" on="0"/>
        <pt x="489" y="1200" on="0"/>
        <pt x="393" y="1089" on="0"/>
        <pt x="360" y="1015" on="1"/>
        <pt x="296" y="871" on="0"/>
        <pt x="296" y="582" on="0"/>
        <pt x="360" y="352" on="0"/>
        <pt x="478" y="164" on="0"/>
        <pt x="664" y="48" on="0"/>
        <pt x="879" y="48" on="0"/>
        <pt x="1019" y="79" on="0"/>
        <pt x="1073" y="160" on="0"/>
        <pt x="1084" y="202" on="1"/>
        <pt x="1098" y="254" on="0"/>
        <pt x="1098" y="374" on="1"/>
        <pt x="1098" y="990" on="1"/>
        <pt x="1098" y="1111" on="0"/>
        <pt x="1028" y="1186" on="1"/>
      </contour>
    </TTGlyph>
    <TTGlyph name="Oacute" xMin="98" yMin="-20" xMax="1398" yMax="1722">
      <component glyphName="acutecomb.cap" x="1324" y="0" flags="0x1004"/>
      <component glyphName="O" x="0" y="0" flags="0x1004"/>
    </TTGlyph>
    <TTGlyph name="Obreve" xMin="98" yMin="-20" xMax="1398" yMax="1666">
      <component glyphName="uni0306.cap" x="1256" y="-6" flags="0x1004"/>
      <component glyphName="O" x="0" y="0" flags="0x1004"/>
    </TTGlyph>
    <TTGlyph name="Ocircumflex" xMin="98" yMin="-20" xMax="1398" yMax="1719">
      <component glyphName="uni0302.cap" x="1262" y="-2" flags="0x1004"/>
      <component glyphName="O" x="0" y="0" flags="0x1004"/>
    </TTGlyph>
    <TTGlyph name="Odieresis" xMin="98" yMin="-20" xMax="1398" yMax="1656">
      <component glyphName="O" x="0" y="0" flags="0x1004"/>
      <component glyphName="uni0308.cap" x="410" y="32" flags="0x1004"/>
    </TTGlyph>
    <TTGlyph name="Ograve" xMin="98" yMin="-20" xMax="1398" yMax="1722">
      <component glyphName="gravecomb.cap" x="1172" y="0" flags="0x1004"/>
      <component glyphName="O" x="0" y="0" flags="0x1004"/>
    </TTGlyph>
    <TTGlyph name="Ohungarumlaut" xMin="98" yMin="-20" xMax="1398" yMax="1732">
      <component glyphName="acutecomb.cap" x="1242" y="10" flags="0x1004"/>
      <component glyphName="acutecomb.cap" x="1546" y="10" flags="0x1004"/>
      <component glyphName="O" x="0" y="0" flags="0x1004"/>
    </TTGlyph>
    <TTGlyph name="Omacron" xMin="98" yMin="-20" xMax="1398" yMax="1596">
      <component glyphName="uni0304.cap" x="1262" y="56" flags="0x1004"/>
      <component glyphName="O" x="0" y="0" flags="0x1004"/>
    </TTGlyph>
    <TTGlyph name="Oslash" xMin="98" yMin="-26" xMax="1398" yMax="1334">
      <component glyphName="O" x="0" y="0" flags="0x1004"/>
      <component glyphName="Oslash.ref1" x="0" y="0" flags="0x1004"/>
    </TTGlyph>
    <TTGlyph name="Oslash.ref1" xMin="294" yMin="-26" xMax="1188" yMax="1334">
      <contour>
        <pt x="1130" y="1334" on="1"/>
        <pt x="1146" y="1330" on="0"/>
        <pt x="1193" y="1298" on="0"/>
        <pt x="1188" y="1290" on="1"/>
        <pt x="352" y="-26" on="1"/>
        <pt x="335" y="-20" on="0"/>
        <pt x="289" y="12" on="0"/>
        <pt x="294" y="20" on="1"/>
      </contour>
    </TTGlyph>
    <TTGlyph name="Otilde" xMin="98" yMin="-20" xMax="1398" yMax="1620">
      <component glyphName="tildecomb.cap" x="1256" y="-16" flags="0x1004"/>
      <component glyphName="O" x="0" y="0" flags="0x1004"/>
    </TTGlyph>
    <TTGlyph name="P" xMin="83" yMin="-6" xMax="1036" yMax="1324">
      <contour>
        <pt x="326" y="1314" on="1"/>
        <pt x="610" y="1318" on="1"/>
        <pt x="849" y="1318" on="0"/>
        <pt x="973" y="1153" on="1"/>
        <pt x="1036" y="1069" on="0"/>
        <pt x="1036" y="958" on="1"/>
        <pt x="1036" y="776" on="0"/>
        <pt x="793" y="556" on="0"/>
        <pt x="596" y="556" on="1"/>
        <pt x="542" y="556" on="0"/>
        <pt x="510" y="572" on="1"/>
        <pt x="482" y="591" on="0"/>
        <pt x="482" y="616" on="1"/>
        <pt x="482" y="628" on="0"/>
        <pt x="492" y="626" on="1"/>
        <pt x="543" y="612" on="0"/>
        <pt x="568" y="612" on="1"/>
        <pt x="692" y="612" on="0"/>
        <pt x="852" y="778" on="0"/>
        <pt x="852" y="1077" on="0"/>
        <pt x="684" y="1254" on="0"/>
        <pt x="522" y="1254" on="1"/>
        <pt x="431" y="1254" on="0"/>
        <pt x="412" y="1210" on="0"/>
        <pt x="412" y="1084" on="1"/>
        <pt x="412" y="232" on="1"/>
        <pt x="412" y="116" on="0"/>
        <pt x="422" y="84" on="1"/>
        <pt x="426" y="70" on="0"/>
        <pt x="530" y="52" on="0"/>
        <pt x="560" y="52" on="1"/>
        <pt x="566" y="44" on="0"/>
        <pt x="567" y="2" on="0"/>
        <pt x="560" y="-6" on="1"/>
        <pt x="355" y="4" on="0"/>
        <pt x="295" y="4" on="0"/>
        <pt x="90" y="-6" on="1"/>
        <pt x="83" y="2" on="0"/>
        <pt x="84" y="44" on="0"/>
        <pt x="90" y="52" on="1"/>
        <pt x="120" y="52" on="0"/>
        <pt x="224" y="70" on="0"/>
        <pt x="228" y="84" on="1"/>
        <pt x="238" y="116" on="0"/>
        <pt x="238" y="232" on="1"/>
        <pt x="238" y="1086" on="1"/>
        <pt x="238" y="1202" on="0"/>
        <pt x="228" y="1234" on="1"/>
        <pt x="224" y="1248" on="0"/>
        <pt x="120" y="1266" on="0"/>
        <pt x="90" y="1266" on="1"/>
        <pt x="84" y="1274" on="0"/>
        <pt x="83" y="1316" on="0"/>
        <pt x="90" y="1324" on="1"/>
        <pt x="295" y="1314" on="0"/>
      </contour>
    </TTGlyph>
    <TTGlyph name="Q" xMin="98" yMin="-272" xMax="1550" yMax="1334">
      <contour>
        <pt x="1015" y="1151" on="0"/>
        <pt x="828" y="1266" on="0"/>
        <pt x="629" y="1266" on="0"/>
        <pt x="486" y="1199" on="0"/>
        <pt x="391" y="1089" on="0"/>
        <pt x="358" y="1015" on="1"/>
        <pt x="296" y="876" on="0"/>
        <pt x="296" y="582" on="0"/>
        <pt x="361" y="352" on="0"/>
        <pt x="479" y="164" on="0"/>
        <pt x="666" y="48" on="0"/>
        <pt x="865" y="48" on="0"/>
        <pt x="1009" y="115" on="0"/>
        <pt x="1104" y="226" on="0"/>
        <pt x="1138" y="300" on="1"/>
        <pt x="1200" y="439" on="0"/>
        <pt x="1200" y="736" on="0"/>
        <pt x="1134" y="965" on="0"/>
      </contour>
      <contour>
        <pt x="377" y="1226" on="0"/>
        <pt x="616" y="1334" on="0"/>
        <pt x="877" y="1334" on="0"/>
        <pt x="1115" y="1233" on="0"/>
        <pt x="1293" y="1057" on="0"/>
        <pt x="1398" y="802" on="0"/>
        <pt x="1398" y="656" on="1"/>
        <pt x="1398" y="430" on="0"/>
        <pt x="1135" y="72" on="0"/>
        <pt x="932" y="8" on="1"/>
        <pt x="987" y="-18" on="0"/>
        <pt x="1114" y="-94" on="0"/>
        <pt x="1148" y="-113" on="1"/>
        <pt x="1236" y="-162" on="0"/>
        <pt x="1470" y="-162" on="0"/>
        <pt x="1512" y="-150" on="1"/>
        <pt x="1539" y="-150" on="0"/>
        <pt x="1550" y="-168" on="0"/>
        <pt x="1550" y="-170" on="1"/>
        <pt x="1454" y="-221" on="0"/>
        <pt x="1302" y="-272" on="0"/>
        <pt x="1158" y="-272" on="0"/>
        <pt x="1035" y="-229" on="0"/>
        <pt x="919" y="-161" on="0"/>
        <pt x="861" y="-125" on="1"/>
        <pt x="710" y="-32" on="0"/>
        <pt x="586" y="0" on="1"/>
        <pt x="372" y="54" on="0"/>
        <pt x="98" y="411" on="0"/>
        <pt x="98" y="656" on="1"/>
        <pt x="98" y="794" on="0"/>
        <pt x="202" y="1045" on="0"/>
      </contour>
    </TTGlyph>
    <TTGlyph name="R" xMin="83" yMin="-6" xMax="1297" yMax="1324">
      <contour>
        <pt x="326" y="1314" on="1"/>
        <pt x="610" y="1318" on="1"/>
        <pt x="756" y="1318" on="0"/>
        <pt x="882" y="1231" on="1"/>
        <pt x="942" y="1189" on="0"/>
        <pt x="1017" y="1054" on="0"/>
        <pt x="1017" y="869" on="0"/>
        <pt x="850" y="678" on="0"/>
        <pt x="744" y="642" on="1"/>
        <pt x="873" y="427" on="0"/>
        <pt x="1067" y="172" on="1"/>
        <pt x="1112" y="113" on="0"/>
        <pt x="1213" y="58" on="0"/>
        <pt x="1293" y="52" on="1"/>
        <pt x="1299" y="41" on="0"/>
        <pt x="1294" y="0" on="0"/>
        <pt x="1291" y="-6" on="1"/>
        <pt x="1096" y="-6" on="0"/>
        <pt x="963" y="41" on="0"/>
        <pt x="912" y="87" on="0"/>
        <pt x="891" y="114" on="1"/>
        <pt x="808" y="224" on="0"/>
        <pt x="579" y="580" on="1"/>
        <pt x="563" y="604" on="0"/>
        <pt x="519" y="604" on="1"/>
        <pt x="413" y="604" on="1"/>
        <pt x="413" y="232" on="1"/>
        <pt x="413" y="116" on="0"/>
        <pt x="423" y="84" on="1"/>
        <pt x="427" y="70" on="0"/>
        <pt x="531" y="52" on="0"/>
        <pt x="561" y="52" on="1"/>
        <pt x="567" y="44" on="0"/>
        <pt x="568" y="2" on="0"/>
        <pt x="561" y="-6" on="1"/>
        <pt x="356" y="4" on="0"/>
        <pt x="296" y="4" on="0"/>
        <pt x="91" y="-6" on="1"/>
        <pt x="84" y="2" on="0"/>
        <pt x="85" y="44" on="0"/>
        <pt x="91" y="52" on="1"/>
        <pt x="121" y="52" on="0"/>
        <pt x="225" y="70" on="0"/>
        <pt x="229" y="84" on="1"/>
        <pt x="237" y="109" on="0"/>
        <pt x="239" y="232" on="1"/>
        <pt x="238" y="1086" on="1"/>
        <pt x="238" y="1202" on="0"/>
        <pt x="228" y="1234" on="1"/>
        <pt x="224" y="1248" on="0"/>
        <pt x="120" y="1266" on="0"/>
        <pt x="90" y="1266" on="1"/>
        <pt x="84" y="1274" on="0"/>
        <pt x="83" y="1316" on="0"/>
        <pt x="90" y="1324" on="1"/>
        <pt x="295" y="1314" on="0"/>
      </contour>
      <contour>
        <pt x="643" y="666" on="0"/>
        <pt x="830" y="827" on="0"/>
        <pt x="830" y="1093" on="0"/>
        <pt x="681" y="1254" on="0"/>
        <pt x="522" y="1254" on="1"/>
        <pt x="431" y="1254" on="0"/>
        <pt x="412" y="1210" on="0"/>
        <pt x="412" y="1084" on="1"/>
        <pt x="413" y="666" on="1"/>
        <pt x="520" y="666" on="1"/>
      </contour>
    </TTGlyph>
    <TTGlyph name="Racute" xMin="83" yMin="-6" xMax="1297" yMax="1722">
      <component glyphName="acutecomb.cap" x="1179" y="0" flags="0x1004"/>
      <component glyphName="R" x="0" y="0" flags="0x1004"/>
    </TTGlyph>
    <TTGlyph name="Rcaron" xMin="83" yMin="-6" xMax="1297" yMax="1719">
      <component glyphName="uni030C.cap" x="349" y="0" flags="0x1004"/>
      <component glyphName="R" x="0" y="0" flags="0x1004"/>
    </TTGlyph>
    <TTGlyph name="Rcommaaccent" xMin="83" yMin="-458" xMax="1297" yMax="1324">
      <component glyphName="uni0326" x="1239" y="0" flags="0x1004"/>
      <component glyphName="R" x="0" y="0" flags="0x1004"/>
    </TTGlyph>
    <TTGlyph name="S" xMin="98" yMin="-20" xMax="918" yMax="1332">
      <contour>
        <pt x="605" y="1332" on="0"/>
        <pt x="693" y="1309" on="0"/>
        <pt x="787" y="1284" on="0"/>
        <pt x="824" y="1276" on="1"/>
        <pt x="837" y="1189" on="0"/>
        <pt x="852" y="992" on="1"/>
        <pt x="853" y="983" on="0"/>
        <pt x="823" y="970" on="0"/>
        <pt x="796" y="970" on="0"/>
        <pt x="788" y="978" on="1"/>
        <pt x="773" y="1096" on="0"/>
        <pt x="676" y="1192" on="1"/>
        <pt x="605" y="1264" on="0"/>
        <pt x="508" y="1264" on="1"/>
        <pt x="347" y="1264" on="0"/>
        <pt x="302" y="1118" on="1"/>
        <pt x="290" y="1081" on="0"/>
        <pt x="290" y="1013" on="0"/>
        <pt x="304" y="959" on="0"/>
        <pt x="325" y="917" on="0"/>
        <pt x="364" y="874" on="0"/>
        <pt x="396" y="844" on="0"/>
        <pt x="452" y="805" on="0"/>
        <pt x="488" y="782" on="0"/>
        <pt x="553" y="743" on="0"/>
        <pt x="586" y="722" on="0"/>
        <pt x="658" y="678" on="0"/>
        <pt x="703" y="650" on="0"/>
        <pt x="772" y="601" on="0"/>
        <pt x="816" y="562" on="0"/>
        <pt x="868" y="505" on="0"/>
        <pt x="883" y="478" on="1"/>
        <pt x="918" y="415" on="0"/>
        <pt x="918" y="266" on="0"/>
        <pt x="848" y="127" on="0"/>
        <pt x="790" y="80" on="1"/>
        <pt x="665" y="-20" on="0"/>
        <pt x="500" y="-20" on="1"/>
        <pt x="392" y="-20" on="0"/>
        <pt x="161" y="34" on="0"/>
        <pt x="140" y="38" on="1"/>
        <pt x="124" y="117" on="0"/>
        <pt x="98" y="324" on="0"/>
        <pt x="98" y="348" on="1"/>
        <pt x="122" y="372" on="0"/>
        <pt x="169" y="372" on="0"/>
        <pt x="178" y="325" on="0"/>
        <pt x="201" y="260" on="0"/>
        <pt x="253" y="168" on="0"/>
        <pt x="322" y="98" on="0"/>
        <pt x="436" y="48" on="0"/>
        <pt x="606" y="48" on="0"/>
        <pt x="744" y="179" on="0"/>
        <pt x="744" y="292" on="1"/>
        <pt x="744" y="419" on="0"/>
        <pt x="622" y="498" on="1"/>
        <pt x="587" y="520" on="0"/>
        <pt x="497" y="569" on="0"/>
        <pt x="436" y="605" on="0"/>
        <pt x="413" y="618" on="0"/>
        <pt x="333" y="668" on="0"/>
        <pt x="304" y="691" on="0"/>
        <pt x="237" y="743" on="0"/>
        <pt x="209" y="778" on="0"/>
        <pt x="165" y="834" on="0"/>
        <pt x="156" y="859" on="1"/>
        <pt x="130" y="926" on="0"/>
        <pt x="130" y="980" on="1"/>
        <pt x="130" y="1082" on="0"/>
        <pt x="243" y="1246" on="0"/>
        <pt x="421" y="1332" on="0"/>
      </contour>
    </TTGlyph>
    <TTGlyph name="Sacute" xMin="98" yMin="-20" xMax="918" yMax="1722">
      <component glyphName="acutecomb.cap" x="1112" y="0" flags="0x1004"/>
      <component glyphName="S" x="0" y="0" flags="0x1004"/>
    </TTGlyph>
    <TTGlyph name="Scaron" xMin="98" yMin="-20" xMax="918" yMax="1719">
      <component glyphName="uni030C.cap" x="262" y="0" flags="0x1004"/>
      <component glyphName="S" x="0" y="0" flags="0x1004"/>
    </TTGlyph>
    <TTGlyph name="Scedilla" xMin="98" yMin="-356" xMax="918" yMax="1332">
      <component glyphName="uni0327.cap" x="58" y="-8" flags="0x1004"/>
      <component glyphName="S" x="0" y="0" flags="0x1004"/>
    </TTGlyph>
    <TTGlyph name="Scircumflex" xMin="98" yMin="-20" xMax="918" yMax="1719">
      <component glyphName="uni0302.cap" x="1022" y="-2" flags="0x1004"/>
      <component glyphName="S" x="0" y="0" flags="0x1004"/>
    </TTGlyph>
    <TTGlyph name="T" xMin="24" yMin="-6" xMax="1226" yMax="1356">
      <contour>
        <pt x="1016" y="1322" on="1"/>
        <pt x="1039" y="1322" on="0"/>
        <pt x="1117" y="1342" on="0"/>
        <pt x="1159" y="1364" on="0"/>
        <pt x="1174" y="1356" on="1"/>
        <pt x="1198" y="1147" on="0"/>
        <pt x="1226" y="1012" on="1"/>
        <pt x="1210" y="996" on="0"/>
        <pt x="1167" y="998" on="0"/>
        <pt x="1160" y="1008" on="1"/>
        <pt x="1138" y="1119" on="0"/>
        <pt x="1040" y="1252" on="0"/>
        <pt x="968" y="1252" on="1"/>
        <pt x="714" y="1252" on="1"/>
        <pt x="714" y="232" on="1"/>
        <pt x="714" y="116" on="0"/>
        <pt x="724" y="84" on="1"/>
        <pt x="728" y="70" on="0"/>
        <pt x="832" y="52" on="0"/>
        <pt x="862" y="52" on="1"/>
        <pt x="868" y="44" on="0"/>
        <pt x="869" y="2" on="0"/>
        <pt x="862" y="-6" on="1"/>
        <pt x="657" y="4" on="0"/>
        <pt x="597" y="4" on="0"/>
        <pt x="392" y="-6" on="1"/>
        <pt x="385" y="2" on="0"/>
        <pt x="386" y="44" on="0"/>
        <pt x="392" y="52" on="1"/>
        <pt x="422" y="52" on="0"/>
        <pt x="526" y="70" on="0"/>
        <pt x="530" y="84" on="1"/>
        <pt x="540" y="116" on="0"/>
        <pt x="540" y="232" on="1"/>
        <pt x="540" y="1252" on="1"/>
        <pt x="282" y="1252" on="1"/>
        <pt x="210" y="1252" on="0"/>
        <pt x="112" y="1119" on="0"/>
        <pt x="90" y="1008" on="1"/>
        <pt x="83" y="998" on="0"/>
        <pt x="40" y="996" on="0"/>
        <pt x="24" y="1012" on="1"/>
        <pt x="52" y="1147" on="0"/>
        <pt x="76" y="1356" on="1"/>
        <pt x="93" y="1364" on="0"/>
        <pt x="117" y="1352" on="1"/>
        <pt x="177" y="1322" on="0"/>
        <pt x="234" y="1322" on="1"/>
      </contour>
    </TTGlyph>
    <TTGlyph name="T_h" xMin="20" yMin="-6" xMax="2057" yMax="1388">
      <contour>
        <pt x="1296" y="4" on="1"/>
        <pt x="1084" y="-6" on="1"/>
        <pt x="1077" y="2" on="0"/>
        <pt x="1078" y="44" on="0"/>
        <pt x="1084" y="52" on="1"/>
        <pt x="1113" y="52" on="0"/>
        <pt x="1206" y="70" on="0"/>
        <pt x="1210" y="84" on="1"/>
        <pt x="1220" y="116" on="0"/>
        <pt x="1220" y="232" on="1"/>
        <pt x="1220" y="1060" on="1"/>
        <pt x="1220" y="1154" on="0"/>
        <pt x="1110" y="1230" on="0"/>
        <pt x="914" y="1230" on="0"/>
        <pt x="856" y="1226" on="1"/>
        <pt x="743" y="1218" on="0"/>
        <pt x="738" y="1200" on="1"/>
        <pt x="720" y="1137" on="0"/>
        <pt x="720" y="1000" on="1"/>
        <pt x="720" y="278" on="1"/>
        <pt x="720" y="161" on="0"/>
        <pt x="738" y="92" on="1"/>
        <pt x="742" y="78" on="0"/>
        <pt x="846" y="52" on="0"/>
        <pt x="866" y="52" on="1"/>
        <pt x="874" y="52" on="0"/>
        <pt x="874" y="6" on="0"/>
        <pt x="870" y="-6" on="1"/>
        <pt x="670" y="4" on="0"/>
        <pt x="638" y="4" on="1"/>
        <pt x="398" y="-6" on="1"/>
        <pt x="390" y="2" on="0"/>
        <pt x="390" y="52" on="0"/>
        <pt x="398" y="52" on="1"/>
        <pt x="424" y="52" on="0"/>
        <pt x="525" y="76" on="0"/>
        <pt x="532" y="92" on="1"/>
        <pt x="546" y="146" on="0"/>
        <pt x="546" y="270" on="1"/>
        <pt x="546" y="994" on="1"/>
        <pt x="546" y="1168" on="0"/>
        <pt x="513" y="1230" on="0"/>
        <pt x="312" y="1230" on="1"/>
        <pt x="233" y="1230" on="0"/>
        <pt x="152" y="1201" on="0"/>
        <pt x="108" y="1130" on="0"/>
        <pt x="88" y="1052" on="1"/>
        <pt x="86" y="1042" on="0"/>
        <pt x="34" y="1042" on="0"/>
        <pt x="20" y="1056" on="1"/>
        <pt x="58" y="1342" on="1"/>
        <pt x="146" y="1320" on="0"/>
        <pt x="196" y="1320" on="1"/>
        <pt x="634" y="1308" on="1"/>
        <pt x="932" y="1308" on="0"/>
        <pt x="1124" y="1324" on="0"/>
        <pt x="1264" y="1358" on="0"/>
        <pt x="1361" y="1388" on="0"/>
        <pt x="1362" y="1388" on="1"/>
        <pt x="1368" y="1388" on="1"/>
        <pt x="1376" y="1388" on="0"/>
        <pt x="1392" y="1365" on="0"/>
        <pt x="1394" y="1356" on="1"/>
        <pt x="1374" y="1292" on="0"/>
        <pt x="1374" y="1182" on="1"/>
        <pt x="1374" y="730" on="1"/>
        <pt x="1374" y="726" on="0"/>
        <pt x="1382" y="726" on="0"/>
        <pt x="1386" y="730" on="1"/>
        <pt x="1426" y="774" on="0"/>
        <pt x="1592" y="876" on="0"/>
        <pt x="1721" y="876" on="0"/>
        <pt x="1811" y="842" on="0"/>
        <pt x="1869" y="780" on="0"/>
        <pt x="1886" y="726" on="1"/>
        <pt x="1914" y="633" on="0"/>
        <pt x="1914" y="452" on="1"/>
        <pt x="1914" y="232" on="1"/>
        <pt x="1914" y="116" on="0"/>
        <pt x="1924" y="84" on="1"/>
        <pt x="1928" y="70" on="0"/>
        <pt x="2021" y="52" on="0"/>
        <pt x="2050" y="52" on="1"/>
        <pt x="2056" y="44" on="0"/>
        <pt x="2057" y="2" on="0"/>
        <pt x="2050" y="-6" on="1"/>
        <pt x="1845" y="4" on="0"/>
        <pt x="1836" y="4" on="1"/>
        <pt x="1624" y="-6" on="1"/>
        <pt x="1617" y="2" on="0"/>
        <pt x="1618" y="44" on="0"/>
        <pt x="1624" y="52" on="1"/>
        <pt x="1653" y="52" on="0"/>
        <pt x="1746" y="70" on="0"/>
        <pt x="1750" y="84" on="1"/>
        <pt x="1760" y="116" on="0"/>
        <pt x="1760" y="232" on="1"/>
        <pt x="1760" y="432" on="1"/>
        <pt x="1760" y="621" on="0"/>
        <pt x="1679" y="760" on="0"/>
        <pt x="1564" y="760" on="1"/>
        <pt x="1530" y="760" on="0"/>
        <pt x="1437" y="712" on="0"/>
        <pt x="1374" y="660" on="0"/>
        <pt x="1374" y="650" on="1"/>
        <pt x="1374" y="232" on="1"/>
        <pt x="1374" y="116" on="0"/>
        <pt x="1384" y="84" on="1"/>
        <pt x="1388" y="70" on="0"/>
        <pt x="1481" y="52" on="0"/>
        <pt x="1510" y="52" on="1"/>
        <pt x="1516" y="44" on="0"/>
        <pt x="1517" y="2" on="0"/>
        <pt x="1510" y="-6" on="1"/>
        <pt x="1305" y="4" on="0"/>
      </contour>
    </TTGlyph>
    <TTGlyph name="Tbar" xMin="24" yMin="-6" xMax="1226" yMax="1356">
      <component glyphName="T" x="0" y="0" flags="0x1004"/>
      <component glyphName="Tbar.ref1" x="0" y="0" flags="0x1004"/>
    </TTGlyph>
    <TTGlyph name="Tbar.ref1" xMin="306" yMin="622" xMax="952" yMax="696">
      <contour>
        <pt x="946" y="622" on="1"/>
        <pt x="314" y="622" on="1"/>
        <pt x="303" y="622" on="0"/>
        <pt x="310" y="688" on="0"/>
        <pt x="316" y="696" on="1"/>
        <pt x="946" y="696" on="1"/>
        <pt x="952" y="696" on="0"/>
        <pt x="952" y="636" on="0"/>
      </contour>
    </TTGlyph>
    <TTGlyph name="Tcaron" xMin="24" yMin="-6" xMax="1226" yMax="1747">
      <component glyphName="uni030C.cap" x="351" y="28" flags="0x1004"/>
      <component glyphName="T" x="0" y="0" flags="0x1004"/>
    </TTGlyph>
    <TTGlyph name="Thorn" xMin="84" yMin="-6" xMax="1036" yMax="1324">
      <contour>
        <pt x="91" y="1324" on="1"/>
        <pt x="296" y="1314" on="0"/>
        <pt x="356" y="1314" on="0"/>
        <pt x="561" y="1324" on="1"/>
        <pt x="568" y="1316" on="0"/>
        <pt x="567" y="1274" on="0"/>
        <pt x="561" y="1266" on="1"/>
        <pt x="531" y="1266" on="0"/>
        <pt x="427" y="1248" on="0"/>
        <pt x="423" y="1234" on="1"/>
        <pt x="411" y="1196" on="0"/>
        <pt x="413" y="1086" on="1"/>
        <pt x="413" y="960" on="1"/>
        <pt x="493" y="1018" on="0"/>
        <pt x="650" y="1018" on="1"/>
        <pt x="779" y="1018" on="0"/>
        <pt x="904" y="926" on="1"/>
        <pt x="962" y="882" on="0"/>
        <pt x="1036" y="741" on="0"/>
        <pt x="1036" y="658" on="1"/>
        <pt x="1036" y="476" on="0"/>
        <pt x="793" y="256" on="0"/>
        <pt x="596" y="256" on="1"/>
        <pt x="542" y="256" on="0"/>
        <pt x="510" y="272" on="1"/>
        <pt x="482" y="291" on="0"/>
        <pt x="482" y="316" on="1"/>
        <pt x="482" y="328" on="0"/>
        <pt x="492" y="326" on="1"/>
        <pt x="543" y="312" on="0"/>
        <pt x="568" y="312" on="1"/>
        <pt x="692" y="312" on="0"/>
        <pt x="852" y="478" on="0"/>
        <pt x="852" y="771" on="0"/>
        <pt x="701" y="940" on="0"/>
        <pt x="576" y="940" on="1"/>
        <pt x="545" y="940" on="0"/>
        <pt x="447" y="911" on="0"/>
        <pt x="413" y="856" on="0"/>
        <pt x="413" y="720" on="1"/>
        <pt x="413" y="232" on="1"/>
        <pt x="411" y="122" on="0"/>
        <pt x="423" y="84" on="1"/>
        <pt x="427" y="70" on="0"/>
        <pt x="531" y="52" on="0"/>
        <pt x="561" y="52" on="1"/>
        <pt x="567" y="44" on="0"/>
        <pt x="568" y="2" on="0"/>
        <pt x="561" y="-6" on="1"/>
        <pt x="356" y="4" on="0"/>
        <pt x="296" y="4" on="0"/>
        <pt x="91" y="-6" on="1"/>
        <pt x="84" y="2" on="0"/>
        <pt x="85" y="44" on="0"/>
        <pt x="91" y="52" on="1"/>
        <pt x="121" y="52" on="0"/>
        <pt x="225" y="70" on="0"/>
        <pt x="229" y="84" on="1"/>
        <pt x="239" y="116" on="0"/>
        <pt x="239" y="232" on="1"/>
        <pt x="239" y="1086" on="1"/>
        <pt x="239" y="1202" on="0"/>
        <pt x="229" y="1234" on="1"/>
        <pt x="225" y="1248" on="0"/>
        <pt x="121" y="1266" on="0"/>
        <pt x="91" y="1266" on="1"/>
        <pt x="85" y="1274" on="0"/>
        <pt x="84" y="1316" on="0"/>
      </contour>
    </TTGlyph>
    <TTGlyph name="ThreeDots.a" xMin="-232" yMin="5" xMax="226" yMax="523">
      <contour>
        <pt x="-80" y="519" on="1"/>
        <pt x="-75" y="527" on="0"/>
        <pt x="-63" y="523" on="1"/>
        <pt x="18" y="495" on="0"/>
        <pt x="82" y="438" on="1"/>
        <pt x="91" y="430" on="0"/>
        <pt x="85" y="420" on="1"/>
        <pt x="-13" y="265" on="1"/>
        <pt x="-19" y="256" on="0"/>
        <pt x="-48" y="280" on="0"/>
        <pt x="-177" y="358" on="1"/>
        <pt x="-185" y="363" on="0"/>
        <pt x="-180" y="370" on="1"/>
      </contour>
      <contour>
        <pt x="61" y="306" on="1"/>
        <pt x="66" y="314" on="0"/>
        <pt x="78" y="310" on="1"/>
        <pt x="159" y="282" on="0"/>
        <pt x="223" y="225" on="1"/>
        <pt x="232" y="217" on="0"/>
        <pt x="226" y="207" on="1"/>
        <pt x="128" y="52" on="1"/>
        <pt x="122" y="43" on="0"/>
        <pt x="108" y="55" on="1"/>
        <pt x="96" y="65" on="0"/>
        <pt x="7" y="119" on="1"/>
        <pt x="-65" y="5" on="1"/>
        <pt x="-71" y="-4" on="0"/>
        <pt x="-100" y="20" on="0"/>
        <pt x="-229" y="98" on="1"/>
        <pt x="-237" y="103" on="0"/>
        <pt x="-232" y="110" on="1"/>
        <pt x="-132" y="259" on="1"/>
        <pt x="-127" y="267" on="0"/>
        <pt x="-115" y="263" on="1"/>
        <pt x="-56" y="243" on="0"/>
        <pt x="-6" y="207" on="1"/>
      </contour>
    </TTGlyph>
    <TTGlyph name="ThreeDots.b" xMin="-230" yMin="-255" xMax="228" yMax="263">
      <component glyphName="ThreeDots.a" x="2" y="-260" flags="0x1004"/>
    </TTGlyph>
    <TTGlyph name="ThreeDots.b.l" xMin="-230" yMin="-255" xMax="228" yMax="263">
      <component glyphName="ThreeDots.a" x="2" y="-260" flags="0x1004"/>
    </TTGlyph>
    <TTGlyph name="TwoDots.a" xMin="-244" yMin="6" xMax="234" yMax="310">
      <contour>
        <pt x="69" y="306" on="1"/>
        <pt x="74" y="314" on="0"/>
        <pt x="86" y="310" on="1"/>
        <pt x="167" y="282" on="0"/>
        <pt x="231" y="225" on="1"/>
        <pt x="240" y="217" on="0"/>
        <pt x="234" y="207" on="1"/>
        <pt x="136" y="52" on="1"/>
        <pt x="130" y="43" on="0"/>
        <pt x="116" y="55" on="1"/>
        <pt x="103" y="66" on="0"/>
        <pt x="0" y="128" on="1"/>
        <pt x="-77" y="6" on="1"/>
        <pt x="-83" y="-3" on="0"/>
        <pt x="-112" y="21" on="0"/>
        <pt x="-241" y="99" on="1"/>
        <pt x="-249" y="104" on="0"/>
        <pt x="-244" y="111" on="1"/>
        <pt x="-144" y="260" on="1"/>
        <pt x="-139" y="268" on="0"/>
        <pt x="-127" y="264" on="1"/>
        <pt x="-60" y="241" on="0"/>
        <pt x="-4" y="197" on="1"/>
      </contour>
    </TTGlyph>
    <TTGlyph name="TwoDots.b" xMin="-240" yMin="-41" xMax="238" yMax="263">
      <component glyphName="TwoDots.a" x="4" y="-47" flags="0x1004"/>
    </TTGlyph>
    <TTGlyph name="TwoDots.b.l" xMin="-240" yMin="-41" xMax="238" yMax="263">
      <component glyphName="TwoDots.a" x="4" y="-47" flags="0x1004"/>
    </TTGlyph>
    <TTGlyph name="U" xMin="52" yMin="-8" xMax="1409" yMax="1326">
      <contour>
        <pt x="1195" y="1316" on="1"/>
        <pt x="1409" y="1326" on="1"/>
        <pt x="1424" y="1301" on="0"/>
        <pt x="1409" y="1268" on="1"/>
        <pt x="1381" y="1268" on="0"/>
        <pt x="1262" y="1244" on="0"/>
        <pt x="1251" y="1226" on="1"/>
        <pt x="1233" y="1195" on="0"/>
        <pt x="1233" y="1092" on="1"/>
        <pt x="1233" y="552" on="1"/>
        <pt x="1233" y="264" on="0"/>
        <pt x="957" y="-8" on="0"/>
        <pt x="492" y="-8" on="0"/>
        <pt x="207" y="263" on="0"/>
        <pt x="207" y="502" on="1"/>
        <pt x="207" y="1086" on="1"/>
        <pt x="207" y="1202" on="0"/>
        <pt x="197" y="1234" on="1"/>
        <pt x="193" y="1248" on="0"/>
        <pt x="89" y="1266" on="0"/>
        <pt x="59" y="1266" on="1"/>
        <pt x="53" y="1274" on="0"/>
        <pt x="52" y="1316" on="0"/>
        <pt x="59" y="1324" on="1"/>
        <pt x="264" y="1314" on="0"/>
        <pt x="324" y="1314" on="0"/>
        <pt x="529" y="1324" on="1"/>
        <pt x="536" y="1316" on="0"/>
        <pt x="535" y="1274" on="0"/>
        <pt x="529" y="1266" on="1"/>
        <pt x="499" y="1266" on="0"/>
        <pt x="395" y="1248" on="0"/>
        <pt x="391" y="1234" on="1"/>
        <pt x="381" y="1202" on="0"/>
        <pt x="381" y="1086" on="1"/>
        <pt x="381" y="592" on="1"/>
        <pt x="381" y="108" on="0"/>
        <pt x="753" y="108" on="1"/>
        <pt x="1133" y="108" on="0"/>
        <pt x="1141" y="548" on="1"/>
        <pt x="1141" y="1090" on="1"/>
        <pt x="1141" y="1152" on="0"/>
        <pt x="1135" y="1206" on="0"/>
        <pt x="1113" y="1242" on="0"/>
        <pt x="1006" y="1268" on="0"/>
        <pt x="977" y="1268" on="1"/>
        <pt x="970" y="1278" on="0"/>
        <pt x="969" y="1318" on="0"/>
        <pt x="973" y="1326" on="1"/>
        <pt x="1173" y="1316" on="0"/>
      </contour>
    </TTGlyph>
    <TTGlyph name="Uacute" xMin="52" yMin="-8" xMax="1409" yMax="1722">
      <component glyphName="acutecomb.cap" x="1369" y="0" flags="0x1004"/>
      <component glyphName="U" x="0" y="0" flags="0x1004"/>
    </TTGlyph>
    <TTGlyph name="Ubreve" xMin="52" yMin="-8" xMax="1409" yMax="1666">
      <component glyphName="uni0306.cap" x="1237" y="-6" flags="0x1004"/>
      <component glyphName="U" x="0" y="0" flags="0x1004"/>
    </TTGlyph>
    <TTGlyph name="Ucircumflex" xMin="52" yMin="-8" xMax="1409" yMax="1719">
      <component glyphName="uni0302.cap" x="1243" y="-2" flags="0x1004"/>
      <component glyphName="U" x="0" y="0" flags="0x1004"/>
    </TTGlyph>
    <TTGlyph name="Udieresis" xMin="52" yMin="-8" xMax="1409" yMax="1656">
      <component glyphName="U" x="0" y="0" flags="0x1004"/>
      <component glyphName="uni0308.cap" x="391" y="32" flags="0x1004"/>
    </TTGlyph>
    <TTGlyph name="Ugrave" xMin="52" yMin="-8" xMax="1409" yMax="1722">
      <component glyphName="gravecomb.cap" x="1177" y="0" flags="0x1004"/>
      <component glyphName="U" x="0" y="0" flags="0x1004"/>
    </TTGlyph>
    <TTGlyph name="Uhungarumlaut" xMin="52" yMin="-8" xMax="1409" yMax="1732">
      <component glyphName="acutecomb.cap" x="1187" y="10" flags="0x1004"/>
      <component glyphName="acutecomb.cap" x="1491" y="10" flags="0x1004"/>
      <component glyphName="U" x="0" y="0" flags="0x1004"/>
    </TTGlyph>
    <TTGlyph name="Umacron" xMin="52" yMin="-8" xMax="1409" yMax="1596">
      <component glyphName="uni0304.cap" x="1243" y="56" flags="0x1004"/>
      <component glyphName="U" x="0" y="0" flags="0x1004"/>
    </TTGlyph>
    <TTGlyph name="Uogonek" xMin="52" yMin="-448" xMax="1409" yMax="1326">
      <contour>
        <pt x="1195" y="1316" on="1"/>
        <pt x="1409" y="1326" on="1"/>
        <pt x="1424" y="1301" on="0"/>
        <pt x="1409" y="1268" on="1"/>
        <pt x="1381" y="1268" on="0"/>
        <pt x="1262" y="1244" on="0"/>
        <pt x="1251" y="1226" on="1"/>
        <pt x="1233" y="1195" on="0"/>
        <pt x="1233" y="1092" on="1"/>
        <pt x="1233" y="552" on="1"/>
        <pt x="1233" y="313" on="0"/>
        <pt x="1132" y="181" on="1"/>
        <pt x="1082" y="116" on="0"/>
        <pt x="978" y="40" on="1"/>
        <pt x="840" y="-61" on="0"/>
        <pt x="786" y="-128" on="1"/>
        <pt x="728" y="-199" on="0"/>
        <pt x="728" y="-237" on="1"/>
        <pt x="728" y="-330" on="0"/>
        <pt x="810" y="-330" on="1"/>
        <pt x="879" y="-330" on="0"/>
        <pt x="925" y="-292" on="1"/>
        <pt x="942" y="-278" on="0"/>
        <pt x="969" y="-254" on="0"/>
        <pt x="973" y="-254" on="0"/>
        <pt x="976" y="-257" on="1"/>
        <pt x="982" y="-265" on="0"/>
        <pt x="982" y="-301" on="0"/>
        <pt x="972" y="-314" on="1"/>
        <pt x="870" y="-448" on="0"/>
        <pt x="762" y="-448" on="1"/>
        <pt x="710" y="-448" on="0"/>
        <pt x="676" y="-420" on="1"/>
        <pt x="620" y="-373" on="0"/>
        <pt x="620" y="-217" on="0"/>
        <pt x="751" y="-50" on="0"/>
        <pt x="838" y="4" on="1"/>
        <pt x="800" y="-8" on="0"/>
        <pt x="711" y="-8" on="1"/>
        <pt x="492" y="-8" on="0"/>
        <pt x="207" y="263" on="0"/>
        <pt x="207" y="502" on="1"/>
        <pt x="207" y="1086" on="1"/>
        <pt x="207" y="1202" on="0"/>
        <pt x="197" y="1234" on="1"/>
        <pt x="193" y="1248" on="0"/>
        <pt x="89" y="1266" on="0"/>
        <pt x="59" y="1266" on="1"/>
        <pt x="53" y="1274" on="0"/>
        <pt x="52" y="1316" on="0"/>
        <pt x="59" y="1324" on="1"/>
        <pt x="264" y="1314" on="0"/>
        <pt x="324" y="1314" on="0"/>
        <pt x="529" y="1324" on="1"/>
        <pt x="536" y="1316" on="0"/>
        <pt x="535" y="1274" on="0"/>
        <pt x="529" y="1266" on="1"/>
        <pt x="499" y="1266" on="0"/>
        <pt x="395" y="1248" on="0"/>
        <pt x="391" y="1234" on="1"/>
        <pt x="381" y="1202" on="0"/>
        <pt x="381" y="1086" on="1"/>
        <pt x="381" y="592" on="1"/>
        <pt x="381" y="108" on="0"/>
        <pt x="753" y="108" on="1"/>
        <pt x="1133" y="108" on="0"/>
        <pt x="1141" y="548" on="1"/>
        <pt x="1141" y="1090" on="1"/>
        <pt x="1141" y="1152" on="0"/>
        <pt x="1135" y="1206" on="0"/>
        <pt x="1113" y="1242" on="0"/>
        <pt x="1006" y="1268" on="0"/>
        <pt x="977" y="1268" on="1"/>
        <pt x="970" y="1278" on="0"/>
        <pt x="969" y="1318" on="0"/>
        <pt x="973" y="1326" on="1"/>
        <pt x="1173" y="1316" on="0"/>
      </contour>
    </TTGlyph>
    <TTGlyph name="Uring" xMin="52" yMin="-8" xMax="1409" yMax="1814">
      <component glyphName="uni030A.cap" x="1245" y="0" flags="0x1004"/>
      <component glyphName="U" x="0" y="0" flags="0x1004"/>
    </TTGlyph>
    <TTGlyph name="Utilde" xMin="52" yMin="-8" xMax="1409" yMax="1622">
      <component glyphName="tildecomb.cap" x="1241" y="-14" flags="0x1004"/>
      <component glyphName="U" x="0" y="0" flags="0x1004"/>
    </TTGlyph>
    <TTGlyph name="V" xMin="-16" yMin="-4" xMax="1306" yMax="1324">
      <contour>
        <pt x="-13" y="1324" on="1"/>
        <pt x="219" y="1314" on="1"/>
        <pt x="267" y="1314" on="0"/>
        <pt x="467" y="1324" on="1"/>
        <pt x="470" y="1315" on="0"/>
        <pt x="469" y="1267" on="0"/>
        <pt x="463" y="1266" on="1"/>
        <pt x="395" y="1266" on="0"/>
        <pt x="359" y="1234" on="1"/>
        <pt x="343" y="1219" on="0"/>
        <pt x="343" y="1159" on="0"/>
        <pt x="378" y="1064" on="1"/>
        <pt x="565" y="554" on="0"/>
        <pt x="676" y="258" on="1"/>
        <pt x="687" y="280" on="0"/>
        <pt x="940" y="905" on="0"/>
        <pt x="1031" y="1138" on="0"/>
        <pt x="1031" y="1208" on="0"/>
        <pt x="998" y="1242" on="0"/>
        <pt x="974" y="1250" on="1"/>
        <pt x="926" y="1264" on="0"/>
        <pt x="899" y="1264" on="1"/>
        <pt x="892" y="1267" on="0"/>
        <pt x="892" y="1314" on="0"/>
        <pt x="899" y="1322" on="1"/>
        <pt x="1047" y="1314" on="0"/>
        <pt x="1148" y="1314" on="0"/>
        <pt x="1207" y="1317" on="0"/>
        <pt x="1274" y="1323" on="0"/>
        <pt x="1303" y="1324" on="1"/>
        <pt x="1307" y="1316" on="0"/>
        <pt x="1304" y="1266" on="0"/>
        <pt x="1299" y="1266" on="1"/>
        <pt x="1277" y="1266" on="0"/>
        <pt x="1193" y="1240" on="0"/>
        <pt x="1133" y="1170" on="0"/>
        <pt x="903" y="590" on="0"/>
        <pt x="683" y="64" on="1"/>
        <pt x="655" y="-4" on="0"/>
        <pt x="607" y="-4" on="1"/>
        <pt x="601" y="-4" on="0"/>
        <pt x="547" y="132" on="0"/>
        <pt x="294" y="806" on="0"/>
        <pt x="159" y="1153" on="0"/>
        <pt x="115" y="1220" on="1"/>
        <pt x="101" y="1241" on="0"/>
        <pt x="13" y="1266" on="0"/>
        <pt x="-13" y="1266" on="1"/>
        <pt x="-16" y="1266" on="0"/>
        <pt x="-16" y="1321" on="0"/>
      </contour>
    </TTGlyph>
    <TTGlyph name="W" xMin="-12" yMin="-4" xMax="1812" yMax="1324">
      <contour>
        <pt x="235" y="1314" on="1"/>
        <pt x="235" y="1314" on="0"/>
        <pt x="451" y="1324" on="1"/>
        <pt x="454" y="1315" on="0"/>
        <pt x="453" y="1267" on="0"/>
        <pt x="447" y="1266" on="1"/>
        <pt x="379" y="1266" on="0"/>
        <pt x="343" y="1234" on="1"/>
        <pt x="327" y="1219" on="0"/>
        <pt x="327" y="1181" on="0"/>
        <pt x="382" y="979" on="0"/>
        <pt x="554" y="418" on="0"/>
        <pt x="590" y="296" on="1"/>
        <pt x="640" y="462" on="0"/>
        <pt x="865" y="1169" on="0"/>
        <pt x="900" y="1285" on="0"/>
        <pt x="946" y="1324" on="0"/>
        <pt x="964" y="1324" on="1"/>
        <pt x="973" y="1324" on="0"/>
        <pt x="988" y="1292" on="1"/>
        <pt x="1251" y="464" on="0"/>
        <pt x="1306" y="302" on="1"/>
        <pt x="1335" y="406" on="0"/>
        <pt x="1378" y="554" on="1"/>
        <pt x="1470" y="875" on="0"/>
        <pt x="1539" y="1144" on="0"/>
        <pt x="1539" y="1210" on="0"/>
        <pt x="1504" y="1244" on="0"/>
        <pt x="1480" y="1252" on="1"/>
        <pt x="1432" y="1266" on="0"/>
        <pt x="1403" y="1266" on="1"/>
        <pt x="1396" y="1269" on="0"/>
        <pt x="1396" y="1316" on="0"/>
        <pt x="1403" y="1324" on="1"/>
        <pt x="1588" y="1314" on="0"/>
        <pt x="1660" y="1314" on="0"/>
        <pt x="1716" y="1317" on="0"/>
        <pt x="1780" y="1323" on="0"/>
        <pt x="1809" y="1324" on="1"/>
        <pt x="1813" y="1316" on="0"/>
        <pt x="1810" y="1266" on="0"/>
        <pt x="1805" y="1266" on="1"/>
        <pt x="1788" y="1266" on="0"/>
        <pt x="1704" y="1236" on="0"/>
        <pt x="1641" y="1183" on="0"/>
        <pt x="1560" y="904" on="0"/>
        <pt x="1377" y="261" on="0"/>
        <pt x="1319" y="64" on="1"/>
        <pt x="1312" y="38" on="0"/>
        <pt x="1263" y="-4" on="0"/>
        <pt x="1250" y="-4" on="1"/>
        <pt x="1231" y="-4" on="0"/>
        <pt x="1195" y="109" on="0"/>
        <pt x="1108" y="372" on="0"/>
        <pt x="1064" y="504" on="1"/>
        <pt x="1006" y="681" on="0"/>
        <pt x="920" y="944" on="1"/>
        <pt x="896" y="1016" on="1"/>
        <pt x="843" y="841" on="0"/>
        <pt x="650" y="248" on="0"/>
        <pt x="595" y="64" on="1"/>
        <pt x="588" y="38" on="0"/>
        <pt x="539" y="-4" on="0"/>
        <pt x="526" y="-4" on="1"/>
        <pt x="507" y="-4" on="0"/>
        <pt x="499" y="28" on="1"/>
        <pt x="432" y="241" on="0"/>
        <pt x="217" y="942" on="0"/>
        <pt x="177" y="1072" on="0"/>
        <pt x="163" y="1119" on="0"/>
        <pt x="159" y="1132" on="0"/>
        <pt x="147" y="1167" on="0"/>
        <pt x="140" y="1180" on="0"/>
        <pt x="134" y="1192" on="1"/>
        <pt x="110" y="1238" on="0"/>
        <pt x="13" y="1266" on="0"/>
        <pt x="-9" y="1266" on="1"/>
        <pt x="-12" y="1266" on="0"/>
        <pt x="-12" y="1321" on="0"/>
        <pt x="-9" y="1324" on="1"/>
        <pt x="221" y="1314" on="0"/>
      </contour>
    </TTGlyph>
    <TTGlyph name="Wacute" xMin="-12" yMin="-4" xMax="1812" yMax="1722">
      <component glyphName="acutecomb.cap" x="1537" y="0" flags="0x1004"/>
      <component glyphName="W" x="0" y="0" flags="0x1004"/>
    </TTGlyph>
    <TTGlyph name="Wcircumflex" xMin="-12" yMin="-4" xMax="1812" yMax="1659">
      <component glyphName="uni0302.cap" x="1469" y="-62" flags="0x1004"/>
      <component glyphName="W" x="0" y="0" flags="0x1004"/>
    </TTGlyph>
    <TTGlyph name="Wdieresis" xMin="-12" yMin="-4" xMax="1812" yMax="1656">
      <component glyphName="uni0308.cap" x="599" y="32" flags="0x1004"/>
      <component glyphName="W" x="0" y="0" flags="0x1004"/>
    </TTGlyph>
    <TTGlyph name="Wgrave" xMin="-12" yMin="-4" xMax="1812" yMax="1722">
      <component glyphName="gravecomb.cap" x="1375" y="0" flags="0x1004"/>
      <component glyphName="W" x="0" y="0" flags="0x1004"/>
    </TTGlyph>
    <TTGlyph name="X" xMin="-17" yMin="-6" xMax="1340" yMax="1324">
      <contour>
        <pt x="69" y="1324" on="1"/>
        <pt x="319" y="1314" on="1"/>
        <pt x="375" y="1314" on="0"/>
        <pt x="575" y="1324" on="1"/>
        <pt x="579" y="1315" on="0"/>
        <pt x="578" y="1266" on="0"/>
        <pt x="571" y="1266" on="1"/>
        <pt x="517" y="1266" on="0"/>
        <pt x="451" y="1226" on="0"/>
        <pt x="451" y="1176" on="0"/>
        <pt x="475" y="1142" on="1"/>
        <pt x="707" y="786" on="1"/>
        <pt x="742" y="833" on="0"/>
        <pt x="827" y="945" on="1"/>
        <pt x="957" y="1117" on="0"/>
        <pt x="1007" y="1194" on="0"/>
        <pt x="1007" y="1223" on="0"/>
        <pt x="998" y="1234" on="1"/>
        <pt x="970" y="1264" on="0"/>
        <pt x="872" y="1264" on="1"/>
        <pt x="866" y="1265" on="0"/>
        <pt x="863" y="1312" on="0"/>
        <pt x="868" y="1322" on="1"/>
        <pt x="1001" y="1312" on="0"/>
        <pt x="1175" y="1312" on="0"/>
        <pt x="1295" y="1322" on="1"/>
        <pt x="1300" y="1315" on="0"/>
        <pt x="1299" y="1272" on="0"/>
        <pt x="1291" y="1264" on="1"/>
        <pt x="1244" y="1264" on="0"/>
        <pt x="1140" y="1215" on="0"/>
        <pt x="1113" y="1184" on="1"/>
        <pt x="931" y="968" on="0"/>
        <pt x="745" y="720" on="1"/>
        <pt x="1139" y="132" on="1"/>
        <pt x="1165" y="92" on="0"/>
        <pt x="1278" y="52" on="0"/>
        <pt x="1335" y="52" on="1"/>
        <pt x="1340" y="43" on="0"/>
        <pt x="1339" y="-1" on="0"/>
        <pt x="1337" y="-6" on="1"/>
        <pt x="1131" y="4" on="1"/>
        <pt x="839" y="-6" on="1"/>
        <pt x="832" y="2" on="0"/>
        <pt x="832" y="52" on="0"/>
        <pt x="839" y="52" on="1"/>
        <pt x="866" y="52" on="0"/>
        <pt x="955" y="83" on="0"/>
        <pt x="955" y="108" on="1"/>
        <pt x="955" y="112" on="0"/>
        <pt x="945" y="132" on="1"/>
        <pt x="640" y="602" on="1"/>
        <pt x="299" y="147" on="0"/>
        <pt x="299" y="52" on="0"/>
        <pt x="453" y="52" on="1"/>
        <pt x="459" y="44" on="0"/>
        <pt x="460" y="-2" on="0"/>
        <pt x="457" y="-6" on="1"/>
        <pt x="272" y="4" on="0"/>
        <pt x="185" y="4" on="0"/>
        <pt x="-15" y="-6" on="1"/>
        <pt x="-19" y="4" on="0"/>
        <pt x="-15" y="47" on="0"/>
        <pt x="-11" y="52" on="1"/>
        <pt x="23" y="52" on="0"/>
        <pt x="167" y="94" on="0"/>
        <pt x="203" y="140" on="1"/>
        <pt x="298" y="263" on="0"/>
        <pt x="544" y="596" on="0"/>
        <pt x="595" y="664" on="1"/>
        <pt x="313" y="1096" on="1"/>
        <pt x="277" y="1152" on="0"/>
        <pt x="222" y="1211" on="0"/>
        <pt x="190" y="1230" on="1"/>
        <pt x="125" y="1266" on="0"/>
        <pt x="69" y="1266" on="1"/>
        <pt x="62" y="1266" on="0"/>
        <pt x="62" y="1316" on="0"/>
      </contour>
    </TTGlyph>
    <TTGlyph name="Y" xMin="-28" yMin="-6" xMax="1208" yMax="1324">
      <contour>
        <pt x="-20" y="1324" on="1"/>
        <pt x="230" y="1314" on="1"/>
        <pt x="286" y="1314" on="0"/>
        <pt x="486" y="1324" on="1"/>
        <pt x="490" y="1315" on="0"/>
        <pt x="489" y="1266" on="0"/>
        <pt x="482" y="1266" on="1"/>
        <pt x="428" y="1266" on="0"/>
        <pt x="362" y="1226" on="0"/>
        <pt x="362" y="1181" on="0"/>
        <pt x="386" y="1142" on="1"/>
        <pt x="664" y="662" on="1"/>
        <pt x="732" y="784" on="0"/>
        <pt x="899" y="1119" on="0"/>
        <pt x="930" y="1194" on="0"/>
        <pt x="930" y="1222" on="0"/>
        <pt x="920" y="1233" on="1"/>
        <pt x="890" y="1264" on="0"/>
        <pt x="790" y="1264" on="1"/>
        <pt x="786" y="1264" on="0"/>
        <pt x="783" y="1318" on="0"/>
        <pt x="786" y="1322" on="1"/>
        <pt x="971" y="1312" on="0"/>
        <pt x="1033" y="1312" on="0"/>
        <pt x="1102" y="1315" on="0"/>
        <pt x="1180" y="1321" on="0"/>
        <pt x="1206" y="1322" on="1"/>
        <pt x="1209" y="1313" on="0"/>
        <pt x="1206" y="1264" on="0"/>
        <pt x="1202" y="1264" on="1"/>
        <pt x="1070" y="1264" on="0"/>
        <pt x="1024" y="1184" on="1"/>
        <pt x="963" y="1077" on="0"/>
        <pt x="708" y="602" on="1"/>
        <pt x="698" y="584" on="0"/>
        <pt x="698" y="540" on="1"/>
        <pt x="696" y="232" on="1"/>
        <pt x="696" y="116" on="0"/>
        <pt x="706" y="84" on="1"/>
        <pt x="710" y="70" on="0"/>
        <pt x="814" y="52" on="0"/>
        <pt x="844" y="52" on="1"/>
        <pt x="850" y="44" on="0"/>
        <pt x="851" y="2" on="0"/>
        <pt x="844" y="-6" on="1"/>
        <pt x="639" y="4" on="0"/>
        <pt x="579" y="4" on="0"/>
        <pt x="374" y="-6" on="1"/>
        <pt x="367" y="2" on="0"/>
        <pt x="368" y="44" on="0"/>
        <pt x="374" y="52" on="1"/>
        <pt x="404" y="52" on="0"/>
        <pt x="508" y="70" on="0"/>
        <pt x="512" y="84" on="1"/>
        <pt x="522" y="116" on="0"/>
        <pt x="522" y="232" on="1"/>
        <pt x="522" y="534" on="1"/>
        <pt x="522" y="562" on="0"/>
        <pt x="508" y="590" on="1"/>
        <pt x="446" y="703" on="0"/>
        <pt x="277" y="1001" on="0"/>
        <pt x="193" y="1150" on="0"/>
        <pt x="136" y="1209" on="0"/>
        <pt x="102" y="1228" on="1"/>
        <pt x="37" y="1266" on="0"/>
        <pt x="-20" y="1266" on="1"/>
        <pt x="-28" y="1266" on="0"/>
        <pt x="-28" y="1316" on="0"/>
      </contour>
    </TTGlyph>
    <TTGlyph name="Yacute" xMin="-28" yMin="-6" xMax="1208" yMax="1722">
      <component glyphName="acutecomb.cap" x="1280" y="0" flags="0x1004"/>
      <component glyphName="Y" x="0" y="0" flags="0x1004"/>
    </TTGlyph>
    <TTGlyph name="Ycircumflex" xMin="-28" yMin="-6" xMax="1208" yMax="1659">
      <component glyphName="uni0302.cap" x="1142" y="-62" flags="0x1004"/>
      <component glyphName="Y" x="0" y="0" flags="0x1004"/>
    </TTGlyph>
    <TTGlyph name="Ydieresis" xMin="-28" yMin="-6" xMax="1208" yMax="1656">
      <component glyphName="uni0308.cap" x="298" y="32" flags="0x1004"/>
      <component glyphName="Y" x="0" y="0" flags="0x1004"/>
    </TTGlyph>
    <TTGlyph name="Ygrave" xMin="-28" yMin="-6" xMax="1208" yMax="1722">
      <component glyphName="gravecomb.cap" x="1028" y="0" flags="0x1004"/>
      <component glyphName="Y" x="0" y="0" flags="0x1004"/>
    </TTGlyph>
    <TTGlyph name="Z" xMin="70" yMin="0" xMax="1204" yMax="1342">
      <contour>
        <pt x="1204" y="326" on="1"/>
        <pt x="1122" y="61" on="0"/>
        <pt x="1108" y="0" on="1"/>
        <pt x="106" y="0" on="1"/>
        <pt x="89" y="0" on="0"/>
        <pt x="64" y="19" on="0"/>
        <pt x="70" y="28" on="1"/>
        <pt x="920" y="1252" on="1"/>
        <pt x="432" y="1252" on="1"/>
        <pt x="332" y="1252" on="0"/>
        <pt x="194" y="1115" on="0"/>
        <pt x="160" y="990" on="1"/>
        <pt x="155" y="982" on="0"/>
        <pt x="140" y="982" on="1"/>
        <pt x="102" y="982" on="0"/>
        <pt x="86" y="998" on="1"/>
        <pt x="133" y="1126" on="0"/>
        <pt x="152" y="1338" on="1"/>
        <pt x="264" y="1322" on="0"/>
        <pt x="316" y="1322" on="1"/>
        <pt x="704" y="1322" on="1"/>
        <pt x="844" y="1322" on="0"/>
        <pt x="1124" y="1342" on="1"/>
        <pt x="1131" y="1340" on="0"/>
        <pt x="1160" y="1309" on="0"/>
        <pt x="1159" y="1300" on="1"/>
        <pt x="1157" y="1286" on="0"/>
        <pt x="524" y="374" on="1"/>
        <pt x="314" y="70" on="1"/>
        <pt x="836" y="70" on="1"/>
        <pt x="996" y="70" on="0"/>
        <pt x="1075" y="214" on="1"/>
        <pt x="1096" y="253" on="0"/>
        <pt x="1128" y="337" on="0"/>
        <pt x="1131" y="344" on="0"/>
        <pt x="1186" y="344" on="0"/>
      </contour>
    </TTGlyph>
    <TTGlyph name="Zacute" xMin="70" yMin="0" xMax="1204" yMax="1722">
      <component glyphName="acutecomb.cap" x="1234" y="0" flags="0x1004"/>
      <component glyphName="Z" x="0" y="0" flags="0x1004"/>
    </TTGlyph>
    <TTGlyph name="Zcaron" xMin="70" yMin="0" xMax="1204" yMax="1719">
      <component glyphName="uni030C.cap" x="424" y="0" flags="0x1004"/>
      <component glyphName="Z" x="0" y="0" flags="0x1004"/>
    </TTGlyph>
    <TTGlyph name="Zdotaccent" xMin="70" yMin="0" xMax="1204" yMax="1656">
      <component glyphName="uni0307" x="1205" y="460" flags="0x1004"/>
      <component glyphName="Z" x="0" y="0" flags="0x1004"/>
    </TTGlyph>
    <TTGlyph name="a" xMin="74" yMin="-16" xMax="836" yMax="872">
      <contour>
        <pt x="240" y="176" on="0"/>
        <pt x="318" y="92" on="0"/>
        <pt x="423" y="92" on="0"/>
        <pt x="548" y="157" on="0"/>
        <pt x="548" y="174" on="1"/>
        <pt x="548" y="446" on="1"/>
        <pt x="393" y="400" on="0"/>
        <pt x="305" y="366" on="0"/>
        <pt x="240" y="287" on="0"/>
      </contour>
      <contour>
        <pt x="180" y="766" on="0"/>
        <pt x="385" y="872" on="0"/>
        <pt x="569" y="872" on="0"/>
        <pt x="700" y="712" on="0"/>
        <pt x="700" y="598" on="1"/>
        <pt x="700" y="186" on="1"/>
        <pt x="700" y="92" on="0"/>
        <pt x="762" y="92" on="1"/>
        <pt x="797" y="92" on="0"/>
        <pt x="827" y="118" on="0"/>
        <pt x="836" y="118" on="0"/>
        <pt x="836" y="81" on="0"/>
        <pt x="826" y="64" on="1"/>
        <pt x="803" y="43" on="0"/>
        <pt x="704" y="-12" on="0"/>
        <pt x="634" y="-12" on="0"/>
        <pt x="564" y="69" on="0"/>
        <pt x="554" y="118" on="1"/>
        <pt x="525" y="89" on="0"/>
        <pt x="354" y="-16" on="0"/>
        <pt x="308" y="-16" on="1"/>
        <pt x="209" y="-16" on="0"/>
        <pt x="74" y="117" on="0"/>
        <pt x="74" y="214" on="1"/>
        <pt x="74" y="271" on="0"/>
        <pt x="137" y="360" on="0"/>
        <pt x="207" y="386" on="0"/>
        <pt x="294" y="416" on="1"/>
        <pt x="484" y="481" on="0"/>
        <pt x="539" y="506" on="0"/>
        <pt x="548" y="524" on="0"/>
        <pt x="548" y="550" on="1"/>
        <pt x="548" y="604" on="1"/>
        <pt x="548" y="675" on="0"/>
        <pt x="447" y="796" on="0"/>
        <pt x="326" y="796" on="0"/>
        <pt x="277" y="735" on="0"/>
        <pt x="266" y="672" on="1"/>
        <pt x="249" y="576" on="0"/>
        <pt x="172" y="576" on="1"/>
        <pt x="142" y="576" on="0"/>
        <pt x="104" y="628" on="0"/>
        <pt x="104" y="648" on="1"/>
        <pt x="104" y="688" on="0"/>
        <pt x="118" y="708" on="1"/>
      </contour>
    </TTGlyph>
    <TTGlyph name="aAlf.dagger" xMin="-111" yMin="873" xMax="99" yMax="1445">
      <component glyphName="uni0670" x="-313" y="-934" flags="0x1004"/>
    </TTGlyph>
    <TTGlyph name="aAlf.fina" xMin="86" yMin="0" xMax="511" yMax="1475">
      <contour>
        <pt x="157" y="1475" on="1"/>
        <pt x="179" y="1511" on="0"/>
        <pt x="188" y="1444" on="1"/>
        <pt x="226" y="1127" on="0"/>
        <pt x="237" y="901" on="1"/>
        <pt x="258" y="474" on="0"/>
        <pt x="265" y="386" on="1"/>
        <pt x="280" y="196" on="0"/>
        <pt x="470" y="185" on="1"/>
        <pt x="523" y="182" on="0"/>
        <pt x="511" y="110" on="1"/>
        <pt x="492" y="0" on="0"/>
        <pt x="470" y="0" on="1"/>
        <pt x="201" y="0" on="0"/>
        <pt x="182" y="249" on="1"/>
        <pt x="166" y="459" on="0"/>
        <pt x="154" y="884" on="0"/>
        <pt x="117" y="1147" on="0"/>
        <pt x="86" y="1316" on="1"/>
        <pt x="80" y="1349" on="0"/>
        <pt x="92" y="1369" on="1"/>
      </contour>
    </TTGlyph>
    <TTGlyph name="aAlf.fina.alt" xMin="136" yMin="-14" xMax="1673" yMax="1638">
      <contour>
        <pt x="344" y="1638" on="1"/>
        <pt x="373" y="1638" on="0"/>
        <pt x="369" y="1609" on="1"/>
        <pt x="353" y="1482" on="1"/>
        <pt x="349" y="1450" on="0"/>
        <pt x="321" y="1447" on="1"/>
        <pt x="253" y="1440" on="0"/>
        <pt x="206" y="1415" on="0"/>
        <pt x="200" y="1357" on="0"/>
        <pt x="200" y="1280" on="1"/>
        <pt x="203" y="717" on="0"/>
        <pt x="270" y="554" on="1"/>
        <pt x="399" y="243" on="0"/>
        <pt x="872" y="188" on="1"/>
        <pt x="1174" y="154" on="0"/>
        <pt x="1613" y="185" on="1"/>
        <pt x="1683" y="190" on="0"/>
        <pt x="1673" y="127" on="1"/>
        <pt x="1653" y="6" on="0"/>
        <pt x="1613" y="0" on="1"/>
        <pt x="1525" y="-15" on="0"/>
        <pt x="1166" y="-14" on="1"/>
        <pt x="498" y="-13" on="0"/>
        <pt x="289" y="227" on="1"/>
        <pt x="184" y="348" on="0"/>
        <pt x="154" y="608" on="1"/>
        <pt x="138" y="745" on="0"/>
        <pt x="136" y="821" on="1"/>
        <pt x="123" y="1314" on="0"/>
        <pt x="144" y="1464" on="1"/>
        <pt x="153" y="1527" on="0"/>
        <pt x="211" y="1594" on="1"/>
        <pt x="249" y="1637" on="0"/>
      </contour>
    </TTGlyph>
    <TTGlyph name="aAlf.fina_KafAlf" xMin="55" yMin="-22" xMax="468" yMax="1510">
      <contour>
        <pt x="385" y="192" on="1"/>
        <pt x="456" y="179" on="0"/>
        <pt x="468" y="65" on="1"/>
        <pt x="479" y="-31" on="0"/>
        <pt x="386" y="-22" on="1"/>
        <pt x="294" y="-14" on="0"/>
        <pt x="228" y="56" on="1"/>
        <pt x="117" y="170" on="0"/>
        <pt x="123" y="582" on="1"/>
        <pt x="126" y="810" on="0"/>
        <pt x="106" y="1002" on="1"/>
        <pt x="78" y="1258" on="0"/>
        <pt x="62" y="1325" on="1"/>
        <pt x="45" y="1400" on="0"/>
        <pt x="55" y="1416" on="1"/>
        <pt x="114" y="1510" on="1"/>
        <pt x="132" y="1539" on="0"/>
        <pt x="142" y="1505" on="1"/>
        <pt x="197" y="1303" on="0"/>
        <pt x="201" y="762" on="1"/>
        <pt x="204" y="375" on="0"/>
        <pt x="245" y="292" on="1"/>
        <pt x="285" y="209" on="0"/>
      </contour>
    </TTGlyph>
    <TTGlyph name="aAlf.fina_KafMemAlf" xMin="87" yMin="-145" xMax="424" yMax="1521">
      <contour>
        <pt x="235" y="778" on="1"/>
        <pt x="232" y="248" on="0"/>
        <pt x="393" y="67" on="1"/>
        <pt x="435" y="20" on="0"/>
        <pt x="413" y="-149" on="0"/>
        <pt x="371" y="-145" on="1"/>
        <pt x="341" y="-142" on="0"/>
        <pt x="303" y="-86" on="1"/>
        <pt x="208" y="55" on="0"/>
        <pt x="140" y="510" on="0"/>
        <pt x="141" y="800" on="1"/>
        <pt x="142" y="1077" on="0"/>
        <pt x="87" y="1380" on="1"/>
        <pt x="81" y="1414" on="0"/>
        <pt x="87" y="1423" on="1"/>
        <pt x="152" y="1521" on="1"/>
        <pt x="178" y="1560" on="0"/>
        <pt x="183" y="1510" on="1"/>
        <pt x="223" y="1212" on="0"/>
        <pt x="230" y="964" on="1"/>
      </contour>
    </TTGlyph>
    <TTGlyph name="aAlf.fina_LamAlfFina" xMin="130" yMin="283" xMax="936" yMax="1211">
      <contour>
        <pt x="936" y="406" on="1"/>
        <pt x="951" y="304" on="0"/>
        <pt x="904" y="263" on="0"/>
        <pt x="892" y="314" on="1"/>
        <pt x="813" y="609" on="0"/>
        <pt x="488" y="809" on="1"/>
        <pt x="457" y="827" on="0"/>
        <pt x="449" y="809" on="1"/>
        <pt x="429" y="768" on="1"/>
        <pt x="421" y="752" on="0"/>
        <pt x="392" y="746" on="0"/>
        <pt x="353" y="772" on="1"/>
        <pt x="174" y="895" on="1"/>
        <pt x="135" y="924" on="0"/>
        <pt x="134" y="958" on="1"/>
        <pt x="130" y="1176" on="1"/>
        <pt x="130" y="1197" on="0"/>
        <pt x="180" y="1224" on="0"/>
        <pt x="206" y="1211" on="1"/>
        <pt x="873" y="856" on="0"/>
      </contour>
    </TTGlyph>
    <TTGlyph name="aAlf.fina_LamAlfIsol" xMin="130" yMin="-60" xMax="1039" yMax="1454">
      <contour>
        <pt x="571" y="123" on="1"/>
        <pt x="866" y="93" on="0"/>
        <pt x="951" y="125" on="1"/>
        <pt x="930" y="324" on="0"/>
        <pt x="662" y="699" on="1"/>
        <pt x="469" y="970" on="0"/>
        <pt x="374" y="1060" on="1"/>
        <pt x="345" y="1007" on="1"/>
        <pt x="317" y="989" on="0"/>
        <pt x="295" y="1015" on="1"/>
        <pt x="154" y="1167" on="1"/>
        <pt x="124" y="1202" on="0"/>
        <pt x="130" y="1247" on="1"/>
        <pt x="157" y="1426" on="1"/>
        <pt x="161" y="1453" on="0"/>
        <pt x="176" y="1454" on="1"/>
        <pt x="218" y="1457" on="0"/>
        <pt x="406" y="1231" on="1"/>
        <pt x="594" y="1006" on="0"/>
        <pt x="730" y="800" on="1"/>
        <pt x="1020" y="360" on="0"/>
        <pt x="1039" y="86" on="1"/>
        <pt x="1046" y="-30" on="0"/>
        <pt x="978" y="-47" on="1"/>
        <pt x="788" y="-96" on="0"/>
        <pt x="562" y="-60" on="1"/>
        <pt x="538" y="-56" on="0"/>
        <pt x="532" y="-45" on="1"/>
        <pt x="496" y="44" on="0"/>
        <pt x="543" y="105" on="1"/>
        <pt x="558" y="125" on="0"/>
      </contour>
    </TTGlyph>
    <TTGlyph name="aAlf.fina_MemAlfFina" xMin="85" yMin="-235" xMax="448" yMax="1441">
      <contour>
        <pt x="271" y="-169" on="1"/>
        <pt x="252" y="-140" on="0"/>
        <pt x="227" y="2" on="0"/>
        <pt x="200" y="395" on="1"/>
        <pt x="152" y="1072" on="0"/>
        <pt x="85" y="1305" on="1"/>
        <pt x="78" y="1328" on="0"/>
        <pt x="85" y="1341" on="1"/>
        <pt x="141" y="1441" on="1"/>
        <pt x="155" y="1465" on="0"/>
        <pt x="164" y="1438" on="1"/>
        <pt x="210" y="1308" on="0"/>
        <pt x="286" y="504" on="0"/>
        <pt x="298" y="311" on="1"/>
        <pt x="319" y="-15" on="0"/>
        <pt x="497" y="-183" on="0"/>
        <pt x="448" y="-235" on="1"/>
        <pt x="366" y="-322" on="0"/>
      </contour>
    </TTGlyph>
    <TTGlyph name="aAlf.fina_Narrow" xMin="86" yMin="0" xMax="411" yMax="1475">
      <contour>
        <pt x="157" y="1475" on="1"/>
        <pt x="179" y="1511" on="0"/>
        <pt x="188" y="1444" on="1"/>
        <pt x="226" y="1127" on="0"/>
        <pt x="237" y="901" on="1"/>
        <pt x="258" y="474" on="0"/>
        <pt x="265" y="386" on="1"/>
        <pt x="281" y="190" on="0"/>
        <pt x="370" y="185" on="1"/>
        <pt x="423" y="182" on="0"/>
        <pt x="411" y="110" on="1"/>
        <pt x="392" y="0" on="0"/>
        <pt x="370" y="0" on="1"/>
        <pt x="201" y="0" on="0"/>
        <pt x="182" y="249" on="1"/>
        <pt x="166" y="459" on="0"/>
        <pt x="154" y="884" on="0"/>
        <pt x="117" y="1147" on="0"/>
        <pt x="86" y="1316" on="1"/>
        <pt x="80" y="1349" on="0"/>
        <pt x="92" y="1369" on="1"/>
      </contour>
    </TTGlyph>
    <TTGlyph name="aAlf.isol" xMin="134" yMin="2" xMax="275" yMax="1392">
      <contour>
        <pt x="190" y="1388" on="1"/>
        <pt x="220" y="1460" on="0"/>
        <pt x="228" y="1392" on="1"/>
        <pt x="228" y="1392" on="0"/>
        <pt x="275" y="874" on="1"/>
        <pt x="354" y="184" on="0"/>
        <pt x="266" y="14" on="1"/>
        <pt x="254" y="-9" on="0"/>
        <pt x="235" y="14" on="0"/>
        <pt x="236" y="36" on="1"/>
        <pt x="241" y="278" on="0"/>
        <pt x="204" y="568" on="0"/>
        <pt x="178" y="813" on="1"/>
        <pt x="134" y="1214" on="1"/>
        <pt x="130" y="1248" on="0"/>
        <pt x="145" y="1283" on="1"/>
      </contour>
    </TTGlyph>
    <TTGlyph name="aAyn.fina" xMin="142" yMin="-1128" xMax="1507" yMax="526">
      <contour>
        <pt x="856" y="526" on="1"/>
        <pt x="949" y="470" on="0"/>
        <pt x="940" y="366" on="0"/>
        <pt x="857" y="283" on="0"/>
        <pt x="808" y="260" on="1"/>
        <pt x="795" y="256" on="0"/>
        <pt x="811" y="246" on="1"/>
        <pt x="908" y="188" on="0"/>
        <pt x="1010" y="185" on="1"/>
        <pt x="1085" y="183" on="0"/>
        <pt x="1080" y="110" on="1"/>
        <pt x="1072" y="0" on="0"/>
        <pt x="1010" y="0" on="1"/>
        <pt x="865" y="0" on="0"/>
        <pt x="646" y="188" on="1"/>
        <pt x="635" y="197" on="0"/>
        <pt x="619" y="188" on="1"/>
        <pt x="221" y="-46" on="0"/>
        <pt x="206" y="-396" on="1"/>
        <pt x="189" y="-798" on="0"/>
        <pt x="646" y="-914" on="1"/>
        <pt x="905" y="-981" on="0"/>
        <pt x="1482" y="-933" on="1"/>
        <pt x="1504" y="-931" on="0"/>
        <pt x="1510" y="-954" on="0"/>
        <pt x="1489" y="-968" on="1"/>
        <pt x="1422" y="-1013" on="0"/>
        <pt x="1126" y="-1124" on="0"/>
        <pt x="1052" y="-1128" on="1"/>
        <pt x="769" y="-1145" on="0"/>
        <pt x="563" y="-1095" on="1"/>
        <pt x="60" y="-972" on="0"/>
        <pt x="142" y="-391" on="1"/>
        <pt x="192" y="-39" on="0"/>
        <pt x="447" y="210" on="1"/>
        <pt x="490" y="251" on="0"/>
        <pt x="526" y="279" on="0"/>
        <pt x="518" y="286" on="1"/>
        <pt x="465" y="331" on="0"/>
        <pt x="388" y="338" on="1"/>
        <pt x="330" y="343" on="0"/>
        <pt x="343" y="375" on="1"/>
        <pt x="382" y="472" on="0"/>
        <pt x="462" y="523" on="1"/>
        <pt x="657" y="647" on="0"/>
      </contour>
    </TTGlyph>
    <TTGlyph name="aAyn.init" xMin="-62" yMin="0" xMax="848" yMax="813">
      <contour>
        <pt x="848" y="515" on="1"/>
        <pt x="848" y="515" on="0"/>
        <pt x="806" y="351" on="1"/>
        <pt x="801" y="333" on="0"/>
        <pt x="771" y="322" on="1"/>
        <pt x="650" y="278" on="0"/>
        <pt x="471" y="204" on="1"/>
        <pt x="471" y="204" on="0"/>
        <pt x="0" y="0" on="1"/>
        <pt x="-45" y="0" on="0"/>
        <pt x="-78" y="151" on="0"/>
        <pt x="0" y="185" on="1"/>
        <pt x="10" y="189" on="0"/>
        <pt x="142" y="244" on="1"/>
        <pt x="48" y="325" on="0"/>
        <pt x="69" y="431" on="1"/>
        <pt x="122" y="700" on="0"/>
        <pt x="393" y="813" on="1"/>
        <pt x="443" y="834" on="0"/>
        <pt x="610" y="748" on="0"/>
        <pt x="671" y="678" on="1"/>
        <pt x="692" y="654" on="0"/>
        <pt x="663" y="616" on="0"/>
        <pt x="636" y="627" on="1"/>
        <pt x="516" y="676" on="0"/>
        <pt x="222" y="608" on="0"/>
        <pt x="186" y="522" on="1"/>
        <pt x="172" y="489" on="0"/>
        <pt x="290" y="384" on="0"/>
        <pt x="346" y="375" on="1"/>
        <pt x="510" y="350" on="0"/>
        <pt x="726" y="488" on="1"/>
        <pt x="770" y="516" on="0"/>
        <pt x="804" y="534" on="1"/>
        <pt x="861" y="567" on="0"/>
      </contour>
    </TTGlyph>
    <TTGlyph name="aAyn.init_AboveHaaIsol" xMin="-59" yMin="471" xMax="973" yMax="1251">
      <component glyphName="aAyn.init_AynHaaInit" x="0" y="0" flags="0x1004"/>
    </TTGlyph>
    <TTGlyph name="aAyn.init_AynHaaInit" xMin="-59" yMin="471" xMax="973" yMax="1251">
      <contour>
        <pt x="973" y="926" on="1"/>
        <pt x="988" y="909" on="0"/>
        <pt x="914" y="793" on="1"/>
        <pt x="902" y="774" on="0"/>
        <pt x="880" y="768" on="1"/>
        <pt x="328" y="617" on="0"/>
        <pt x="234" y="582" on="1"/>
        <pt x="-15" y="471" on="1"/>
        <pt x="-53" y="466" on="0"/>
        <pt x="-59" y="487" on="1"/>
        <pt x="-61" y="493" on="0"/>
        <pt x="-49" y="506" on="1"/>
        <pt x="27" y="597" on="0"/>
        <pt x="304" y="711" on="1"/>
        <pt x="231" y="768" on="0"/>
        <pt x="168" y="874" on="0"/>
        <pt x="241" y="1069" on="0"/>
        <pt x="465" y="1259" on="0"/>
        <pt x="559" y="1251" on="1"/>
        <pt x="696" y="1240" on="0"/>
        <pt x="782" y="1115" on="1"/>
        <pt x="793" y="1099" on="0"/>
        <pt x="778" y="1079" on="0"/>
        <pt x="764" y="1084" on="1"/>
        <pt x="642" y="1125" on="0"/>
        <pt x="558" y="1123" on="1"/>
        <pt x="370" y="1118" on="0"/>
        <pt x="289" y="993" on="1"/>
        <pt x="382" y="848" on="0"/>
        <pt x="519" y="836" on="1"/>
        <pt x="711" y="819" on="0"/>
        <pt x="954" y="930" on="1"/>
        <pt x="965" y="935" on="0"/>
      </contour>
    </TTGlyph>
    <TTGlyph name="aAyn.init_AynMemInit" xMin="-152" yMin="394" xMax="875" yMax="1094">
      <contour>
        <pt x="-139" y="460" on="1"/>
        <pt x="-97" y="496" on="0"/>
        <pt x="62" y="554" on="1"/>
        <pt x="169" y="592" on="0"/>
        <pt x="209" y="610" on="1"/>
        <pt x="117" y="672" on="0"/>
        <pt x="59" y="802" on="0"/>
        <pt x="139" y="998" on="0"/>
        <pt x="249" y="1094" on="1"/>
        <pt x="490" y="1304" on="0"/>
        <pt x="690" y="1045" on="1"/>
        <pt x="704" y="1027" on="0"/>
        <pt x="690" y="1015" on="1"/>
        <pt x="678" y="1004" on="0"/>
        <pt x="664" y="1009" on="1"/>
        <pt x="435" y="1084" on="0"/>
        <pt x="180" y="925" on="1"/>
        <pt x="164" y="915" on="0"/>
        <pt x="174" y="901" on="1"/>
        <pt x="279" y="759" on="0"/>
        <pt x="451" y="731" on="1"/>
        <pt x="550" y="715" on="0"/>
        <pt x="823" y="851" on="1"/>
        <pt x="851" y="865" on="0"/>
        <pt x="888" y="828" on="0"/>
        <pt x="875" y="808" on="1"/>
        <pt x="812" y="709" on="1"/>
        <pt x="798" y="687" on="0"/>
        <pt x="783" y="681" on="1"/>
        <pt x="698" y="647" on="0"/>
        <pt x="419" y="554" on="1"/>
        <pt x="-52" y="394" on="1"/>
        <pt x="-130" y="362" on="0"/>
        <pt x="-152" y="394" on="1"/>
        <pt x="-175" y="429" on="0"/>
      </contour>
    </TTGlyph>
    <TTGlyph name="aAyn.init_AynYaaIsol" xMin="-56" yMin="250" xMax="1091" yMax="1113">
      <contour>
        <pt x="1041" y="654" on="1"/>
        <pt x="1028" y="624" on="0"/>
        <pt x="1019" y="620" on="1"/>
        <pt x="873" y="558" on="0"/>
        <pt x="249" y="323" on="0"/>
        <pt x="139" y="272" on="1"/>
        <pt x="-54" y="184" on="0"/>
        <pt x="-56" y="250" on="1"/>
        <pt x="-56" y="314" on="0"/>
        <pt x="-1" y="346" on="1"/>
        <pt x="130" y="422" on="0"/>
        <pt x="379" y="519" on="1"/>
        <pt x="237" y="661" on="0"/>
        <pt x="255" y="739" on="1"/>
        <pt x="280" y="849" on="0"/>
        <pt x="535" y="1099" on="0"/>
        <pt x="628" y="1113" on="1"/>
        <pt x="681" y="1121" on="0"/>
        <pt x="876" y="1025" on="0"/>
        <pt x="925" y="972" on="1"/>
        <pt x="936" y="960" on="0"/>
        <pt x="924" y="940" on="0"/>
        <pt x="909" y="945" on="1"/>
        <pt x="594" y="1032" on="0"/>
        <pt x="386" y="825" on="1"/>
        <pt x="379" y="817" on="0"/>
        <pt x="390" y="799" on="1"/>
        <pt x="461" y="686" on="0"/>
        <pt x="657" y="650" on="1"/>
        <pt x="744" y="635" on="0"/>
        <pt x="992" y="764" on="1"/>
        <pt x="1114" y="828" on="0"/>
        <pt x="1091" y="771" on="1"/>
      </contour>
    </TTGlyph>
    <TTGlyph name="aAyn.init_Finjani" xMin="-43" yMin="0" xMax="691" yMax="784">
      <contour>
        <pt x="691" y="334" on="1"/>
        <pt x="634" y="211" on="1"/>
        <pt x="623" y="187" on="0"/>
        <pt x="609" y="177" on="1"/>
        <pt x="485" y="89" on="0"/>
        <pt x="291" y="36" on="1"/>
        <pt x="105" y="-15" on="0"/>
        <pt x="0" y="0" on="1"/>
        <pt x="-51" y="8" on="0"/>
        <pt x="-43" y="98" on="1"/>
        <pt x="-35" y="190" on="0"/>
        <pt x="0" y="185" on="1"/>
        <pt x="31" y="181" on="0"/>
        <pt x="60" y="185" on="1"/>
        <pt x="3" y="259" on="0"/>
        <pt x="-6" y="355" on="1"/>
        <pt x="-24" y="537" on="0"/>
        <pt x="86" y="644" on="1"/>
        <pt x="206" y="761" on="0"/>
        <pt x="321" y="784" on="1"/>
        <pt x="435" y="806" on="0"/>
        <pt x="616" y="647" on="1"/>
        <pt x="640" y="626" on="0"/>
        <pt x="624" y="600" on="1"/>
        <pt x="608" y="576" on="0"/>
        <pt x="581" y="587" on="1"/>
        <pt x="390" y="662" on="0"/>
        <pt x="194" y="591" on="1"/>
        <pt x="110" y="561" on="0"/>
        <pt x="94" y="516" on="1"/>
        <pt x="78" y="470" on="0"/>
        <pt x="148" y="360" on="1"/>
        <pt x="221" y="246" on="0"/>
        <pt x="278" y="234" on="1"/>
        <pt x="410" y="207" on="0"/>
        <pt x="538" y="291" on="1"/>
        <pt x="599" y="331" on="1"/>
        <pt x="668" y="376" on="0"/>
        <pt x="684" y="360" on="1"/>
        <pt x="697" y="347" on="0"/>
      </contour>
    </TTGlyph>
    <TTGlyph name="aAyn.init_YaaBarree" xMin="-87" yMin="177" xMax="1031" yMax="1183">
      <contour>
        <pt x="568" y="1183" on="1"/>
        <pt x="622" y="1190" on="0"/>
        <pt x="816" y="1095" on="0"/>
        <pt x="865" y="1042" on="1"/>
        <pt x="876" y="1030" on="0"/>
        <pt x="865" y="1011" on="0"/>
        <pt x="849" y="1015" on="1"/>
        <pt x="530" y="1099" on="0"/>
        <pt x="326" y="895" on="1"/>
        <pt x="319" y="887" on="0"/>
        <pt x="330" y="869" on="1"/>
        <pt x="403" y="753" on="0"/>
        <pt x="597" y="720" on="1"/>
        <pt x="684" y="705" on="0"/>
        <pt x="932" y="834" on="1"/>
        <pt x="1054" y="898" on="0"/>
        <pt x="1031" y="841" on="1"/>
        <pt x="981" y="724" on="1"/>
        <pt x="968" y="694" on="0"/>
        <pt x="943" y="682" on="0"/>
        <pt x="846" y="646" on="1"/>
        <pt x="186" y="395" on="0"/>
        <pt x="11" y="238" on="1"/>
        <pt x="-67" y="167" on="0"/>
        <pt x="-98" y="187" on="0"/>
        <pt x="-87" y="211" on="1"/>
        <pt x="13" y="418" on="0"/>
        <pt x="375" y="594" on="1"/>
        <pt x="287" y="637" on="0"/>
        <pt x="185" y="755" on="0"/>
        <pt x="195" y="809" on="1"/>
        <pt x="220" y="919" on="0"/>
        <pt x="477" y="1171" on="0"/>
      </contour>
    </TTGlyph>
    <TTGlyph name="aAyn.isol" xMin="131" yMin="-947" xMax="1484" yMax="940">
      <contour>
        <pt x="445" y="940" on="1"/>
        <pt x="505" y="969" on="0"/>
        <pt x="674" y="870" on="0"/>
        <pt x="709" y="820" on="1"/>
        <pt x="731" y="789" on="0"/>
        <pt x="682" y="799" on="1"/>
        <pt x="426" y="850" on="0"/>
        <pt x="246" y="622" on="1"/>
        <pt x="237" y="610" on="0"/>
        <pt x="251" y="596" on="1"/>
        <pt x="394" y="464" on="0"/>
        <pt x="588" y="485" on="1"/>
        <pt x="621" y="489" on="0"/>
        <pt x="684" y="527" on="1"/>
        <pt x="923" y="675" on="0"/>
        <pt x="954" y="690" on="1"/>
        <pt x="992" y="708" on="0"/>
        <pt x="973" y="655" on="1"/>
        <pt x="927" y="525" on="0"/>
        <pt x="901" y="513" on="1"/>
        <pt x="735" y="439" on="0"/>
        <pt x="495" y="263" on="1"/>
        <pt x="229" y="68" on="0"/>
        <pt x="192" y="-268" on="1"/>
        <pt x="173" y="-444" on="0"/>
        <pt x="279" y="-579" on="1"/>
        <pt x="447" y="-792" on="0"/>
        <pt x="1039" y="-772" on="1"/>
        <pt x="1199" y="-767" on="0"/>
        <pt x="1458" y="-720" on="1"/>
        <pt x="1480" y="-716" on="0"/>
        <pt x="1484" y="-728" on="1"/>
        <pt x="1494" y="-759" on="0"/>
        <pt x="1262" y="-875" on="1"/>
        <pt x="1132" y="-940" on="0"/>
        <pt x="1060" y="-947" on="1"/>
        <pt x="759" y="-978" on="0"/>
        <pt x="566" y="-934" on="1"/>
        <pt x="116" y="-832" on="0"/>
        <pt x="146" y="74" on="0"/>
        <pt x="405" y="327" on="1"/>
        <pt x="244" y="391" on="0"/>
        <pt x="193" y="462" on="1"/>
        <pt x="172" y="491" on="0"/>
        <pt x="175" y="527" on="1"/>
        <pt x="183" y="623" on="0"/>
        <pt x="226" y="702" on="1"/>
        <pt x="320" y="879" on="0"/>
      </contour>
    </TTGlyph>
    <TTGlyph name="aAyn.medi" xMin="-63" yMin="0" xMax="812" yMax="528">
      <contour>
        <pt x="750" y="185" on="1"/>
        <pt x="822" y="185" on="0"/>
        <pt x="812" y="112" on="1"/>
        <pt x="796" y="3" on="0"/>
        <pt x="750" y="0" on="1"/>
        <pt x="562" y="-13" on="0"/>
        <pt x="371" y="210" on="1"/>
        <pt x="117" y="-2" on="0"/>
        <pt x="0" y="0" on="1"/>
        <pt x="-49" y="1" on="0"/>
        <pt x="-63" y="78" on="1"/>
        <pt x="-81" y="182" on="0"/>
        <pt x="0" y="185" on="1"/>
        <pt x="127" y="190" on="0"/>
        <pt x="242" y="269" on="1"/>
        <pt x="176" y="334" on="0"/>
        <pt x="56" y="351" on="1"/>
        <pt x="42" y="353" on="0"/>
        <pt x="46" y="373" on="1"/>
        <pt x="56" y="437" on="0"/>
        <pt x="152" y="519" on="1"/>
        <pt x="328" y="661" on="0"/>
        <pt x="547" y="528" on="1"/>
        <pt x="651" y="465" on="0"/>
        <pt x="641" y="345" on="0"/>
        <pt x="502" y="258" on="1"/>
        <pt x="575" y="185" on="0"/>
      </contour>
    </TTGlyph>
    <TTGlyph name="aAyn.medi_AynYaaFina" xMin="-62" yMin="-47" xMax="889" yMax="530">
      <contour>
        <pt x="192" y="354" on="1"/>
        <pt x="210" y="469" on="0"/>
        <pt x="287" y="517" on="1"/>
        <pt x="485" y="640" on="0"/>
        <pt x="651" y="530" on="1"/>
        <pt x="737" y="473" on="0"/>
        <pt x="761" y="408" on="1"/>
        <pt x="769" y="386" on="0"/>
        <pt x="734" y="298" on="0"/>
        <pt x="658" y="242" on="1"/>
        <pt x="745" y="186" on="0"/>
        <pt x="841" y="185" on="1"/>
        <pt x="897" y="185" on="0"/>
        <pt x="889" y="118" on="1"/>
        <pt x="874" y="0" on="0"/>
        <pt x="841" y="0" on="1"/>
        <pt x="724" y="0" on="0"/>
        <pt x="508" y="151" on="1"/>
        <pt x="499" y="157" on="0"/>
        <pt x="481" y="152" on="1"/>
        <pt x="164" y="50" on="0"/>
        <pt x="11" y="-47" on="1"/>
        <pt x="-20" y="-66" on="0"/>
        <pt x="-42" y="-40" on="1"/>
        <pt x="-69" y="-7" on="0"/>
        <pt x="-62" y="32" on="1"/>
        <pt x="-57" y="58" on="0"/>
        <pt x="-38" y="76" on="1"/>
        <pt x="29" y="138" on="0"/>
        <pt x="356" y="255" on="1"/>
        <pt x="275" y="311" on="0"/>
        <pt x="212" y="324" on="1"/>
        <pt x="188" y="329" on="0"/>
      </contour>
    </TTGlyph>
    <TTGlyph name="aBaa.fina" xMin="151" yMin="-162" xMax="1856" yMax="525">
      <contour>
        <pt x="245" y="520" on="1"/>
        <pt x="261" y="540" on="0"/>
        <pt x="293" y="509" on="0"/>
        <pt x="277" y="487" on="1"/>
        <pt x="204" y="385" on="0"/>
        <pt x="220" y="316" on="1"/>
        <pt x="288" y="30" on="0"/>
        <pt x="840" y="46" on="1"/>
        <pt x="1212" y="57" on="0"/>
        <pt x="1526" y="186" on="1"/>
        <pt x="1590" y="212" on="0"/>
        <pt x="1610" y="308" on="1"/>
        <pt x="1616" y="337" on="0"/>
        <pt x="1647" y="334" on="1"/>
        <pt x="1669" y="332" on="0"/>
        <pt x="1670" y="290" on="1"/>
        <pt x="1672" y="193" on="0"/>
        <pt x="1810" y="185" on="1"/>
        <pt x="1863" y="182" on="0"/>
        <pt x="1856" y="119" on="1"/>
        <pt x="1843" y="0" on="0"/>
        <pt x="1810" y="0" on="1"/>
        <pt x="1719" y="0" on="0"/>
        <pt x="1644" y="94" on="1"/>
        <pt x="1640" y="99" on="0"/>
        <pt x="1618" y="84" on="1"/>
        <pt x="1251" y="-161" on="0"/>
        <pt x="248" y="-163" on="0"/>
        <pt x="151" y="83" on="1"/>
        <pt x="104" y="203" on="0"/>
        <pt x="198" y="461" on="0"/>
      </contour>
    </TTGlyph>
    <TTGlyph name="aBaa.fina_BaaBaaIsol" xMin="130" yMin="-117" xMax="1614" yMax="520">
      <contour>
        <pt x="1594" y="270" on="1"/>
        <pt x="1601" y="265" on="0"/>
        <pt x="1608" y="260" on="1"/>
        <pt x="1652" y="229" on="0"/>
        <pt x="1614" y="134" on="1"/>
        <pt x="1588" y="70" on="0"/>
        <pt x="1563" y="85" on="1"/>
        <pt x="1548" y="94" on="0"/>
        <pt x="1543" y="89" on="1"/>
        <pt x="1239" y="-123" on="0"/>
        <pt x="673" y="-117" on="1"/>
        <pt x="191" y="-112" on="0"/>
        <pt x="130" y="141" on="1"/>
        <pt x="104" y="246" on="0"/>
        <pt x="136" y="350" on="1"/>
        <pt x="166" y="450" on="0"/>
        <pt x="224" y="513" on="1"/>
        <pt x="233" y="523" on="0"/>
        <pt x="258" y="517" on="0"/>
        <pt x="265" y="496" on="0"/>
        <pt x="255" y="482" on="1"/>
        <pt x="186" y="396" on="0"/>
        <pt x="198" y="314" on="1"/>
        <pt x="231" y="82" on="0"/>
        <pt x="781" y="79" on="1"/>
        <pt x="1049" y="78" on="0"/>
        <pt x="1302" y="145" on="1"/>
        <pt x="1434" y="180" on="0"/>
        <pt x="1480" y="216" on="1"/>
        <pt x="1522" y="250" on="0"/>
        <pt x="1549" y="341" on="1"/>
        <pt x="1554" y="358" on="0"/>
        <pt x="1584" y="368" on="0"/>
        <pt x="1609" y="344" on="0"/>
        <pt x="1606" y="319" on="1"/>
      </contour>
    </TTGlyph>
    <TTGlyph name="aBaa.init" xMin="-43" yMin="0" xMax="248" yMax="561">
      <contour>
        <pt x="122" y="433" on="1"/>
        <pt x="180" y="560" on="1"/>
        <pt x="198" y="599" on="0"/>
        <pt x="218" y="561" on="1"/>
        <pt x="299" y="412" on="0"/>
        <pt x="248" y="201" on="1"/>
        <pt x="199" y="0" on="0"/>
        <pt x="0" y="0" on="1"/>
        <pt x="-22" y="0" on="0"/>
        <pt x="-43" y="104" on="1"/>
        <pt x="-59" y="187" on="0"/>
        <pt x="0" y="185" on="1"/>
        <pt x="121" y="180" on="0"/>
        <pt x="182" y="250" on="1"/>
        <pt x="185" y="254" on="0"/>
        <pt x="183" y="264" on="1"/>
        <pt x="171" y="323" on="0"/>
        <pt x="128" y="383" on="1"/>
        <pt x="110" y="408" on="0"/>
      </contour>
    </TTGlyph>
    <TTGlyph name="aBaa.init_AboveHaaIsol" xMin="-32" yMin="438" xMax="814" yMax="1157">
      <contour>
        <pt x="-32" y="443" on="1"/>
        <pt x="12" y="497" on="0"/>
        <pt x="114" y="554" on="1"/>
        <pt x="352" y="689" on="0"/>
        <pt x="509" y="847" on="0"/>
        <pt x="584" y="1045" on="0"/>
        <pt x="645" y="1157" on="0"/>
        <pt x="690" y="1157" on="1"/>
        <pt x="734" y="1157" on="0"/>
        <pt x="770" y="1101" on="1"/>
        <pt x="825" y="1015" on="0"/>
        <pt x="814" y="733" on="1"/>
        <pt x="813" y="706" on="0"/>
        <pt x="771" y="707" on="0"/>
        <pt x="767" y="735" on="1"/>
        <pt x="741" y="961" on="0"/>
        <pt x="664" y="960" on="1"/>
        <pt x="641" y="959" on="0"/>
        <pt x="607" y="910" on="0"/>
        <pt x="568" y="832" on="1"/>
        <pt x="472" y="635" on="0"/>
        <pt x="206" y="487" on="1"/>
        <pt x="205" y="486" on="0"/>
        <pt x="43" y="390" on="0"/>
      </contour>
    </TTGlyph>
    <TTGlyph name="aBaa.init_BaaBaaHaaInit" xMin="-41" yMin="566" xMax="193" yMax="920">
      <contour>
        <pt x="-4" y="566" on="1"/>
        <pt x="-34" y="565" on="0"/>
        <pt x="-48" y="656" on="0"/>
        <pt x="-6" y="743" on="0"/>
        <pt x="35" y="746" on="1"/>
        <pt x="134" y="753" on="0"/>
        <pt x="154" y="895" on="1"/>
        <pt x="156" y="914" on="0"/>
        <pt x="179" y="926" on="0"/>
        <pt x="189" y="918" on="1"/>
        <pt x="208" y="902" on="0"/>
        <pt x="193" y="810" on="1"/>
        <pt x="151" y="569" on="0"/>
      </contour>
    </TTGlyph>
    <TTGlyph name="aBaa.init_BaaBaaIsol" xMin="-74" yMin="9" xMax="379" yMax="396">
      <contour>
        <pt x="-50" y="107" on="1"/>
        <pt x="-106" y="143" on="0"/>
        <pt x="-74" y="224" on="1"/>
        <pt x="-29" y="303" on="0"/>
        <pt x="2" y="279" on="1"/>
        <pt x="154" y="164" on="0"/>
        <pt x="309" y="166" on="1"/>
        <pt x="316" y="166" on="0"/>
        <pt x="316" y="175" on="1"/>
        <pt x="316" y="185" on="0"/>
        <pt x="284" y="221" on="1"/>
        <pt x="277" y="229" on="0"/>
        <pt x="281" y="241" on="1"/>
        <pt x="281" y="241" on="0"/>
        <pt x="329" y="383" on="1"/>
        <pt x="333" y="396" on="0"/>
        <pt x="351" y="396" on="0"/>
        <pt x="355" y="386" on="1"/>
        <pt x="391" y="295" on="0"/>
        <pt x="379" y="202" on="1"/>
        <pt x="363" y="82" on="0"/>
        <pt x="318" y="41" on="1"/>
        <pt x="287" y="13" on="0"/>
        <pt x="263" y="9" on="1"/>
        <pt x="130" y="-13" on="0"/>
      </contour>
    </TTGlyph>
    <TTGlyph name="aBaa.init_BaaBaaMemInit" xMin="-46" yMin="503" xMax="203" yMax="844">
      <contour>
        <pt x="-42" y="505" on="0"/>
        <pt x="-50" y="545" on="0"/>
        <pt x="-15" y="684" on="0"/>
        <pt x="68" y="684" on="0"/>
        <pt x="138" y="764" on="0"/>
        <pt x="159" y="825" on="1"/>
        <pt x="168" y="852" on="0"/>
        <pt x="208" y="836" on="0"/>
        <pt x="203" y="810" on="1"/>
        <pt x="169" y="655" on="0"/>
        <pt x="130" y="593" on="1"/>
        <pt x="70" y="496" on="0"/>
        <pt x="-20" y="503" on="1"/>
      </contour>
    </TTGlyph>
    <TTGlyph name="aBaa.init_BaaBaaYaaIsol" xMin="-56" yMin="278" xMax="217" yMax="651">
      <contour>
        <pt x="164" y="624" on="1"/>
        <pt x="169" y="645" on="0"/>
        <pt x="197" y="657" on="0"/>
        <pt x="221" y="635" on="0"/>
        <pt x="217" y="612" on="1"/>
        <pt x="155" y="292" on="0"/>
        <pt x="-6" y="278" on="1"/>
        <pt x="-60" y="274" on="0"/>
        <pt x="-51" y="460" on="0"/>
        <pt x="11" y="464" on="1"/>
        <pt x="115" y="471" on="0"/>
      </contour>
    </TTGlyph>
    <TTGlyph name="aBaa.init_BaaDalIsol" xMin="-95" yMin="7" xMax="220" yMax="577">
      <contour>
        <pt x="142" y="310" on="1"/>
        <pt x="116" y="354" on="0"/>
        <pt x="78" y="392" on="0"/>
        <pt x="86" y="422" on="1"/>
        <pt x="129" y="577" on="1"/>
        <pt x="139" y="612" on="0"/>
        <pt x="164" y="573" on="1"/>
        <pt x="202" y="514" on="0"/>
        <pt x="218" y="399" on="1"/>
        <pt x="232" y="290" on="0"/>
        <pt x="207" y="106" on="0"/>
        <pt x="145" y="16" on="0"/>
        <pt x="-11" y="-1" on="0"/>
        <pt x="-125" y="97" on="0"/>
        <pt x="-95" y="177" on="1"/>
        <pt x="-68" y="249" on="0"/>
        <pt x="-15" y="232" on="1"/>
        <pt x="104" y="192" on="0"/>
        <pt x="165" y="249" on="1"/>
        <pt x="173" y="258" on="0"/>
      </contour>
    </TTGlyph>
    <TTGlyph name="aBaa.init_BaaHaaInit" xMin="-25" yMin="467" xMax="878" yMax="1130">
      <contour>
        <pt x="878" y="736" on="1"/>
        <pt x="879" y="717" on="0"/>
        <pt x="856" y="701" on="0"/>
        <pt x="833" y="714" on="0"/>
        <pt x="831" y="732" on="1"/>
        <pt x="808" y="887" on="0"/>
        <pt x="763" y="924" on="1"/>
        <pt x="733" y="949" on="0"/>
        <pt x="709" y="918" on="1"/>
        <pt x="471" y="605" on="0"/>
        <pt x="241" y="489" on="1"/>
        <pt x="157" y="446" on="0"/>
        <pt x="32" y="467" on="1"/>
        <pt x="-61" y="484" on="0"/>
        <pt x="-25" y="518" on="1"/>
        <pt x="-3" y="540" on="0"/>
        <pt x="42" y="557" on="1"/>
        <pt x="267" y="643" on="0"/>
        <pt x="430" y="744" on="1"/>
        <pt x="578" y="835" on="0"/>
        <pt x="646" y="999" on="1"/>
        <pt x="700" y="1129" on="0"/>
        <pt x="753" y="1130" on="1"/>
        <pt x="857" y="1132" on="0"/>
      </contour>
    </TTGlyph>
    <TTGlyph name="aBaa.init_BaaHaaMemInit" xMin="-526" yMin="814" xMax="364" yMax="1266">
      <contour>
        <pt x="260" y="1266" on="1"/>
        <pt x="364" y="1270" on="0"/>
        <pt x="364" y="1123" on="1"/>
        <pt x="364" y="999" on="0"/>
        <pt x="322" y="840" on="1"/>
        <pt x="320" y="830" on="0"/>
        <pt x="296" y="819" on="0"/>
        <pt x="274" y="840" on="0"/>
        <pt x="280" y="871" on="1"/>
        <pt x="308" y="1059" on="0"/>
        <pt x="186" y="1062" on="1"/>
        <pt x="162" y="1063" on="0"/>
        <pt x="104" y="1017" on="1"/>
        <pt x="-101" y="855" on="0"/>
        <pt x="-236" y="814" on="1"/>
        <pt x="-592" y="704" on="0"/>
        <pt x="-526" y="844" on="1"/>
        <pt x="-522" y="851" on="0"/>
        <pt x="-428" y="876" on="1"/>
        <pt x="-167" y="945" on="0"/>
        <pt x="-38" y="1024" on="1"/>
        <pt x="35" y="1069" on="0"/>
        <pt x="87" y="1129" on="1"/>
        <pt x="205" y="1265" on="0"/>
      </contour>
    </TTGlyph>
    <TTGlyph name="aBaa.init_BaaHehInit" xMin="-43" yMin="-72" xMax="660" yMax="364">
      <contour>
        <pt x="542" y="128" on="1"/>
        <pt x="497" y="223" on="0"/>
        <pt x="389" y="213" on="1"/>
        <pt x="273" y="202" on="0"/>
        <pt x="168" y="147" on="1"/>
        <pt x="74" y="98" on="0"/>
        <pt x="-1" y="-49" on="1"/>
        <pt x="-21" y="-86" on="0"/>
        <pt x="-57" y="-58" on="0"/>
        <pt x="-43" y="-30" on="1"/>
        <pt x="-10" y="38" on="0"/>
        <pt x="1" y="53" on="1"/>
        <pt x="118" y="239" on="0"/>
        <pt x="263" y="318" on="1"/>
        <pt x="450" y="419" on="0"/>
        <pt x="588" y="364" on="1"/>
        <pt x="658" y="336" on="0"/>
        <pt x="660" y="276" on="1"/>
        <pt x="663" y="196" on="0"/>
        <pt x="598" y="133" on="1"/>
        <pt x="559" y="95" on="0"/>
      </contour>
    </TTGlyph>
    <TTGlyph name="aBaa.init_BaaMemHaaInit" xMin="-144" yMin="709" xMax="336" yMax="1350">
      <contour>
        <pt x="150" y="1350" on="1"/>
        <pt x="256" y="1366" on="0"/>
        <pt x="336" y="1277" on="1"/>
        <pt x="348" y="1263" on="0"/>
        <pt x="296" y="1115" on="1"/>
        <pt x="283" y="1078" on="0"/>
        <pt x="259" y="1098" on="1"/>
        <pt x="176" y="1171" on="0"/>
        <pt x="27" y="1161" on="0"/>
        <pt x="-54" y="1081" on="1"/>
        <pt x="-66" y="1069" on="0"/>
        <pt x="-60" y="1048" on="1"/>
        <pt x="-2" y="846" on="0"/>
        <pt x="132" y="803" on="1"/>
        <pt x="167" y="792" on="0"/>
        <pt x="126" y="761" on="1"/>
        <pt x="59" y="708" on="0"/>
        <pt x="-92" y="710" on="0"/>
        <pt x="-113" y="769" on="1"/>
        <pt x="-144" y="856" on="0"/>
        <pt x="-144" y="946" on="1"/>
        <pt x="-144" y="1144" on="0"/>
        <pt x="10" y="1276" on="1"/>
        <pt x="86" y="1340" on="0"/>
      </contour>
    </TTGlyph>
    <TTGlyph name="aBaa.init_BaaMemInit" xMin="-161" yMin="414" xMax="392" yMax="973">
      <contour>
        <pt x="-78" y="493" on="1"/>
        <pt x="-63" y="434" on="0"/>
        <pt x="-112" y="414" on="1"/>
        <pt x="-159" y="394" on="0"/>
        <pt x="-161" y="456" on="1"/>
        <pt x="-165" y="547" on="0"/>
        <pt x="-137" y="627" on="1"/>
        <pt x="-27" y="941" on="0"/>
        <pt x="187" y="973" on="1"/>
        <pt x="291" y="989" on="0"/>
        <pt x="372" y="906" on="1"/>
        <pt x="398" y="879" on="0"/>
        <pt x="392" y="857" on="1"/>
        <pt x="367" y="766" on="0"/>
        <pt x="335" y="717" on="1"/>
        <pt x="323" y="699" on="0"/>
        <pt x="306" y="714" on="1"/>
        <pt x="184" y="822" on="0"/>
        <pt x="76" y="762" on="1"/>
        <pt x="-59" y="687" on="0"/>
        <pt x="-78" y="610" on="1"/>
        <pt x="-93" y="550" on="0"/>
      </contour>
    </TTGlyph>
    <TTGlyph name="aBaa.init_BaaMemIsol" xMin="-107" yMin="377" xMax="671" yMax="717">
      <contour>
        <pt x="671" y="564" on="1"/>
        <pt x="648" y="520" on="0"/>
        <pt x="613" y="474" on="1"/>
        <pt x="552" y="395" on="0"/>
        <pt x="533" y="459" on="1"/>
        <pt x="515" y="524" on="0"/>
        <pt x="438" y="532" on="1"/>
        <pt x="304" y="545" on="0"/>
        <pt x="15" y="377" on="1"/>
        <pt x="-70" y="328" on="0"/>
        <pt x="-103" y="384" on="1"/>
        <pt x="-115" y="404" on="0"/>
        <pt x="-107" y="412" on="1"/>
        <pt x="-73" y="447" on="0"/>
        <pt x="53" y="527" on="1"/>
        <pt x="354" y="719" on="0"/>
        <pt x="520" y="717" on="1"/>
        <pt x="592" y="717" on="0"/>
        <pt x="705" y="631" on="0"/>
      </contour>
    </TTGlyph>
    <TTGlyph name="aBaa.init_BaaNonIsol" xMin="-101" yMin="302" xMax="250" yMax="687">
      <component glyphName="aBaa.init_BaaRaaIsol" x="-21" y="149" flags="0x1004"/>
    </TTGlyph>
    <TTGlyph name="aBaa.init_BaaRaaIsol" xMin="-80" yMin="153" xMax="271" yMax="538">
      <contour>
        <pt x="225" y="537" on="0"/>
        <pt x="268" y="539" on="0"/>
        <pt x="271" y="514" on="1"/>
        <pt x="287" y="364" on="0"/>
        <pt x="193" y="172" on="0"/>
        <pt x="76" y="153" on="1"/>
        <pt x="-7" y="139" on="0"/>
        <pt x="-64" y="168" on="1"/>
        <pt x="-89" y="181" on="0"/>
        <pt x="-80" y="233" on="1"/>
        <pt x="-80" y="233" on="0"/>
        <pt x="-49" y="389" on="1"/>
        <pt x="-39" y="440" on="0"/>
        <pt x="15" y="362" on="0"/>
        <pt x="136" y="349" on="0"/>
        <pt x="228" y="431" on="0"/>
        <pt x="226" y="512" on="1"/>
      </contour>
    </TTGlyph>
    <TTGlyph name="aBaa.init_BaaSenAltInit" xMin="-28" yMin="-7" xMax="319" yMax="892">
      <component glyphName="aBaa.init_BaaSenInit" x="0" y="-138" flags="0x1004"/>
    </TTGlyph>
    <TTGlyph name="aBaa.init_BaaSenInit" xMin="-28" yMin="131" xMax="319" yMax="1030">
      <contour>
        <pt x="180" y="1018" on="1"/>
        <pt x="362" y="604" on="0"/>
        <pt x="319" y="278" on="1"/>
        <pt x="314" y="231" on="0"/>
        <pt x="270" y="131" on="0"/>
        <pt x="236" y="131" on="1"/>
        <pt x="132" y="132" on="0"/>
        <pt x="0" y="312" on="1"/>
        <pt x="-17" y="334" on="0"/>
        <pt x="-32" y="426" on="0"/>
        <pt x="-23" y="507" on="0"/>
        <pt x="-6" y="507" on="1"/>
        <pt x="3" y="507" on="0"/>
        <pt x="12" y="488" on="1"/>
        <pt x="78" y="344" on="0"/>
        <pt x="249" y="289" on="1"/>
        <pt x="263" y="285" on="0"/>
        <pt x="263" y="309" on="1"/>
        <pt x="262" y="504" on="0"/>
        <pt x="118" y="790" on="1"/>
        <pt x="111" y="802" on="0"/>
        <pt x="132" y="944" on="0"/>
        <pt x="154" y="1019" on="1"/>
        <pt x="157" y="1030" on="0"/>
        <pt x="174" y="1030" on="0"/>
      </contour>
    </TTGlyph>
    <TTGlyph name="aBaa.init_BaaYaaIsol" xMin="-107" yMin="133" xMax="319" yMax="974">
      <contour>
        <pt x="135" y="959" on="1"/>
        <pt x="147" y="995" on="0"/>
        <pt x="169" y="974" on="1"/>
        <pt x="215" y="931" on="0"/>
        <pt x="303" y="743" on="0"/>
        <pt x="335" y="547" on="0"/>
        <pt x="280" y="343" on="0"/>
        <pt x="219" y="275" on="1"/>
        <pt x="100" y="140" on="0"/>
        <pt x="-98" y="133" on="1"/>
        <pt x="-118" y="132" on="0"/>
        <pt x="-107" y="152" on="1"/>
        <pt x="-50" y="268" on="1"/>
        <pt x="-47" y="271" on="0"/>
        <pt x="1" y="281" on="1"/>
        <pt x="163" y="315" on="0"/>
        <pt x="259" y="421" on="1"/>
        <pt x="265" y="527" on="0"/>
        <pt x="157" y="706" on="0"/>
        <pt x="92" y="757" on="1"/>
        <pt x="73" y="772" on="0"/>
        <pt x="83" y="802" on="1"/>
      </contour>
    </TTGlyph>
    <TTGlyph name="aBaa.init_High" xMin="-26" yMin="0" xMax="172" yMax="522">
      <contour>
        <pt x="100" y="513" on="1"/>
        <pt x="109" y="543" on="0"/>
        <pt x="127" y="522" on="1"/>
        <pt x="158" y="484" on="0"/>
        <pt x="186" y="287" on="0"/>
        <pt x="171" y="214" on="1"/>
        <pt x="132" y="22" on="0"/>
        <pt x="0" y="0" on="1"/>
        <pt x="-26" y="-4" on="0"/>
        <pt x="-26" y="188" on="0"/>
        <pt x="0" y="185" on="1"/>
        <pt x="45" y="178" on="0"/>
        <pt x="108" y="190" on="1"/>
        <pt x="92" y="277" on="0"/>
        <pt x="52" y="347" on="0"/>
        <pt x="56" y="363" on="1"/>
      </contour>
    </TTGlyph>
    <TTGlyph name="aBaa.init_Tatweel" xMin="-55" yMin="0" xMax="457" yMax="533">
      <contour>
        <pt x="317" y="405" on="1"/>
        <pt x="375" y="532" on="1"/>
        <pt x="392" y="569" on="0"/>
        <pt x="413" y="533" on="1"/>
        <pt x="463" y="449" on="0"/>
        <pt x="457" y="270" on="1"/>
        <pt x="454" y="184" on="0"/>
        <pt x="405" y="119" on="1"/>
        <pt x="305" y="-17" on="0"/>
        <pt x="0" y="0" on="1"/>
        <pt x="-38" y="2" on="0"/>
        <pt x="-55" y="138" on="1"/>
        <pt x="-65" y="197" on="0"/>
        <pt x="0" y="184" on="1"/>
        <pt x="63" y="172" on="0"/>
        <pt x="151" y="180" on="1"/>
        <pt x="238" y="188" on="0"/>
        <pt x="377" y="240" on="1"/>
        <pt x="356" y="312" on="0"/>
        <pt x="323" y="355" on="1"/>
        <pt x="305" y="378" on="0"/>
      </contour>
    </TTGlyph>
    <TTGlyph name="aBaa.init_YaaBarree" xMin="-266" yMin="586" xMax="25" yMax="1153">
      <contour>
        <pt x="-266" y="1139" on="1"/>
        <pt x="-267" y="1149" on="0"/>
        <pt x="-256" y="1153" on="1"/>
        <pt x="-232" y="1162" on="0"/>
        <pt x="-89" y="1004" on="1"/>
        <pt x="-5" y="912" on="0"/>
        <pt x="42" y="751" on="0"/>
        <pt x="7" y="583" on="0"/>
        <pt x="-9" y="586" on="1"/>
        <pt x="-29" y="590" on="0"/>
        <pt x="-30" y="640" on="1"/>
        <pt x="-30" y="762" on="0"/>
        <pt x="-229" y="946" on="1"/>
        <pt x="-251" y="966" on="0"/>
        <pt x="-261" y="984" on="0"/>
        <pt x="-263" y="1002" on="1"/>
      </contour>
    </TTGlyph>
    <TTGlyph name="aBaa.isol" xMin="162" yMin="-14" xMax="1759" yMax="761">
      <contour>
        <pt x="1681" y="761" on="1"/>
        <pt x="1739" y="695" on="0"/>
        <pt x="1779" y="458" on="0"/>
        <pt x="1730" y="235" on="0"/>
        <pt x="1673" y="202" on="1"/>
        <pt x="1345" y="11" on="0"/>
        <pt x="362" y="-38" on="0"/>
        <pt x="194" y="170" on="1"/>
        <pt x="85" y="304" on="0"/>
        <pt x="162" y="484" on="1"/>
        <pt x="194" y="559" on="0"/>
        <pt x="272" y="644" on="1"/>
        <pt x="285" y="658" on="0"/>
        <pt x="311" y="650" on="0"/>
        <pt x="316" y="624" on="0"/>
        <pt x="307" y="614" on="1"/>
        <pt x="270" y="573" on="0"/>
        <pt x="227" y="478" on="0"/>
        <pt x="237" y="443" on="1"/>
        <pt x="309" y="179" on="0"/>
        <pt x="1356" y="195" on="0"/>
        <pt x="1690" y="388" on="1"/>
        <pt x="1683" y="465" on="0"/>
        <pt x="1592" y="583" on="1"/>
        <pt x="1586" y="591" on="0"/>
        <pt x="1607" y="685" on="0"/>
        <pt x="1643" y="761" on="1"/>
        <pt x="1656" y="789" on="0"/>
      </contour>
    </TTGlyph>
    <TTGlyph name="aBaa.medi" xMin="-44" yMin="0" xMax="538" yMax="336">
      <contour>
        <pt x="500" y="185" on="1"/>
        <pt x="534" y="177" on="0"/>
        <pt x="542" y="145" on="0"/>
        <pt x="538" y="113" on="1"/>
        <pt x="523" y="0" on="0"/>
        <pt x="500" y="0" on="1"/>
        <pt x="390" y="-1" on="0"/>
        <pt x="278" y="124" on="1"/>
        <pt x="187" y="13" on="0"/>
        <pt x="0" y="0" on="1"/>
        <pt x="-19" y="-1" on="0"/>
        <pt x="-26" y="31" on="1"/>
        <pt x="-44" y="116" on="1"/>
        <pt x="-49" y="137" on="0"/>
        <pt x="-22" y="183" on="0"/>
        <pt x="0" y="185" on="1"/>
        <pt x="228" y="202" on="0"/>
        <pt x="304" y="319" on="1"/>
        <pt x="315" y="336" on="0"/>
        <pt x="349" y="336" on="0"/>
        <pt x="352" y="298" on="0"/>
        <pt x="355" y="292" on="1"/>
        <pt x="422" y="200" on="0"/>
      </contour>
    </TTGlyph>
    <TTGlyph name="aBaa.medi_BaaBaaHaaInit" xMin="-44" yMin="443" xMax="959" yMax="918">
      <contour>
        <pt x="640" y="918" on="1"/>
        <pt x="745" y="1018" on="0"/>
        <pt x="807" y="872" on="1"/>
        <pt x="850" y="770" on="0"/>
        <pt x="911" y="756" on="1"/>
        <pt x="945" y="748" on="0"/>
        <pt x="959" y="748" on="1"/>
        <pt x="1005" y="750" on="0"/>
        <pt x="957" y="615" on="1"/>
        <pt x="941" y="569" on="0"/>
        <pt x="920" y="568" on="1"/>
        <pt x="788" y="560" on="0"/>
        <pt x="709" y="746" on="1"/>
        <pt x="672" y="834" on="0"/>
        <pt x="515" y="707" on="1"/>
        <pt x="404" y="617" on="0"/>
        <pt x="296" y="567" on="1"/>
        <pt x="14" y="436" on="0"/>
        <pt x="-33" y="443" on="1"/>
        <pt x="-112" y="454" on="0"/>
        <pt x="-44" y="528" on="1"/>
        <pt x="14" y="590" on="0"/>
        <pt x="36" y="597" on="1"/>
        <pt x="226" y="654" on="0"/>
        <pt x="288" y="680" on="1"/>
        <pt x="417" y="736" on="0"/>
        <pt x="503" y="804" on="1"/>
        <pt x="597" y="878" on="0"/>
      </contour>
    </TTGlyph>
    <TTGlyph name="aBaa.medi_BaaBaaInit" xMin="-55" yMin="0" xMax="386" yMax="309">
      <contour>
        <pt x="386" y="157" on="1"/>
        <pt x="342" y="78" on="0"/>
        <pt x="304" y="98" on="1"/>
        <pt x="296" y="102" on="0"/>
        <pt x="242" y="143" on="1"/>
        <pt x="116" y="2" on="0"/>
        <pt x="0" y="0" on="1"/>
        <pt x="-43" y="-1" on="0"/>
        <pt x="-55" y="90" on="1"/>
        <pt x="-67" y="178" on="0"/>
        <pt x="0" y="186" on="1"/>
        <pt x="180" y="207" on="0"/>
        <pt x="256" y="307" on="1"/>
        <pt x="277" y="335" on="0"/>
        <pt x="309" y="309" on="1"/>
        <pt x="318" y="303" on="0"/>
        <pt x="351" y="272" on="1"/>
        <pt x="419" y="214" on="0"/>
      </contour>
    </TTGlyph>
    <TTGlyph name="aBaa.medi_BaaBaaMemInit" xMin="-143" yMin="503" xMax="413" yMax="856">
      <contour>
        <pt x="400" y="684" on="1"/>
        <pt x="431" y="685" on="0"/>
        <pt x="413" y="603" on="1"/>
        <pt x="395" y="522" on="0"/>
        <pt x="371" y="508" on="1"/>
        <pt x="363" y="504" on="0"/>
        <pt x="353" y="503" on="1"/>
        <pt x="260" y="507" on="0"/>
        <pt x="134" y="669" on="1"/>
        <pt x="114" y="695" on="0"/>
        <pt x="65" y="684" on="1"/>
        <pt x="-28" y="662" on="0"/>
        <pt x="-97" y="581" on="1"/>
        <pt x="-136" y="535" on="0"/>
        <pt x="-143" y="552" on="1"/>
        <pt x="-145" y="557" on="0"/>
        <pt x="-141" y="570" on="1"/>
        <pt x="-114" y="664" on="0"/>
        <pt x="-54" y="734" on="1"/>
        <pt x="54" y="856" on="0"/>
        <pt x="144" y="856" on="1"/>
        <pt x="194" y="856" on="0"/>
        <pt x="228" y="798" on="1"/>
        <pt x="302" y="683" on="0"/>
      </contour>
    </TTGlyph>
    <TTGlyph name="aBaa.medi_BaaBaaYaaIsol" xMin="-55" yMin="51" xMax="791" yMax="676">
      <contour>
        <pt x="745" y="465" on="1"/>
        <pt x="793" y="467" on="0"/>
        <pt x="788" y="281" on="0"/>
        <pt x="728" y="278" on="1"/>
        <pt x="625" y="276" on="0"/>
        <pt x="432" y="498" on="0"/>
        <pt x="378" y="499" on="1"/>
        <pt x="238" y="499" on="0"/>
        <pt x="94" y="340" on="1"/>
        <pt x="43" y="282" on="0"/>
        <pt x="54" y="240" on="1"/>
        <pt x="76" y="151" on="0"/>
        <pt x="37" y="76" on="1"/>
        <pt x="14" y="31" on="0"/>
        <pt x="-17" y="51" on="1"/>
        <pt x="-68" y="85" on="0"/>
        <pt x="-41" y="245" on="0"/>
        <pt x="5" y="320" on="1"/>
        <pt x="127" y="518" on="0"/>
        <pt x="292" y="634" on="1"/>
        <pt x="367" y="684" on="0"/>
        <pt x="454" y="676" on="1"/>
        <pt x="485" y="672" on="0"/>
        <pt x="656" y="460" on="0"/>
      </contour>
    </TTGlyph>
    <TTGlyph name="aBaa.medi_BaaHehMedi" xMin="-43" yMin="-74" xMax="666" yMax="327">
      <contour>
        <pt x="35" y="26" on="1"/>
        <pt x="12" y="-1" on="0"/>
        <pt x="-5" y="-55" on="1"/>
        <pt x="-15" y="-87" on="0"/>
        <pt x="-64" y="-60" on="0"/>
        <pt x="-43" y="-23" on="1"/>
        <pt x="54" y="168" on="0"/>
        <pt x="309" y="348" on="0"/>
        <pt x="439" y="327" on="1"/>
        <pt x="480" y="319" on="0"/>
        <pt x="578" y="192" on="0"/>
        <pt x="638" y="185" on="1"/>
        <pt x="662" y="182" on="0"/>
        <pt x="670" y="90" on="0"/>
        <pt x="652" y="-2" on="0"/>
        <pt x="638" y="0" on="1"/>
        <pt x="547" y="5" on="0"/>
        <pt x="456" y="93" on="1"/>
        <pt x="397" y="150" on="0"/>
        <pt x="365" y="154" on="1"/>
        <pt x="158" y="176" on="0"/>
      </contour>
    </TTGlyph>
    <TTGlyph name="aBaa.medi_BaaMemAlfFina" xMin="-72" yMin="0" xMax="533" yMax="363">
      <contour>
        <pt x="-72" y="66" on="1"/>
        <pt x="-95" y="83" on="0"/>
        <pt x="-63" y="162" on="1"/>
        <pt x="21" y="363" on="0"/>
        <pt x="269" y="363" on="1"/>
        <pt x="309" y="364" on="0"/>
        <pt x="346" y="298" on="1"/>
        <pt x="405" y="191" on="0"/>
        <pt x="483" y="186" on="1"/>
        <pt x="534" y="182" on="0"/>
        <pt x="533" y="80" on="1"/>
        <pt x="532" y="0" on="0"/>
        <pt x="483" y="0" on="1"/>
        <pt x="353" y="0" on="0"/>
        <pt x="255" y="156" on="1"/>
        <pt x="219" y="211" on="0"/>
        <pt x="57" y="152" on="1"/>
        <pt x="-16" y="125" on="0"/>
        <pt x="-50" y="78" on="1"/>
        <pt x="-61" y="58" on="0"/>
      </contour>
    </TTGlyph>
    <TTGlyph name="aBaa.medi_BaaMemFina" xMin="-38" yMin="0" xMax="735" yMax="386">
      <contour>
        <pt x="441" y="386" on="1"/>
        <pt x="511" y="385" on="0"/>
        <pt x="606" y="255" on="1"/>
        <pt x="654" y="191" on="0"/>
        <pt x="692" y="185" on="1"/>
        <pt x="809" y="165" on="0"/>
        <pt x="735" y="25" on="1"/>
        <pt x="722" y="0" on="0"/>
        <pt x="692" y="0" on="1"/>
        <pt x="590" y="0" on="0"/>
        <pt x="509" y="132" on="1"/>
        <pt x="443" y="240" on="0"/>
        <pt x="171" y="200" on="0"/>
        <pt x="62" y="113" on="1"/>
        <pt x="11" y="72" on="0"/>
        <pt x="-53" y="136" on="0"/>
        <pt x="-23" y="176" on="0"/>
        <pt x="53" y="226" on="1"/>
        <pt x="303" y="387" on="0"/>
      </contour>
    </TTGlyph>
    <TTGlyph name="aBaa.medi_BaaNonFina" xMin="-36" yMin="0" xMax="489" yMax="619">
      <contour>
        <pt x="447" y="0" on="1"/>
        <pt x="356" y="13" on="0"/>
        <pt x="278" y="153" on="0"/>
        <pt x="239" y="414" on="1"/>
        <pt x="237" y="427" on="0"/>
        <pt x="231" y="416" on="1"/>
        <pt x="166" y="292" on="0"/>
        <pt x="50" y="276" on="1"/>
        <pt x="-21" y="267" on="0"/>
        <pt x="-36" y="356" on="1"/>
        <pt x="-51" y="458" on="0"/>
        <pt x="17" y="445" on="1"/>
        <pt x="175" y="416" on="0"/>
        <pt x="254" y="594" on="1"/>
        <pt x="265" y="621" on="0"/>
        <pt x="304" y="617" on="0"/>
        <pt x="307" y="587" on="1"/>
        <pt x="333" y="320" on="0"/>
        <pt x="393" y="194" on="0"/>
        <pt x="501" y="176" on="0"/>
        <pt x="476" y="-4" on="0"/>
      </contour>
    </TTGlyph>
    <TTGlyph name="aBaa.medi_BaaRaaFina" xMin="-49" yMin="0" xMax="580" yMax="634">
      <contour>
        <pt x="325" y="636" on="0"/>
        <pt x="363" y="631" on="0"/>
        <pt x="372" y="568" on="0"/>
        <pt x="402" y="300" on="0"/>
        <pt x="462" y="198" on="0"/>
        <pt x="596" y="172" on="0"/>
        <pt x="580" y="107" on="1"/>
        <pt x="555" y="0" on="0"/>
        <pt x="530" y="0" on="1"/>
        <pt x="400" y="0" on="0"/>
        <pt x="357" y="122" on="1"/>
        <pt x="335" y="185" on="0"/>
        <pt x="314" y="402" on="0"/>
        <pt x="312" y="422" on="0"/>
        <pt x="305" y="406" on="1"/>
        <pt x="236" y="238" on="0"/>
        <pt x="49" y="232" on="1"/>
        <pt x="-34" y="229" on="0"/>
        <pt x="-49" y="311" on="1"/>
        <pt x="-62" y="382" on="0"/>
        <pt x="-10" y="442" on="0"/>
        <pt x="34" y="410" on="0"/>
        <pt x="47" y="409" on="1"/>
        <pt x="176" y="398" on="0"/>
        <pt x="234" y="450" on="1"/>
        <pt x="276" y="485" on="0"/>
        <pt x="318" y="614" on="1"/>
      </contour>
    </TTGlyph>
    <TTGlyph name="aBaa.medi_BaaYaaFina" xMin="-58" yMin="-110" xMax="677" yMax="389">
      <contour>
        <pt x="630" y="185" on="1"/>
        <pt x="691" y="174" on="0"/>
        <pt x="677" y="115" on="1"/>
        <pt x="648" y="-2" on="0"/>
        <pt x="631" y="0" on="1"/>
        <pt x="572" y="3" on="0"/>
        <pt x="467" y="54" on="0"/>
        <pt x="361" y="209" on="0"/>
        <pt x="267" y="216" on="0"/>
        <pt x="61" y="99" on="0"/>
        <pt x="50" y="61" on="1"/>
        <pt x="17" y="-59" on="0"/>
        <pt x="-36" y="-109" on="1"/>
        <pt x="-57" y="-128" on="0"/>
        <pt x="-58" y="-110" on="1"/>
        <pt x="-66" y="-27" on="0"/>
        <pt x="84" y="212" on="0"/>
        <pt x="297" y="387" on="0"/>
        <pt x="374" y="389" on="1"/>
        <pt x="423" y="391" on="0"/>
        <pt x="536" y="200" on="0"/>
      </contour>
    </TTGlyph>
    <TTGlyph name="aBaa.medi_High" xMin="-45" yMin="0" xMax="540" yMax="746">
      <contour>
        <pt x="181" y="630" on="1"/>
        <pt x="178" y="648" on="0"/>
        <pt x="222" y="734" on="0"/>
        <pt x="232" y="746" on="1"/>
        <pt x="252" y="768" on="0"/>
        <pt x="270" y="684" on="0"/>
        <pt x="293" y="576" on="1"/>
        <pt x="344" y="336" on="0"/>
        <pt x="372" y="276" on="1"/>
        <pt x="411" y="194" on="0"/>
        <pt x="500" y="185" on="1"/>
        <pt x="524" y="183" on="0"/>
        <pt x="548" y="137" on="0"/>
        <pt x="540" y="99" on="1"/>
        <pt x="522" y="-1" on="0"/>
        <pt x="500" y="0" on="1"/>
        <pt x="326" y="4" on="0"/>
        <pt x="257" y="261" on="1"/>
        <pt x="253" y="271" on="0"/>
        <pt x="250" y="262" on="1"/>
        <pt x="160" y="16" on="0"/>
        <pt x="0" y="0" on="1"/>
        <pt x="-19" y="-2" on="0"/>
        <pt x="-35" y="51" on="0"/>
        <pt x="-55" y="183" on="0"/>
        <pt x="0" y="185" on="1"/>
        <pt x="171" y="192" on="0"/>
        <pt x="239" y="310" on="1"/>
        <pt x="243" y="317" on="0"/>
        <pt x="212" y="440" on="0"/>
      </contour>
    </TTGlyph>
    <TTGlyph name="aBaa.medi_KafBaaInit" xMin="-44" yMin="0" xMax="507" yMax="299">
      <contour>
        <pt x="237" y="185" on="1"/>
        <pt x="222" y="197" on="0"/>
        <pt x="215" y="186" on="1"/>
        <pt x="112" y="20" on="0"/>
        <pt x="0" y="0" on="1"/>
        <pt x="-21" y="-4" on="0"/>
        <pt x="-51" y="87" on="0"/>
        <pt x="-36" y="183" on="0"/>
        <pt x="0" y="185" on="1"/>
        <pt x="148" y="190" on="0"/>
        <pt x="240" y="297" on="1"/>
        <pt x="256" y="315" on="0"/>
        <pt x="274" y="299" on="1"/>
        <pt x="345" y="235" on="0"/>
        <pt x="448" y="201" on="1"/>
        <pt x="492" y="186" on="0"/>
        <pt x="522" y="52" on="0"/>
        <pt x="474" y="60" on="1"/>
        <pt x="366" y="78" on="0"/>
      </contour>
    </TTGlyph>
    <TTGlyph name="aBaa.medi_KafBaaMedi" xMin="-28" yMin="0" xMax="404" yMax="267">
      <contour>
        <pt x="209" y="263" on="1"/>
        <pt x="286" y="209" on="0"/>
        <pt x="448" y="176" on="0"/>
        <pt x="404" y="66" on="1"/>
        <pt x="390" y="30" on="0"/>
        <pt x="370" y="36" on="1"/>
        <pt x="247" y="74" on="0"/>
        <pt x="183" y="153" on="1"/>
        <pt x="93" y="11" on="0"/>
        <pt x="0" y="0" on="1"/>
        <pt x="-18" y="-2" on="0"/>
        <pt x="-28" y="46" on="1"/>
        <pt x="-58" y="183" on="0"/>
        <pt x="0" y="185" on="1"/>
        <pt x="114" y="187" on="0"/>
        <pt x="171" y="259" on="1"/>
        <pt x="176" y="265" on="0"/>
        <pt x="201" y="268" on="0"/>
      </contour>
    </TTGlyph>
    <TTGlyph name="aBaa.medi_LamBaaMemInit" xMin="-143" yMin="494" xMax="321" yMax="817">
      <contour>
        <pt x="-92" y="548" on="1"/>
        <pt x="-102" y="511" on="0"/>
        <pt x="-120" y="512" on="1"/>
        <pt x="-161" y="515" on="0"/>
        <pt x="-143" y="569" on="1"/>
        <pt x="-111" y="665" on="0"/>
        <pt x="-23" y="740" on="1"/>
        <pt x="62" y="814" on="0"/>
        <pt x="153" y="817" on="1"/>
        <pt x="194" y="818" on="0"/>
        <pt x="213" y="786" on="1"/>
        <pt x="281" y="670" on="0"/>
        <pt x="304" y="665" on="1"/>
        <pt x="319" y="662" on="0"/>
        <pt x="323" y="571" on="0"/>
        <pt x="309" y="530" on="1"/>
        <pt x="295" y="490" on="0"/>
        <pt x="271" y="494" on="1"/>
        <pt x="224" y="501" on="0"/>
        <pt x="186" y="578" on="1"/>
        <pt x="148" y="654" on="0"/>
        <pt x="103" y="657" on="1"/>
        <pt x="4" y="663" on="0"/>
        <pt x="-83" y="567" on="1"/>
        <pt x="-87" y="562" on="0"/>
      </contour>
    </TTGlyph>
    <TTGlyph name="aBaa.medi_SenBaaMemInit" xMin="-157" yMin="407" xMax="529" yMax="838">
      <contour>
        <pt x="-83" y="499" on="1"/>
        <pt x="-83" y="422" on="0"/>
        <pt x="-117" y="407" on="1"/>
        <pt x="-160" y="389" on="0"/>
        <pt x="-157" y="470" on="1"/>
        <pt x="-153" y="578" on="0"/>
        <pt x="-116" y="643" on="1"/>
        <pt x="-1" y="850" on="0"/>
        <pt x="137" y="838" on="1"/>
        <pt x="179" y="834" on="0"/>
        <pt x="199" y="797" on="1"/>
        <pt x="314" y="584" on="0"/>
        <pt x="481" y="603" on="1"/>
        <pt x="526" y="608" on="0"/>
        <pt x="529" y="555" on="1"/>
        <pt x="533" y="483" on="0"/>
        <pt x="489" y="436" on="1"/>
        <pt x="467" y="413" on="0"/>
        <pt x="443" y="414" on="1"/>
        <pt x="331" y="419" on="0"/>
        <pt x="249" y="484" on="1"/>
        <pt x="195" y="526" on="0"/>
        <pt x="112" y="630" on="1"/>
        <pt x="77" y="674" on="0"/>
        <pt x="-7" y="609" on="1"/>
        <pt x="-82" y="552" on="0"/>
      </contour>
    </TTGlyph>
    <TTGlyph name="aDal.fina" xMin="158" yMin="0" xMax="1006" yMax="1042">
      <contour>
        <pt x="965" y="185" on="1"/>
        <pt x="996" y="177" on="0"/>
        <pt x="1016" y="84" on="0"/>
        <pt x="991" y="-1" on="0"/>
        <pt x="965" y="0" on="1"/>
        <pt x="830" y="8" on="0"/>
        <pt x="782" y="224" on="1"/>
        <pt x="767" y="292" on="0"/>
        <pt x="766" y="293" on="1"/>
        <pt x="760" y="309" on="0"/>
        <pt x="754" y="291" on="1"/>
        <pt x="690" y="118" on="0"/>
        <pt x="590" y="77" on="1"/>
        <pt x="463" y="26" on="0"/>
        <pt x="245" y="40" on="1"/>
        <pt x="75" y="51" on="0"/>
        <pt x="158" y="310" on="1"/>
        <pt x="167" y="338" on="0"/>
        <pt x="209" y="346" on="0"/>
        <pt x="217" y="315" on="1"/>
        <pt x="234" y="256" on="0"/>
        <pt x="273" y="247" on="1"/>
        <pt x="469" y="205" on="0"/>
        <pt x="630" y="269" on="1"/>
        <pt x="710" y="301" on="0"/>
        <pt x="735" y="382" on="1"/>
        <pt x="739" y="396" on="0"/>
        <pt x="676" y="810" on="0"/>
        <pt x="666" y="901" on="0"/>
        <pt x="677" y="925" on="1"/>
        <pt x="711" y="996" on="0"/>
        <pt x="724" y="1029" on="1"/>
        <pt x="730" y="1044" on="0"/>
        <pt x="761" y="1040" on="0"/>
        <pt x="763" y="1022" on="1"/>
        <pt x="813" y="592" on="0"/>
        <pt x="872" y="337" on="1"/>
        <pt x="903" y="201" on="0"/>
      </contour>
    </TTGlyph>
    <TTGlyph name="aDal.fina_BaaDalIsol" xMin="156" yMin="9" xMax="1070" yMax="996">
      <contour>
        <pt x="712" y="971" on="1"/>
        <pt x="757" y="760" on="0"/>
        <pt x="916" y="262" on="0"/>
        <pt x="1020" y="204" on="0"/>
        <pt x="1070" y="125" on="1"/>
        <pt x="1136" y="22" on="0"/>
        <pt x="1060" y="9" on="1"/>
        <pt x="866" y="-24" on="0"/>
        <pt x="760" y="353" on="1"/>
        <pt x="758" y="358" on="0"/>
        <pt x="746" y="358" on="0"/>
        <pt x="744" y="352" on="1"/>
        <pt x="734" y="303" on="0"/>
        <pt x="690" y="172" on="0"/>
        <pt x="668" y="150" on="1"/>
        <pt x="592" y="70" on="0"/>
        <pt x="268" y="-22" on="0"/>
        <pt x="184" y="14" on="1"/>
        <pt x="86" y="55" on="0"/>
        <pt x="156" y="296" on="1"/>
        <pt x="158" y="303" on="0"/>
        <pt x="180" y="306" on="0"/>
        <pt x="186" y="294" on="1"/>
        <pt x="204" y="244" on="0"/>
        <pt x="232" y="227" on="1"/>
        <pt x="298" y="186" on="0"/>
        <pt x="478" y="235" on="1"/>
        <pt x="672" y="287" on="0"/>
        <pt x="712" y="371" on="1"/>
        <pt x="735" y="420" on="0"/>
        <pt x="656" y="698" on="1"/>
        <pt x="615" y="843" on="0"/>
        <pt x="630" y="885" on="1"/>
        <pt x="670" y="996" on="1"/>
        <pt x="692" y="1060" on="0"/>
      </contour>
    </TTGlyph>
    <TTGlyph name="aDal.fina_KafDal" xMin="291" yMin="-60" xMax="1046" yMax="818">
      <contour>
        <pt x="956" y="-60" on="1"/>
        <pt x="870" y="0" on="0"/>
        <pt x="822" y="247" on="1"/>
        <pt x="815" y="282" on="0"/>
        <pt x="800" y="236" on="1"/>
        <pt x="776" y="164" on="0"/>
        <pt x="741" y="101" on="1"/>
        <pt x="684" y="0" on="0"/>
        <pt x="540" y="-18" on="1"/>
        <pt x="398" y="-35" on="0"/>
        <pt x="343" y="-15" on="1"/>
        <pt x="273" y="10" on="0"/>
        <pt x="291" y="179" on="1"/>
        <pt x="294" y="206" on="0"/>
        <pt x="311" y="209" on="1"/>
        <pt x="329" y="212" on="0"/>
        <pt x="336" y="199" on="1"/>
        <pt x="353" y="163" on="0"/>
        <pt x="469" y="155" on="0"/>
        <pt x="561" y="168" on="1"/>
        <pt x="766" y="197" on="0"/>
        <pt x="785" y="311" on="1"/>
        <pt x="783" y="352" on="0"/>
        <pt x="754" y="553" on="0"/>
        <pt x="740" y="620" on="1"/>
        <pt x="725" y="691" on="0"/>
        <pt x="735" y="712" on="1"/>
        <pt x="778" y="806" on="1"/>
        <pt x="784" y="819" on="0"/>
        <pt x="796" y="818" on="1"/>
        <pt x="810" y="817" on="0"/>
        <pt x="812" y="801" on="1"/>
        <pt x="834" y="656" on="0"/>
        <pt x="886" y="404" on="1"/>
        <pt x="928" y="200" on="0"/>
        <pt x="1014" y="150" on="1"/>
        <pt x="1047" y="131" on="0"/>
        <pt x="1046" y="72" on="1"/>
        <pt x="1045" y="-5" on="0"/>
        <pt x="1012" y="-52" on="1"/>
        <pt x="990" y="-83" on="0"/>
      </contour>
    </TTGlyph>
    <TTGlyph name="aDal.fina_LamDal" xMin="127" yMin="-196" xMax="1054" yMax="797">
      <contour>
        <pt x="1013" y="-196" on="1"/>
        <pt x="923" y="-196" on="0"/>
        <pt x="881" y="-158" on="1"/>
        <pt x="785" y="-75" on="0"/>
        <pt x="711" y="159" on="1"/>
        <pt x="660" y="8" on="0"/>
        <pt x="607" y="-28" on="1"/>
        <pt x="460" y="-128" on="0"/>
        <pt x="213" y="-108" on="1"/>
        <pt x="140" y="-102" on="0"/>
        <pt x="115" y="65" on="0"/>
        <pt x="157" y="176" on="1"/>
        <pt x="163" y="192" on="0"/>
        <pt x="179" y="194" on="1"/>
        <pt x="196" y="196" on="0"/>
        <pt x="203" y="179" on="1"/>
        <pt x="249" y="70" on="0"/>
        <pt x="421" y="94" on="1"/>
        <pt x="671" y="130" on="0"/>
        <pt x="685" y="272" on="1"/>
        <pt x="601" y="673" on="1"/>
        <pt x="593" y="714" on="0"/>
        <pt x="605" y="736" on="1"/>
        <pt x="639" y="797" on="1"/>
        <pt x="663" y="840" on="0"/>
        <pt x="675" y="779" on="1"/>
        <pt x="759" y="352" on="0"/>
        <pt x="831" y="185" on="1"/>
        <pt x="890" y="48" on="0"/>
        <pt x="1010" y="34" on="1"/>
        <pt x="1044" y="30" on="0"/>
        <pt x="1064" y="-82" on="0"/>
        <pt x="1050" y="-138" on="1"/>
        <pt x="1035" y="-196" on="0"/>
      </contour>
    </TTGlyph>
    <TTGlyph name="aDal.isol" xMin="174" yMin="-12" xMax="773" yMax="793">
      <contour>
        <pt x="349" y="659" on="1"/>
        <pt x="382" y="759" on="0"/>
        <pt x="408" y="789" on="1"/>
        <pt x="425" y="809" on="0"/>
        <pt x="454" y="793" on="1"/>
        <pt x="727" y="642" on="0"/>
        <pt x="773" y="390" on="1"/>
        <pt x="799" y="248" on="0"/>
        <pt x="761" y="140" on="1"/>
        <pt x="750" y="108" on="0"/>
        <pt x="718" y="91" on="1"/>
        <pt x="523" y="-9" on="0"/>
        <pt x="288" y="-12" on="1"/>
        <pt x="125" y="-14" on="0"/>
        <pt x="174" y="196" on="1"/>
        <pt x="180" y="220" on="0"/>
        <pt x="199" y="223" on="1"/>
        <pt x="211" y="224" on="0"/>
        <pt x="230" y="208" on="1"/>
        <pt x="269" y="175" on="0"/>
        <pt x="383" y="190" on="1"/>
        <pt x="631" y="222" on="0"/>
        <pt x="708" y="268" on="1"/>
        <pt x="715" y="272" on="0"/>
        <pt x="712" y="292" on="1"/>
        <pt x="674" y="497" on="0"/>
        <pt x="379" y="612" on="1"/>
        <pt x="339" y="628" on="0"/>
      </contour>
    </TTGlyph>
    <TTGlyph name="aFaa.fina" xMin="130" yMin="-174" xMax="2110" yMax="690">
      <contour>
        <pt x="1608" y="578" on="1"/>
        <pt x="1737" y="769" on="0"/>
        <pt x="1826" y="690" on="1"/>
        <pt x="1938" y="590" on="0"/>
        <pt x="1900" y="372" on="1"/>
        <pt x="1887" y="298" on="0"/>
        <pt x="1838" y="204" on="1"/>
        <pt x="1914" y="174" on="0"/>
        <pt x="2060" y="185" on="1"/>
        <pt x="2110" y="188" on="0"/>
        <pt x="2110" y="122" on="1"/>
        <pt x="2110" y="3" on="0"/>
        <pt x="2060" y="0" on="1"/>
        <pt x="1842" y="-15" on="0"/>
        <pt x="1703" y="52" on="1"/>
        <pt x="1580" y="-32" on="0"/>
        <pt x="1378" y="-94" on="1"/>
        <pt x="940" y="-227" on="0"/>
        <pt x="554" y="-174" on="1"/>
        <pt x="353" y="-146" on="0"/>
        <pt x="130" y="15" on="0"/>
        <pt x="130" y="271" on="0"/>
        <pt x="251" y="469" on="1"/>
        <pt x="259" y="482" on="0"/>
        <pt x="286" y="482" on="0"/>
        <pt x="299" y="459" on="0"/>
        <pt x="290" y="444" on="1"/>
        <pt x="208" y="299" on="0"/>
        <pt x="243" y="234" on="1"/>
        <pt x="360" y="18" on="0"/>
        <pt x="767" y="25" on="1"/>
        <pt x="1242" y="33" on="0"/>
        <pt x="1542" y="150" on="1"/>
        <pt x="1468" y="204" on="0"/>
        <pt x="1517" y="444" on="0"/>
      </contour>
      <contour>
        <pt x="1721" y="509" on="1"/>
        <pt x="1638" y="519" on="0"/>
        <pt x="1580" y="354" on="1"/>
        <pt x="1590" y="320" on="0"/>
        <pt x="1648" y="263" on="0"/>
        <pt x="1706" y="243" on="0"/>
        <pt x="1802" y="293" on="0"/>
        <pt x="1817" y="320" on="1"/>
        <pt x="1812" y="499" on="0"/>
      </contour>
    </TTGlyph>
    <TTGlyph name="aFaa.init" xMin="-40" yMin="0" xMax="475" yMax="838">
      <contour>
        <pt x="236" y="838" on="1"/>
        <pt x="263" y="838" on="0"/>
        <pt x="302" y="804" on="1"/>
        <pt x="485" y="643" on="0"/>
        <pt x="475" y="399" on="1"/>
        <pt x="470" y="270" on="0"/>
        <pt x="412" y="194" on="1"/>
        <pt x="262" y="0" on="0"/>
        <pt x="0" y="0" on="1"/>
        <pt x="-26" y="-1" on="0"/>
        <pt x="-50" y="94" on="0"/>
        <pt x="-29" y="183" on="0"/>
        <pt x="0" y="185" on="1"/>
        <pt x="256" y="202" on="0"/>
        <pt x="385" y="331" on="1"/>
        <pt x="380" y="392" on="0"/>
        <pt x="352" y="432" on="0"/>
        <pt x="334" y="428" on="0"/>
        <pt x="331" y="421" on="1"/>
        <pt x="296" y="332" on="0"/>
        <pt x="225" y="316" on="1"/>
        <pt x="0" y="268" on="0"/>
        <pt x="19" y="490" on="1"/>
        <pt x="28" y="599" on="0"/>
        <pt x="172" y="839" on="0"/>
      </contour>
      <contour>
        <pt x="168" y="616" on="1"/>
        <pt x="121" y="614" on="0"/>
        <pt x="112" y="537" on="1"/>
        <pt x="111" y="526" on="0"/>
        <pt x="115" y="525" on="1"/>
        <pt x="155" y="513" on="0"/>
        <pt x="241" y="525" on="0"/>
        <pt x="253" y="544" on="1"/>
        <pt x="206" y="618" on="0"/>
      </contour>
    </TTGlyph>
    <TTGlyph name="aFaa.init_FaaHaaInit" xMin="-64" yMin="394" xMax="414" yMax="1216">
      <contour>
        <pt x="358" y="726" on="1"/>
        <pt x="350" y="774" on="0"/>
        <pt x="295" y="841" on="0"/>
        <pt x="275" y="812" on="1"/>
        <pt x="180" y="674" on="0"/>
        <pt x="84" y="687" on="1"/>
        <pt x="-72" y="708" on="0"/>
        <pt x="8" y="997" on="1"/>
        <pt x="60" y="1185" on="0"/>
        <pt x="172" y="1216" on="1"/>
        <pt x="221" y="1230" on="0"/>
        <pt x="289" y="1150" on="1"/>
        <pt x="405" y="1012" on="0"/>
        <pt x="414" y="767" on="1"/>
        <pt x="417" y="681" on="0"/>
        <pt x="373" y="597" on="1"/>
        <pt x="257" y="386" on="0"/>
        <pt x="-10" y="394" on="1"/>
        <pt x="-139" y="398" on="0"/>
        <pt x="-64" y="491" on="1"/>
        <pt x="-36" y="526" on="0"/>
        <pt x="-26" y="531" on="1"/>
        <pt x="-4" y="542" on="0"/>
        <pt x="27" y="548" on="1"/>
        <pt x="336" y="606" on="0"/>
      </contour>
      <contour>
        <pt x="62" y="977" on="1"/>
        <pt x="74" y="905" on="0"/>
        <pt x="124" y="903" on="1"/>
        <pt x="175" y="902" on="0"/>
        <pt x="192" y="953" on="1"/>
        <pt x="151" y="996" on="0"/>
        <pt x="83" y="1005" on="0"/>
      </contour>
    </TTGlyph>
    <TTGlyph name="aFaa.init_FaaMemInit" xMin="-180" yMin="406" xMax="230" yMax="1135">
      <contour>
        <pt x="12" y="1135" on="1"/>
        <pt x="96" y="1140" on="0"/>
        <pt x="164" y="1001" on="1"/>
        <pt x="267" y="792" on="0"/>
        <pt x="230" y="573" on="1"/>
        <pt x="216" y="490" on="0"/>
        <pt x="130" y="420" on="1"/>
        <pt x="91" y="388" on="0"/>
        <pt x="-32" y="406" on="1"/>
        <pt x="-170" y="422" on="0"/>
        <pt x="-138" y="460" on="1"/>
        <pt x="-115" y="488" on="0"/>
        <pt x="-4" y="499" on="1"/>
        <pt x="110" y="509" on="0"/>
        <pt x="170" y="575" on="1"/>
        <pt x="177" y="582" on="0"/>
        <pt x="176" y="593" on="1"/>
        <pt x="165" y="719" on="0"/>
        <pt x="106" y="727" on="1"/>
        <pt x="46" y="575" on="0"/>
        <pt x="-86" y="612" on="1"/>
        <pt x="-235" y="654" on="0"/>
        <pt x="-180" y="909" on="1"/>
        <pt x="-117" y="1128" on="0"/>
      </contour>
      <contour>
        <pt x="30" y="862" on="1"/>
        <pt x="-5" y="916" on="0"/>
        <pt x="-82" y="916" on="0"/>
        <pt x="-110" y="877" on="1"/>
        <pt x="-122" y="861" on="0"/>
        <pt x="-106" y="847" on="1"/>
        <pt x="-48" y="794" on="0"/>
        <pt x="26" y="839" on="1"/>
        <pt x="40" y="848" on="0"/>
      </contour>
    </TTGlyph>
    <TTGlyph name="aFaa.init_FaaYaaIsol" xMin="-99" yMin="142" xMax="337" yMax="964">
      <contour>
        <pt x="233" y="894" on="1"/>
        <pt x="339" y="742" on="0"/>
        <pt x="337" y="558" on="1"/>
        <pt x="337" y="474" on="0"/>
        <pt x="318" y="404" on="1"/>
        <pt x="248" y="142" on="0"/>
        <pt x="-85" y="142" on="1"/>
        <pt x="-105" y="142" on="0"/>
        <pt x="-99" y="164" on="1"/>
        <pt x="-87" y="210" on="0"/>
        <pt x="-49" y="277" on="1"/>
        <pt x="-43" y="288" on="0"/>
        <pt x="-28" y="290" on="1"/>
        <pt x="219" y="328" on="0"/>
        <pt x="283" y="428" on="1"/>
        <pt x="304" y="462" on="0"/>
        <pt x="274" y="520" on="1"/>
        <pt x="246" y="574" on="0"/>
        <pt x="218" y="588" on="1"/>
        <pt x="174" y="502" on="0"/>
        <pt x="128" y="478" on="1"/>
        <pt x="11" y="416" on="0"/>
        <pt x="-59" y="520" on="1"/>
        <pt x="-116" y="607" on="0"/>
        <pt x="-61" y="746" on="1"/>
        <pt x="24" y="960" on="0"/>
        <pt x="132" y="964" on="1"/>
        <pt x="183" y="966" on="0"/>
      </contour>
      <contour>
        <pt x="65" y="762" on="0"/>
        <pt x="10" y="760" on="0"/>
        <pt x="-17" y="726" on="1"/>
        <pt x="-30" y="709" on="0"/>
        <pt x="-5" y="691" on="1"/>
        <pt x="57" y="646" on="0"/>
        <pt x="119" y="702" on="1"/>
        <pt x="127" y="711" on="0"/>
        <pt x="118" y="719" on="1"/>
      </contour>
    </TTGlyph>
</ttFont>
